SplineFontDB: 3.0
FontName: Topmarks-Book
FullName: Topmarks Book
FamilyName: Topmarks
Weight: Book
Copyright: Copyright (c) 2012-13 by vernon adams. All rights reserved.
Version: 
ItalicAngle: 0
UnderlinePosition: 0
UnderlineWidth: 0
Ascent: 1638
Descent: 410
sfntRevision: 0x00010000
LayerCount: 2
Layer: 0 1 "Back"  1
Layer: 1 1 "Fore"  0
XUID: [1021 913 -2060267417 1657145]
FSType: 8
OS2Version: 1
OS2_WeightWidthSlopeOnly: 0
OS2_UseTypoMetrics: 1
CreationTime: 1369859810
ModificationTime: 1369871233
PfmFamily: 17
TTFWeight: 400
TTFWidth: 5
LineGap: 0
VLineGap: 0
Panose: 2 0 6 3 0 0 0 0 0 0
OS2TypoAscent: 1960
OS2TypoAOffset: 0
OS2TypoDescent: -656
OS2TypoDOffset: 0
OS2TypoLinegap: 0
OS2WinAscent: 1960
OS2WinAOffset: 0
OS2WinDescent: 656
OS2WinDOffset: 0
HheadAscent: 1960
HheadAOffset: 0
HheadDescent: -656
HheadDOffset: 0
OS2SubXSize: 1331
OS2SubYSize: 1433
OS2SubXOff: 0
OS2SubYOff: 286
OS2SupXSize: 1331
OS2SupYSize: 1433
OS2SupXOff: 0
OS2SupYOff: 983
OS2StrikeYSize: 102
OS2StrikeYPos: 530
OS2Vendor: 'newt'
OS2CodePages: 20000093.00000000
OS2UnicodeRanges: a00000ef.1000204b.00000000.00000000
Lookup: 4 0 0 "'frac' Diagonal Fractions lookup 0"  {"'frac' Diagonal Fractions lookup 0 subtable"  } ['frac' ('DFLT' <'dflt' > 'grek' <'dflt' > 'latn' <'dflt' > ) ]
Lookup: 258 0 0 "'kern' Horizontal Kerning in Latin lookup 0"  {"'kern' Horizontal Kerning in Latin lookup 0 per glyph data 0"  "'kern' Horizontal Kerning in Latin lookup 0 kerning class 1"  } ['kern' ('latn' <'dflt' > ) ]
Lookup: 260 0 0 "'mark' Mark Positioning lookup 1"  {"'mark' Mark Positioning lookup 1 subtable"  } ['mark' ('DFLT' <'dflt' > 'grek' <'dflt' > 'latn' <'dflt' > ) ]
MarkAttachClasses: 1
DEI: 91125
KernClass2: 15 22 "'kern' Horizontal Kerning in Latin lookup 0 kerning class 1" 
 89 A Agrave Aacute Acircumflex Atilde Adieresis Aring Amacron Abreve Aogonek uni0200 uni0202
 1 D
 1 F
 14 G Gcommaaccent
 1 K
 1 L
 1 P
 9 T uni021A
 1 V
 1 W
 18 Y Yacute Ydieresis
 24 c ccedilla cacute ccaron

StartChar: .notdef
Encoding: 65536 -1 0
Width: 748
Flags: W
LayerCount: 2
UndoRedoHistory
Layer: 1
Undoes
EndUndoes
Redoes
EndRedoes
EndUndoRedoHistory
Fore
SplineSet
136 68 m 1,0,-1
 544 68 l 1,1,-1
 544 1297 l 1,2,-1
 136 1297 l 1,3,-1
 136 68 l 1,0,-1
68 0 m 1,4,-1
 68 1365 l 1,5,-1
 612 1365 l 1,6,-1
 612 0 l 1,7,-1
 68 0 l 1,4,-1
EndSplineSet
EndChar

StartChar: exclam
Encoding: 33 33 4
Width: 587
GlyphClass: 2
Flags: W
LayerCount: 2
UndoRedoHistory
Layer: 1
Undoes
EndUndoes
Redoes
EndRedoes
EndUndoRedoHistory
Fore
SplineSet
248 373 m 1,0,-1
 197 1456 l 1,1,-1
 384 1456 l 1,2,-1
 334 373 l 1,3,-1
 248 373 l 1,0,-1
295 -6 m 0,4,5
 242 -6 242 -6 212 26.5 c 128,-1,6
 182 59 182 59 182 106 c 0,7,8
 182 156 182 156 216.5 186.5 c 128,-1,9
 251 217 251 217 296 217 c 0,10,11
 349 217 349 217 379 184.5 c 128,-1,12
 409 152 409 152 409 105 c 0,13,14
 409 55 409 55 374.5 24.5 c 128,-1,15
 340 -6 340 -6 295 -6 c 0,4,5
EndSplineSet
EndChar

StartChar: quotedbl
Encoding: 34 34 5
Width: 847
GlyphClass: 2
Flags: W
LayerCount: 2
UndoRedoHistory
Layer: 1
Undoes
EndUndoes
Redoes
EndRedoes
EndUndoRedoHistory
Fore
SplineSet
525 931 m 1,0,-1
 489 1456 l 1,1,-1
 656 1456 l 1,2,-1
 633 931 l 1,3,-1
 525 931 l 1,0,-1
226 931 m 1,4,-1
 190 1456 l 1,5,-1
 356 1456 l 1,6,-1
 335 931 l 1,7,-1
 226 931 l 1,4,-1
EndSplineSet
EndChar

StartChar: numbersign
Encoding: 35 35 6
Width: 1388
GlyphClass: 2
Flags: W
LayerCount: 2
UndoRedoHistory
Layer: 1
Undoes
EndUndoes
Redoes
EndRedoes
EndUndoRedoHistory
Fore
SplineSet
535 583 m 1,0,-1
 809 583 l 1,1,-1
 861 899 l 1,2,-1
 590 899 l 1,3,-1
 535 583 l 1,0,-1
305 0 m 1,4,-1
 389 465 l 1,5,-1
 137 465 l 1,6,-1
 145 583 l 1,7,-1
 409 583 l 1,8,-1
 460 899 l 1,9,-1
 202 899 l 1,10,-1
 215 1026 l 1,11,-1
 481 1026 l 1,12,-1
 557 1455 l 1,13,-1
 687 1455 l 1,14,-1
 613 1026 l 1,15,-1
 884 1026 l 1,16,-1
 957 1455 l 1,17,-1
 1090 1455 l 1,18,-1
 1012 1026 l 1,19,-1
 1253 1026 l 1,20,-1
 1239 899 l 1,21,-1
 990 899 l 1,22,-1
 938 583 l 1,23,-1
 1187 583 l 1,24,-1
 1176 465 l 1,25,-1
 920 465 l 1,26,-1
 840 0 l 1,27,-1
 711 0 l 1,28,-1
 788 465 l 1,29,-1
 517 465 l 1,30,-1
 438 0 l 1,31,-1
 305 0 l 1,4,-1
EndSplineSet
EndChar

StartChar: dollar
Encoding: 36 36 7
Width: 1176
GlyphClass: 2
Flags: W
LayerCount: 2
UndoRedoHistory
Layer: 1
Undoes
EndUndoes
Redoes
EndRedoes
EndUndoRedoHistory
Fore
SplineSet
640 128 m 1,0,1
 744 138 744 138 804 198 c 0,2,3
 877 270 877 270 877 394 c 0,4,5
 877 433 877 433 869.5 462 c 128,-1,6
 862 491 862 491 840 521 c 128,-1,7
 818 551 818 551 779 577 c 128,-1,8
 740 603 740 603 678 630 c 0,9,10
 660 638 660 638 640 645 c 1,11,-1
 640 128 l 1,0,1
640 1478 m 1,12,13
 842 1465 842 1465 1004 1348 c 1,14,-1
 938 1217 l 1,15,16
 870 1266 870 1266 784 1298 c 0,17,18
 713 1325 713 1325 640 1329 c 1,19,-1
 640 821 l 1,20,21
 754 784 754 784 832 742 c 0,22,23
 914 698 914 698 961.5 643.5 c 128,-1,24
 1009 589 1009 589 1027.5 529.5 c 128,-1,25
 1046 470 1046 470 1046 391 c 0,26,27
 1046 204 1046 204 926 90 c 0,28,29
 818 -13 818 -13 640 -23 c 1,30,-1
 640 -196 l 1,31,-1
 531 -196 l 1,32,-1
 531 -21 l 1,33,34
 434 -12 434 -12 342 22 c 0,35,36
 216 68 216 68 138 128 c 1,37,-1
 189 278 l 1,38,39
 237 238 237 238 302.5 204 c 128,-1,40
 368 170 368 170 447 148 c 0,41,42
 491 136 491 136 531 130 c 1,43,-1
 531 683 l 1,44,45
 529 684 529 684 526 685 c 0,46,47
 312 753 312 753 222.5 847 c 128,-1,48
 133 941 133 941 134 1105 c 0,49,50
 135 1222 135 1222 196 1308.5 c 0,51,52
 258 1396 258 1396 360 1438 c 0,53,54
 438 1470 438 1470 531 1478 c 1,55,-1
 531 1627 l 1,56,-1
 640 1627 l 1,57,-1
 640 1478 l 1,12,13
531 1325 m 1,58,59
 509 1322 509 1322 488 1316 c 0,60,61
 433 1302 433 1302 393 1276 c 128,-1,62
 353 1250 353 1250 331 1208.5 c 128,-1,63
 309 1167 309 1167 308 1114 c 0,64,65
 306 1057 306 1057 318.5 1019 c 128,-1,66
 331 981 331 981 368 946.5 c 128,-1,67
 405 912 405 912 465 884 c 0,68,69
 493 871 493 871 531 857 c 1,70,-1
 531 1325 l 1,58,59
EndSplineSet
EndChar

StartChar: percent
Encoding: 37 37 8
Width: 1788
GlyphClass: 2
Flags: W
LayerCount: 2
UndoRedoHistory
Layer: 1
Undoes
EndUndoes
Redoes
EndRedoes
EndUndoRedoHistory
Fore
SplineSet
432 718 m 0,0,1
 268 718 268 718 178 826 c 128,-1,2
 88 934 88 934 88 1096 c 0,3,4
 88 1273 88 1273 184.5 1376.5 c 128,-1,5
 281 1480 281 1480 437 1480 c 0,6,7
 599 1480 599 1480 689.5 1376.5 c 128,-1,8
 780 1273 780 1273 780 1101 c 0,9,10
 780 925 780 925 683.5 821.5 c 128,-1,11
 587 718 587 718 432 718 c 0,0,1
1356 89 m 128,-1,13
 1456 89 1456 89 1506.5 165.5 c 128,-1,14
 1557 242 1557 242 1557 360 c 128,-1,15
 1557 478 1557 478 1507 551.5 c 128,-1,16
 1457 625 1457 625 1357 625 c 0,17,18
 1256 625 1256 625 1204.5 548 c 128,-1,19
 1153 471 1153 471 1153 353 c 0,20,21
 1153 232 1153 232 1204.5 160.5 c 128,-1,12
 1256 89 1256 89 1356 89 c 128,-1,13
435 831 m 128,-1,23
 535 831 535 831 585.5 907.5 c 128,-1,24
 636 984 636 984 636 1102 c 128,-1,25
 636 1220 636 1220 586 1293.5 c 128,-1,26
 536 1367 536 1367 436 1367 c 0,27,28
 335 1367 335 1367 283.5 1290 c 128,-1,29
 232 1213 232 1213 232 1095 c 0,30,31
 232 974 232 974 283.5 902.5 c 128,-1,22
 335 831 335 831 435 831 c 128,-1,23
1353 -24 m 0,32,33
 1189 -24 1189 -24 1099 84 c 128,-1,34
 1009 192 1009 192 1009 354 c 0,35,36
 1009 531 1009 531 1105.5 634.5 c 128,-1,37
 1202 738 1202 738 1358 738 c 0,38,39
 1520 738 1520 738 1610.5 634.5 c 128,-1,40
 1701 531 1701 531 1701 359 c 0,41,42
 1701 183 1701 183 1604.5 79.5 c 128,-1,43
 1508 -24 1508 -24 1353 -24 c 0,32,33
366 0 m 1,44,-1
 1266 1456 l 1,45,-1
 1415 1456 l 1,46,-1
 520 0 l 1,47,-1
 366 0 l 1,44,-1
EndSplineSet
EndChar

StartChar: ampersand
Encoding: 38 38 9
Width: 1541
GlyphClass: 2
Flags: W
LayerCount: 2
UndoRedoHistory
Layer: 1
Undoes
EndUndoes
Redoes
EndRedoes
EndUndoRedoHistory
Fore
SplineSet
557 921 m 1,0,1
 602 948 602 948 635 972 c 128,-1,2
 668 996 668 996 704 1029.5 c 128,-1,3
 740 1063 740 1063 759 1103 c 128,-1,4
 778 1143 778 1143 778 1186 c 0,5,6
 778 1265 778 1265 728.5 1307 c 128,-1,7
 679 1349 679 1349 601 1349 c 0,8,9
 522 1349 522 1349 472.5 1307.5 c 128,-1,10
 423 1266 423 1266 423 1186 c 0,11,12
 423 1140 423 1140 432.5 1102 c 128,-1,13
 442 1064 442 1064 464 1030.5 c 128,-1,14
 486 997 486 997 504 976.5 c 128,-1,15
 522 956 522 956 557 921 c 1,0,1
590 126 m 0,16,17
 710 126 710 126 794 169 c 128,-1,18
 878 212 878 212 951 292 c 1,19,-1
 533 755 l 1,20,21
 487 729 487 729 454.5 707.5 c 128,-1,22
 422 686 422 686 383 653 c 128,-1,23
 344 620 344 620 320 586.5 c 128,-1,24
 296 553 296 553 279.5 507 c 128,-1,25
 263 461 263 461 263 409 c 0,26,27
 263 349 263 349 281 300.5 c 128,-1,28
 299 252 299 252 329 220 c 128,-1,29
 359 188 359 188 401.5 166.5 c 128,-1,30
 444 145 444 145 490.5 135.5 c 128,-1,31
 537 126 537 126 590 126 c 0,16,17
593 -24 m 0,32,33
 373 -24 373 -24 233 91.5 c 128,-1,34
 93 207 93 207 93 401 c 0,35,36
 93 443 93 443 99.5 481 c 128,-1,37
 106 519 106 519 121.5 552.5 c 128,-1,38
 137 586 137 586 152 613 c 128,-1,39
 167 640 167 640 193.5 667.5 c 128,-1,40
 220 695 220 695 238.5 713.5 c 128,-1,41
 257 732 257 732 290.5 756 c 128,-1,42
 324 780 324 780 341 792 c 128,-1,43
 358 804 358 804 394 827 c 128,-1,44
 430 850 430 850 442 858 c 1,45,46
 439 861 439 861 418 884.5 c 128,-1,47
 397 908 397 908 392 913.5 c 128,-1,48
 387 919 387 919 368.5 941 c 128,-1,49
 350 963 350 963 344.5 971.5 c 128,-1,50
 339 980 339 980 324 1001.5 c 128,-1,51
 309 1023 309 1023 304 1035.5 c 128,-1,52
 299 1048 299 1048 289.5 1069 c 128,-1,53
 280 1090 280 1090 276.5 1107.5 c 128,-1,54
 273 1125 273 1125 269.5 1146.5 c 128,-1,55
 266 1168 266 1168 266 1190 c 0,56,57
 266 1333 266 1333 358 1408 c 128,-1,58
 450 1483 450 1483 593 1483 c 0,59,60
 743 1483 743 1483 837.5 1404.5 c 128,-1,61
 932 1326 932 1326 932 1190 c 0,62,63
 932 1127 932 1127 907 1071 c 128,-1,64
 882 1015 882 1015 836 968.5 c 128,-1,65
 790 922 790 922 748.5 891 c 128,-1,66
 707 860 707 860 651 825 c 1,67,-1
 1030 401 l 1,68,69
 1127 552 1127 552 1157 761 c 0,70,71
 1168 832 1168 832 1168 890 c 1,72,-1
 1325 869 l 1,73,74
 1314 536 1314 536 1135 286 c 1,75,76
 1196 219 1196 219 1246.5 179.5 c 128,-1,77
 1297 140 1297 140 1368 115 c 0,78,79
 1405 102 1405 102 1471 87 c 1,80,-1
 1347 -12 l 1,81,82
 1326 -9 1326 -9 1306 -3 c 128,-1,83
 1286 3 1286 3 1270.5 8 c 128,-1,84
 1255 13 1255 13 1236 25 c 128,-1,85
 1217 37 1217 37 1206 42.5 c 128,-1,86
 1195 48 1195 48 1176 64 c 128,-1,87
 1157 80 1157 80 1150 85.5 c 128,-1,88
 1143 91 1143 91 1123 111 c 128,-1,89
 1103 131 1103 131 1099 135 c 128,-1,90
 1095 139 1095 139 1073.5 162 c 128,-1,91
 1052 185 1052 185 1050 187 c 1,92,93
 959 89 959 89 849.5 32.5 c 128,-1,94
 740 -24 740 -24 593 -24 c 0,32,33
EndSplineSet
EndChar

StartChar: quotesingle
Encoding: 39 39 10
Width: 548
GlyphClass: 2
Flags: W
LayerCount: 2
UndoRedoHistory
Layer: 1
Undoes
EndUndoes
Redoes
EndRedoes
EndUndoRedoHistory
Fore
SplineSet
226 994 m 1,0,-1
 190 1456 l 1,1,-1
 356 1456 l 1,2,-1
 340 994 l 1,3,-1
 226 994 l 1,0,-1
EndSplineSet
EndChar

StartChar: parenleft
Encoding: 40 40 11
Width: 600
GlyphClass: 2
Flags: W
LayerCount: 2
UndoRedoHistory
Layer: 1
Undoes
EndUndoes
Redoes
EndRedoes
EndUndoRedoHistory
Fore
SplineSet
371 -214 m 1,0,1
 189 72 189 72 127 364 c 128,-1,2
 65 656 65 656 126.5 956 c 128,-1,3
 188 1256 188 1256 377 1551 c 1,4,-1
 524 1551 l 1,5,6
 349 1276 349 1276 291 966 c 128,-1,7
 233 656 233 656 292.5 354.5 c 128,-1,8
 352 53 352 53 520 -214 c 1,9,-1
 371 -214 l 1,0,1
EndSplineSet
EndChar

StartChar: parenright
Encoding: 41 41 12
Width: 600
GlyphClass: 2
Flags: W
LayerCount: 2
UndoRedoHistory
Layer: 1
Undoes
EndUndoes
Redoes
EndRedoes
EndUndoRedoHistory
Fore
SplineSet
81 -214 m 1,0,1
 335 192 335 192 337.5 659.5 c 128,-1,2
 340 1127 340 1127 77 1551 c 1,3,-1
 224 1551 l 1,4,5
 506 1101 506 1101 504.5 659 c 128,-1,6
 503 217 503 217 230 -214 c 1,7,-1
 81 -214 l 1,0,1
EndSplineSet
EndChar

StartChar: asterisk
Encoding: 42 42 13
Width: 1068
GlyphClass: 2
Flags: W
LayerCount: 2
UndoRedoHistory
Layer: 1
Undoes
EndUndoes
Redoes
EndRedoes
EndUndoRedoHistory
Fore
SplineSet
708 742 m 1,0,-1
 550 1008 l 1,1,-1
 395 740 l 1,2,-1
 271 815 l 1,3,-1
 468 1063 l 1,4,-1
 176 1151 l 1,5,-1
 217 1276 l 1,6,-1
 499 1153 l 1,7,-1
 463 1456 l 1,8,-1
 617 1456 l 1,9,-1
 596 1158 l 1,10,-1
 828 1279 l 1,11,-1
 892 1154 l 1,12,-1
 630 1066 l 1,13,-1
 834 815 l 1,14,-1
 708 742 l 1,0,-1
EndSplineSet
EndChar

StartChar: plus
Encoding: 43 43 14
Width: 1383
GlyphClass: 2
Flags: W
LayerCount: 2
UndoRedoHistory
Layer: 1
Undoes
EndUndoes
Redoes
EndRedoes
EndUndoRedoHistory
Fore
SplineSet
616 202 m 1,0,-1
 616 675 l 1,1,-1
 195 675 l 1,2,-1
 195 814 l 1,3,-1
 619 814 l 1,4,-1
 619 1282 l 1,5,-1
 767 1282 l 1,6,-1
 767 814 l 1,7,-1
 1188 814 l 1,8,-1
 1188 675 l 1,9,-1
 765 675 l 1,10,-1
 765 202 l 1,11,-1
 616 202 l 1,0,-1
EndSplineSet
EndChar

StartChar: comma
Encoding: 44 44 15
Width: 575
GlyphClass: 2
Flags: W
AnchorPoint: "Anchor-1" 311 346 mark 0
LayerCount: 2
UndoRedoHistory
Layer: 1
Undoes
EndUndoes
Redoes
EndRedoes
EndUndoRedoHistory
Fore
SplineSet
143 -310 m 1,0,-1
 250 207 l 1,1,-1
 437 207 l 1,2,-1
 274 -310 l 1,3,-1
 143 -310 l 1,0,-1
EndSplineSet
EndChar

StartChar: hyphen
Encoding: 45 45 16
Width: 1199
GlyphClass: 2
Flags: W
LayerCount: 2
UndoRedoHistory
Layer: 1
Undoes
EndUndoes
Redoes
EndRedoes
EndUndoRedoHistory
Fore
SplineSet
200 637 m 1,0,-1
 200 780 l 1,1,-1
 999 780 l 1,2,-1
 999 637 l 1,3,-1
 200 637 l 1,0,-1
EndSplineSet
EndChar

StartChar: period
Encoding: 46 46 17
Width: 603
GlyphClass: 2
Flags: W
LayerCount: 2
UndoRedoHistory
Layer: 1
Undoes
EndUndoes
Redoes
EndRedoes
EndUndoRedoHistory
Fore
SplineSet
302 -16 m 0,0,1
 252 -16 252 -16 223.5 14.5 c 128,-1,2
 195 45 195 45 195 90 c 0,3,4
 195 137 195 137 227.5 166 c 128,-1,5
 260 195 260 195 303 195 c 0,6,7
 353 195 353 195 381.5 164.5 c 128,-1,8
 410 134 410 134 410 89 c 0,9,10
 410 42 410 42 377.5 13 c 128,-1,11
 345 -16 345 -16 302 -16 c 0,0,1
EndSplineSet
EndChar

StartChar: slash
Encoding: 47 47 18
Width: 952
GlyphClass: 2
Flags: W
LayerCount: 2
UndoRedoHistory
Layer: 1
Undoes
EndUndoes
Redoes
EndRedoes
EndUndoRedoHistory
Fore
SplineSet
80 0 m 1,0,-1
 705 1456 l 1,1,-1
 872 1456 l 1,2,-1
 243 0 l 1,3,-1
 80 0 l 1,0,-1
EndSplineSet
EndChar

StartChar: zero
Encoding: 48 48 19
Width: 1316
GlyphClass: 2
Flags: W
LayerCount: 2
UndoRedoHistory
Layer: 1
Undoes
EndUndoes
Redoes
EndRedoes
EndUndoRedoHistory
Fore
SplineSet
654 -24 m 0,0,1
 545 -24 545 -24 459.5 17 c 128,-1,2
 374 58 374 58 318.5 127 c 128,-1,3
 263 196 263 196 227.5 293.5 c 128,-1,4
 192 391 192 391 177 497 c 128,-1,5
 162 603 162 603 162 726 c 0,6,7
 162 848 162 848 177.5 955.5 c 128,-1,8
 193 1063 193 1063 230 1161 c 128,-1,9
 267 1259 267 1259 323 1328.5 c 128,-1,10
 379 1398 379 1398 465 1439 c 128,-1,11
 551 1480 551 1480 659 1480 c 0,12,13
 773 1480 773 1480 860.5 1440 c 128,-1,14
 948 1400 948 1400 1003 1332.5 c 128,-1,15
 1058 1265 1058 1265 1092.5 1166.5 c 128,-1,16
 1127 1068 1127 1068 1140.5 961.5 c 128,-1,17
 1154 855 1154 855 1154 726 c 0,18,19
 1154 607 1154 607 1137.5 500 c 128,-1,20
 1121 393 1121 393 1083 296 c 128,-1,21
 1045 199 1045 199 988.5 129 c 128,-1,22
 932 59 932 59 846.5 17.5 c 128,-1,23
 761 -24 761 -24 654 -24 c 0,0,1
659 126 m 0,24,25
 720 126 720 126 769 151 c 128,-1,26
 818 176 818 176 851.5 222 c 128,-1,27
 885 268 885 268 908.5 324.5 c 128,-1,28
 932 381 932 381 945 451 c 128,-1,29
 958 521 958 521 964 587.5 c 128,-1,30
 970 654 970 654 970 726 c 0,31,32
 970 793 970 793 967 850 c 128,-1,33
 964 907 964 907 955.5 970.5 c 128,-1,34
 947 1034 947 1034 933 1084 c 128,-1,35
 919 1134 919 1134 895.5 1181.5 c 128,-1,36
 872 1229 872 1229 840 1260.5 c 128,-1,37
 808 1292 808 1292 762 1311 c 128,-1,38
 716 1330 716 1330 659 1330 c 0,39,40
 585 1330 585 1330 528.5 1293 c 128,-1,41
 472 1256 472 1256 438.5 1197 c 128,-1,42
 405 1138 405 1138 383.5 1056 c 128,-1,43
 362 974 362 974 354 894.5 c 128,-1,44
 346 815 346 815 346 726 c 0,45,46
 346 659 346 659 349 602 c 128,-1,47
 352 545 352 545 360.5 482 c 128,-1,48
 369 419 369 419 383 369 c 128,-1,49
 397 319 397 319 421 272 c 128,-1,50
 445 225 445 225 477.5 194 c 128,-1,51
 510 163 510 163 556 144.5 c 128,-1,52
 602 126 602 126 659 126 c 0,24,25
EndSplineSet
EndChar

StartChar: one
Encoding: 49 49 20
Width: 1316
GlyphClass: 2
Flags: W
LayerCount: 2
UndoRedoHistory
Layer: 1
Undoes
EndUndoes
Redoes
EndRedoes
EndUndoRedoHistory
Fore
SplineSet
744 0 m 1,0,-1
 572 0 l 1,1,-1
 572 1456 l 1,2,-1
 744 1456 l 1,3,-1
 744 0 l 1,0,-1
EndSplineSet
EndChar

StartChar: two
Encoding: 50 50 21
Width: 1316
GlyphClass: 2
Flags: W
LayerCount: 2
UndoRedoHistory
Layer: 1
Undoes
EndUndoes
Redoes
EndRedoes
EndUndoRedoHistory
Fore
SplineSet
624 1480 m 0,0,1
 820 1480 820 1480 933 1368.5 c 128,-1,2
 1046 1257 1046 1257 1051 1062 c 0,3,4
 1053 985 1053 985 1036 914.5 c 128,-1,5
 1019 844 1019 844 977.5 770 c 128,-1,6
 936 696 936 696 893 636 c 128,-1,7
 850 576 850 576 776 484 c 2,8,-1
 502 138 l 1,9,-1
 1066 138 l 1,10,-1
 1066 0 l 1,11,-1
 286 0 l 1,12,-1
 286 128 l 1,13,-1
 666 604 l 2,14,15
 780 746 780 746 833 857.5 c 128,-1,16
 886 969 886 969 880 1071 c 1,17,18
 875 1190 875 1190 810 1260 c 128,-1,19
 745 1330 745 1330 627 1330 c 0,20,21
 595 1330 595 1330 564.5 1323.5 c 128,-1,22
 534 1317 534 1317 509.5 1305.5 c 128,-1,23
 485 1294 485 1294 462 1279.5 c 128,-1,24
 439 1265 439 1265 421 1248.5 c 128,-1,25
 403 1232 403 1232 387.5 1216 c 128,-1,26
 372 1200 372 1200 361 1185.5 c 128,-1,27
 350 1171 350 1171 342 1159.5 c 128,-1,28
 334 1148 334 1148 330 1142 c 2,29,-1
 326 1135 l 1,30,-1
 228 1263 l 1,31,32
 234 1272 234 1272 244.5 1286.5 c 128,-1,33
 255 1301 255 1301 293 1338.5 c 128,-1,34
 331 1376 331 1376 373.5 1404.5 c 128,-1,35
 416 1433 416 1433 484 1456.5 c 128,-1,36
 552 1480 552 1480 624 1480 c 0,0,1
EndSplineSet
EndChar

StartChar: three
Encoding: 51 51 22
Width: 1316
GlyphClass: 2
Flags: W
LayerCount: 2
UndoRedoHistory
Layer: 1
Undoes
EndUndoes
Redoes
EndRedoes
EndUndoRedoHistory
Fore
SplineSet
624 -24 m 0,0,1
 400 -24 400 -24 218 85 c 1,2,-1
 271 225 l 1,3,4
 460 125 460 125 629 125 c 0,5,6
 767 125 767 125 850 196.5 c 128,-1,7
 933 268 933 268 933 406 c 0,8,9
 933 549 933 549 832.5 622.5 c 128,-1,10
 732 696 732 696 549 696 c 2,11,-1
 471 696 l 1,12,-1
 471 844 l 1,13,-1
 535 844 l 2,14,15
 712 844 712 844 798 901 c 128,-1,16
 884 958 884 958 884 1095 c 2,17,-1
 884 1111 l 1,18,19
 880 1213 880 1213 800.5 1271.5 c 128,-1,20
 721 1330 721 1330 604 1330 c 0,21,22
 515 1330 515 1330 425 1294 c 128,-1,23
 335 1258 335 1258 264 1186 c 1,24,-1
 168 1295 l 1,25,26
 243 1385 243 1385 359.5 1433 c 128,-1,27
 476 1481 476 1481 601 1481 c 0,28,29
 687 1481 687 1481 765.5 1457.5 c 128,-1,30
 844 1434 844 1434 907 1389 c 128,-1,31
 970 1344 970 1344 1008 1271.5 c 128,-1,32
 1046 1199 1046 1199 1049 1109 c 1,33,-1
 1049 1093 l 2,34,35
 1049 839 1049 839 814 769 c 1,36,37
 954 740 954 740 1028.5 644 c 128,-1,38
 1103 548 1103 548 1103 404 c 0,39,40
 1103 293 1103 293 1063.5 208.5 c 128,-1,41
 1024 124 1024 124 956 74.5 c 128,-1,42
 888 25 888 25 804.5 0.5 c 128,-1,43
 721 -24 721 -24 624 -24 c 0,0,1
EndSplineSet
EndChar

StartChar: four
Encoding: 52 52 23
Width: 1316
GlyphClass: 2
Flags: W
LayerCount: 2
UndoRedoHistory
Layer: 1
Undoes
EndUndoes
Redoes
EndRedoes
EndUndoRedoHistory
Fore
SplineSet
929 868 m 1,0,-1
 929 509 l 1,1,-1
 1158 509 l 1,2,-1
 1158 370 l 1,3,-1
 930 370 l 1,4,-1
 930 0 l 1,5,-1
 758 0 l 1,6,-1
 758 370 l 1,7,-1
 161 370 l 1,8,-1
 161 499 l 1,9,-1
 596 1456 l 1,10,-1
 764 1456 l 1,11,-1
 362 509 l 1,12,-1
 758 509 l 1,13,-1
 758 868 l 1,14,-1
 929 868 l 1,0,-1
EndSplineSet
EndChar

StartChar: five
Encoding: 53 53 24
Width: 1316
GlyphClass: 2
Flags: W
LayerCount: 2
UndoRedoHistory
Layer: 1
Undoes
EndUndoes
Redoes
EndRedoes
EndUndoRedoHistory
Fore
SplineSet
666 -24 m 0,0,1
 542 -24 542 -24 420 29 c 128,-1,2
 298 82 298 82 211 179 c 1,3,-1
 302 295 l 1,4,5
 379 207 379 207 473.5 165 c 128,-1,6
 568 123 568 123 664 123 c 0,7,8
 812 123 812 123 893.5 218 c 128,-1,9
 975 313 975 313 975 468 c 0,10,11
 975 599 975 599 907 685.5 c 128,-1,12
 839 772 839 772 713 772 c 0,13,14
 624 772 624 772 553.5 738.5 c 128,-1,15
 483 705 483 705 450 656 c 1,16,-1
 293 698 l 1,17,-1
 308 1456 l 1,18,-1
 1039 1456 l 1,19,-1
 1039 1306 l 1,20,-1
 461 1306 l 1,21,-1
 440 814 l 1,22,23
 485 862 485 862 560.5 889.5 c 128,-1,24
 636 917 636 917 710 917 c 0,25,26
 898 917 898 917 1016.5 793 c 128,-1,27
 1135 669 1135 669 1135 468 c 0,28,29
 1135 329 1135 329 1083 219.5 c 128,-1,30
 1031 110 1031 110 923 43 c 128,-1,31
 815 -24 815 -24 666 -24 c 0,0,1
EndSplineSet
EndChar

StartChar: six
Encoding: 54 54 25
Width: 1316
GlyphClass: 2
Flags: W
LayerCount: 2
UndoRedoHistory
Layer: 1
Undoes
EndUndoes
Redoes
EndRedoes
EndUndoRedoHistory
Fore
SplineSet
681 126 m 0,0,1
 814 126 814 126 891 215.5 c 128,-1,2
 968 305 968 305 968 459 c 0,3,4
 968 612 968 612 894 707 c 128,-1,5
 820 802 820 802 673 802 c 0,6,7
 534 802 534 802 438.5 707 c 128,-1,8
 343 612 343 612 343 469 c 0,9,10
 343 379 343 379 381.5 302 c 128,-1,11
 420 225 420 225 498.5 175.5 c 128,-1,12
 577 126 577 126 681 126 c 0,0,1
683 -24 m 0,13,14
 574 -24 574 -24 487 9.5 c 128,-1,15
 400 43 400 43 342 100 c 128,-1,16
 284 157 284 157 245.5 235.5 c 128,-1,17
 207 314 207 314 190 401 c 128,-1,18
 173 488 173 488 173 585 c 0,19,20
 173 657 173 657 182 728 c 128,-1,21
 191 799 191 799 209.5 872.5 c 128,-1,22
 228 946 228 946 259 1014 c 128,-1,23
 290 1082 290 1082 331.5 1146 c 128,-1,24
 373 1210 373 1210 430.5 1265.5 c 128,-1,25
 488 1321 488 1321 556.5 1366 c 128,-1,26
 625 1411 625 1411 713.5 1443.5 c 128,-1,27
 802 1476 802 1476 903 1492 c 1,28,-1
 937 1359 l 1,29,30
 692 1325 692 1325 541 1165 c 128,-1,31
 390 1005 390 1005 350 768 c 1,32,33
 395 852 395 852 499 899 c 128,-1,34
 603 946 603 946 695 946 c 0,35,36
 886 946 886 946 1010.5 807.5 c 128,-1,37
 1135 669 1135 669 1135 464 c 0,38,39
 1135 251 1135 251 1004 113.5 c 128,-1,40
 873 -24 873 -24 683 -24 c 0,13,14
EndSplineSet
EndChar

StartChar: seven
Encoding: 55 55 26
Width: 1316
GlyphClass: 2
Flags: W
LayerCount: 2
UndoRedoHistory
Layer: 1
Undoes
EndUndoes
Redoes
EndRedoes
EndUndoRedoHistory
Fore
SplineSet
407 0 m 1,0,-1
 931 1311 l 1,1,-1
 209 1311 l 1,2,-1
 209 1456 l 1,3,-1
 1131 1456 l 1,4,-1
 1131 1365 l 1,5,-1
 593 0 l 1,6,-1
 407 0 l 1,0,-1
EndSplineSet
EndChar

StartChar: eight
Encoding: 56 56 27
Width: 1316
GlyphClass: 2
Flags: W
LayerCount: 2
UndoRedoHistory
Layer: 1
Undoes
EndUndoes
Redoes
EndRedoes
EndUndoRedoHistory
Fore
SplineSet
657 840 m 1,0,1
 926 892 926 892 926 1116 c 0,2,3
 926 1228 926 1228 851 1286 c 128,-1,4
 776 1344 776 1344 657 1344 c 0,5,6
 535 1344 535 1344 462.5 1283 c 128,-1,7
 390 1222 390 1222 390 1116 c 0,8,9
 390 891 390 891 657 840 c 1,0,1
657 120 m 0,10,11
 795 120 795 120 875 191.5 c 128,-1,12
 955 263 955 263 955 390 c 0,13,14
 955 457 955 457 930.5 511 c 128,-1,15
 906 565 906 565 862 600.5 c 128,-1,16
 818 636 818 636 768 658 c 128,-1,17
 718 680 718 680 657 693 c 1,18,19
 525 665 525 665 443 589 c 128,-1,20
 361 513 361 513 361 390 c 0,21,22
 361 259 361 259 442 189.5 c 128,-1,23
 523 120 523 120 657 120 c 0,10,11
657 -24 m 0,24,25
 448 -24 448 -24 316 86 c 128,-1,26
 184 196 184 196 184 377 c 0,27,28
 184 529 184 529 266 627 c 128,-1,29
 348 725 348 725 486 767 c 1,30,31
 364 806 364 806 291.5 894.5 c 128,-1,32
 219 983 219 983 219 1121 c 0,33,34
 219 1215 219 1215 255 1286 c 128,-1,35
 291 1357 291 1357 353.5 1398.5 c 128,-1,36
 416 1440 416 1440 492.5 1460 c 128,-1,37
 569 1480 569 1480 657 1480 c 0,38,39
 854 1480 854 1480 975.5 1383.5 c 128,-1,40
 1097 1287 1097 1287 1097 1121 c 0,41,42
 1097 984 1097 984 1021 895.5 c 128,-1,43
 945 807 945 807 821 767 c 1,44,45
 961 724 961 724 1046.5 626 c 128,-1,46
 1132 528 1132 528 1132 377 c 0,47,48
 1132 276 1132 276 1095.5 198 c 128,-1,49
 1059 120 1059 120 993.5 72.5 c 128,-1,50
 928 25 928 25 843 0.5 c 128,-1,51
 758 -24 758 -24 657 -24 c 0,24,25
EndSplineSet
EndChar

StartChar: nine
Encoding: 57 57 28
Width: 1316
GlyphClass: 2
Flags: W
LayerCount: 2
UndoRedoHistory
Layer: 1
Undoes
EndUndoes
Redoes
EndRedoes
EndUndoRedoHistory
Fore
SplineSet
818 1306 m 1,0,1
 802 1316 802 1316 761.5 1326.5 c 128,-1,2
 721 1337 721 1337 666 1337 c 0,3,4
 589 1337 589 1337 526.5 1306.5 c 128,-1,5
 464 1276 464 1276 426 1225.5 c 128,-1,6
 388 1175 388 1175 368 1115 c 128,-1,7
 348 1055 348 1055 348 991 c 0,8,9
 348 887 348 887 401.5 822.5 c 128,-1,10
 455 758 455 758 540 758 c 0,11,12
 589 758 589 758 637 783.5 c 128,-1,13
 685 809 685 809 726 857.5 c 128,-1,14
 767 906 767 906 792.5 988 c 128,-1,15
 818 1070 818 1070 818 1173 c 2,16,-1
 818 1306 l 1,0,1
990 1330 m 1,17,-1
 990 1245 l 1,18,-1
 990 0 l 1,19,-1
 824 0 l 1,20,-1
 824 768 l 1,21,22
 756 696 756 696 678.5 659.5 c 128,-1,23
 601 623 601 623 519 623 c 0,24,25
 378 623 378 623 277.5 722.5 c 128,-1,26
 177 822 177 822 177 983 c 0,27,28
 177 1074 177 1074 207.5 1161 c 128,-1,29
 238 1248 238 1248 294.5 1320 c 128,-1,30
 351 1392 351 1392 443 1436 c 128,-1,31
 535 1480 535 1480 647 1480 c 0,32,33
 861 1480 861 1480 990 1383 c 1,34,-1
 990 1330 l 1,17,-1
EndSplineSet
EndChar

StartChar: colon
Encoding: 58 58 29
Width: 651
GlyphClass: 2
Flags: W
LayerCount: 2
UndoRedoHistory
Layer: 1
Undoes
EndUndoes
Redoes
EndRedoes
EndUndoRedoHistory
Fore
SplineSet
326 1078 m 0,0,1
 358 1078 358 1078 383.5 1067.5 c 128,-1,2
 409 1057 409 1057 425 1039.5 c 128,-1,3
 441 1022 441 1022 449.5 1000.5 c 128,-1,4
 458 979 458 979 458 955 c 0,5,6
 458 905 458 905 423 868.5 c 128,-1,7
 388 832 388 832 326 832 c 128,-1,8
 264 832 264 832 229 868.5 c 128,-1,9
 194 905 194 905 194 955 c 128,-1,10
 194 1005 194 1005 229 1041.5 c 128,-1,11
 264 1078 264 1078 326 1078 c 0,0,1
326 294 m 0,12,13
 368 294 368 294 399 276 c 128,-1,14
 430 258 430 258 444 230.5 c 128,-1,15
 458 203 458 203 458 171 c 0,16,17
 458 121 458 121 423 84.5 c 128,-1,18
 388 48 388 48 326 48 c 128,-1,19
 264 48 264 48 229 84.5 c 128,-1,20
 194 121 194 121 194 171 c 128,-1,21
 194 221 194 221 229 257.5 c 128,-1,22
 264 294 264 294 326 294 c 0,12,13
EndSplineSet
EndChar

StartChar: semicolon
Encoding: 59 59 30
Width: 617
GlyphClass: 2
Flags: W
LayerCount: 2
UndoRedoHistory
Layer: 1
Undoes
EndUndoes
Redoes
EndRedoes
EndUndoRedoHistory
Fore
SplineSet
146 -256 m 1,0,-1
 252 207 l 1,1,-1
 440 207 l 1,2,-1
 277 -256 l 1,3,-1
 146 -256 l 1,0,-1
335 1078 m 128,-1,5
 397 1078 397 1078 432 1041.5 c 128,-1,6
 467 1005 467 1005 467 955 c 128,-1,7
 467 905 467 905 432 868.5 c 128,-1,8
 397 832 397 832 335 832 c 128,-1,9
 273 832 273 832 238 868.5 c 128,-1,10
 203 905 203 905 203 955 c 128,-1,11
 203 1005 203 1005 238 1041.5 c 128,-1,4
 273 1078 273 1078 335 1078 c 128,-1,5
EndSplineSet
EndChar

StartChar: less
Encoding: 60 60 31
Width: 1161
GlyphClass: 2
Flags: W
LayerCount: 2
UndoRedoHistory
Layer: 1
Undoes
EndUndoes
Redoes
EndRedoes
EndUndoRedoHistory
Fore
SplineSet
1067 48 m 1,0,-1
 85 508 l 1,1,-1
 85 595 l 1,2,-1
 1071 1067 l 1,3,-1
 1071 914 l 1,4,-1
 304 552 l 1,5,-1
 1067 200 l 1,6,-1
 1067 48 l 1,0,-1
EndSplineSet
EndChar

StartChar: equal
Encoding: 61 61 32
Width: 1274
GlyphClass: 2
Flags: W
LayerCount: 2
UndoRedoHistory
Layer: 1
Undoes
EndUndoes
Redoes
EndRedoes
EndUndoRedoHistory
Fore
SplineSet
200 809 m 1,0,-1
 200 947 l 1,1,-1
 1073 947 l 1,2,-1
 1073 809 l 1,3,-1
 200 809 l 1,0,-1
201 403 m 1,4,-1
 201 540 l 1,5,-1
 1074 540 l 1,6,-1
 1074 403 l 1,7,-1
 201 403 l 1,4,-1
EndSplineSet
EndChar

StartChar: greater
Encoding: 62 62 33
Width: 1165
GlyphClass: 2
Flags: W
LayerCount: 2
UndoRedoHistory
Layer: 1
Undoes
EndUndoes
Redoes
EndRedoes
EndUndoRedoHistory
Fore
SplineSet
91 58 m 1,0,-1
 91 212 l 1,1,-1
 859 555 l 1,2,-1
 96 926 l 1,3,-1
 96 1078 l 1,4,-1
 1080 594 l 1,5,-1
 1080 505 l 1,6,-1
 91 58 l 1,0,-1
EndSplineSet
EndChar

StartChar: question
Encoding: 63 63 34
Width: 990
GlyphClass: 2
Flags: W
LayerCount: 2
UndoRedoHistory
Layer: 1
Undoes
EndUndoes
Redoes
EndRedoes
EndUndoRedoHistory
Fore
SplineSet
382 0 m 0,0,1
 332 0 332 0 303.5 30.5 c 128,-1,2
 275 61 275 61 275 106 c 0,3,4
 275 153 275 153 307.5 182 c 128,-1,5
 340 211 340 211 383 211 c 0,6,7
 432 211 432 211 460 180.5 c 128,-1,8
 488 150 488 150 488 105 c 0,9,10
 488 58 488 58 456.5 29 c 128,-1,11
 425 0 425 0 382 0 c 0,0,1
313 368 m 1,12,13
 313 441 313 441 333 505.5 c 128,-1,14
 353 570 353 570 385.5 618 c 128,-1,15
 418 666 418 666 457 711.5 c 128,-1,16
 496 757 496 757 535.5 801 c 128,-1,17
 575 845 575 845 607.5 891 c 128,-1,18
 640 937 640 937 660 997 c 128,-1,19
 680 1057 680 1057 680 1125 c 0,20,21
 680 1178 680 1178 659.5 1218 c 128,-1,22
 639 1258 639 1258 602.5 1281.5 c 128,-1,23
 566 1305 566 1305 521.5 1317 c 128,-1,24
 477 1329 477 1329 425 1330 c 0,25,26
 266 1333 266 1333 140 1262 c 1,27,-1
 140 1413 l 1,28,29
 284 1483 284 1483 421 1483 c 0,30,31
 624 1483 624 1483 736.5 1387 c 128,-1,32
 849 1291 849 1291 849 1133 c 0,33,34
 849 1057 849 1057 826.5 990 c 128,-1,35
 804 923 804 923 767.5 872 c 128,-1,36
 731 821 731 821 687.5 773.5 c 128,-1,37
 644 726 644 726 600 681 c 128,-1,38
 556 636 556 636 519.5 590.5 c 128,-1,39
 483 545 483 545 460.5 488 c 128,-1,40
 438 431 438 431 438 368 c 1,41,-1
 313 368 l 1,12,13
EndSplineSet
EndChar

StartChar: at
Encoding: 64 64 35
Width: 1953
GlyphClass: 2
Flags: W
LayerCount: 2
UndoRedoHistory
Layer: 1
Undoes
EndUndoes
Redoes
EndRedoes
EndUndoRedoHistory
Fore
SplineSet
888 410 m 0,0,1
 953 410 953 410 1012 453 c 128,-1,2
 1071 496 1071 496 1110.5 563 c 128,-1,3
 1150 630 1150 630 1173.5 710.5 c 128,-1,4
 1197 791 1197 791 1197 866 c 0,5,6
 1197 959 1197 959 1154 1023.5 c 128,-1,7
 1111 1088 1111 1088 1032 1088 c 0,8,9
 942 1088 942 1088 865.5 1026 c 128,-1,10
 789 964 789 964 745 859.5 c 128,-1,11
 701 755 701 755 701 635 c 0,12,13
 701 527 701 527 752 468.5 c 128,-1,14
 803 410 803 410 888 410 c 0,0,1
1002 -61 m 0,15,16
 832 -61 832 -61 681.5 -2.5 c 128,-1,17
 531 56 531 56 422 159 c 128,-1,18
 313 262 313 262 249.5 409.5 c 128,-1,19
 186 557 186 557 186 727 c 0,20,21
 186 954 186 954 297 1137.5 c 128,-1,22
 408 1321 408 1321 595 1422.5 c 128,-1,23
 782 1524 782 1524 1006 1524 c 0,24,25
 1161 1524 1161 1524 1300 1474.5 c 128,-1,26
 1439 1425 1439 1425 1543 1337.5 c 128,-1,27
 1647 1250 1647 1250 1708 1120.5 c 128,-1,28
 1769 991 1769 991 1769 839 c 0,29,30
 1769 724 1769 724 1734 624 c 128,-1,31
 1699 524 1699 524 1641 456 c 128,-1,32
 1583 388 1583 388 1506 349 c 128,-1,33
 1429 310 1429 310 1347 310 c 0,34,35
 1261 310 1261 310 1215 368.5 c 128,-1,36
 1169 427 1169 427 1169 525 c 1,37,38
 1128 428 1128 428 1038 365 c 128,-1,39
 948 302 948 302 862 302 c 0,40,41
 784 302 784 302 723.5 334 c 128,-1,42
 663 366 663 366 629 418.5 c 128,-1,43
 595 471 595 471 578.5 531 c 128,-1,44
 562 591 562 591 562 655 c 0,45,46
 562 795 562 795 628 917.5 c 128,-1,47
 694 1040 694 1040 802 1111.5 c 128,-1,48
 910 1183 910 1183 1029 1183 c 0,49,50
 1104 1183 1104 1183 1162.5 1151.5 c 128,-1,51
 1221 1120 1221 1120 1249 1067 c 1,52,-1
 1267 1152 l 1,53,-1
 1407 1152 l 1,54,55
 1387 1059 1387 1059 1360.5 939 c 128,-1,56
 1334 819 1334 819 1320.5 758 c 128,-1,57
 1307 697 1307 697 1293 630 c 128,-1,58
 1279 563 1279 563 1273.5 527 c 128,-1,59
 1268 491 1268 491 1268 471 c 0,60,61
 1268 428 1268 428 1286.5 406.5 c 128,-1,62
 1305 385 1305 385 1347 385 c 0,63,64
 1477 385 1477 385 1567 514 c 128,-1,65
 1657 643 1657 643 1657 842 c 0,66,67
 1657 975 1657 975 1603.5 1087 c 128,-1,68
 1550 1199 1550 1199 1459.5 1273.5 c 128,-1,69
 1369 1348 1369 1348 1251 1389 c 128,-1,70
 1133 1430 1133 1430 1004 1430 c 0,71,72
 809 1430 809 1430 651 1338.5 c 128,-1,73
 493 1247 493 1247 403 1085.5 c 128,-1,74
 313 924 313 924 313 725 c 0,75,76
 313 416 313 416 506.5 228 c 128,-1,77
 700 40 700 40 1007 40 c 0,78,79
 1186 40 1186 40 1301 88.5 c 128,-1,80
 1416 137 1416 137 1520 230 c 1,81,-1
 1577 170 l 1,82,83
 1482 62 1482 62 1334 0.5 c 128,-1,84
 1186 -61 1186 -61 1002 -61 c 0,15,16
EndSplineSet
EndChar

StartChar: A
Encoding: 65 65 36
Width: 1397
GlyphClass: 2
Flags: W
AnchorPoint: "Anchor-2" 702 1536 basechar 0
AnchorPoint: "Anchor-1" 736 0 basechar 0
AnchorPoint: "Anchor-0" 1260 0 basechar 0
LayerCount: 2
UndoRedoHistory
Layer: 1
Undoes
EndUndoes
Redoes
EndRedoes
EndUndoRedoHistory
Fore
SplineSet
427 531 m 1,0,-1
 964 531 l 1,1,-1
 794 997 l 1,2,-1
 698 1271 l 1,3,-1
 596 996 l 1,4,-1
 427 531 l 1,0,-1
40 0 m 1,5,-1
 609 1456 l 1,6,-1
 787 1456 l 1,7,-1
 1357 0 l 1,8,-1
 1166 0 l 1,9,-1
 1016 395 l 1,10,-1
 375 395 l 1,11,-1
 226 0 l 1,12,-1
 40 0 l 1,5,-1
EndSplineSet
EndChar

StartChar: B
Encoding: 66 66 37
Width: 1310
GlyphClass: 2
Flags: W
AnchorPoint: "Anchor-2" 700 1536 basechar 0
AnchorPoint: "Anchor-1" 676 0 basechar 0
LayerCount: 2
UndoRedoHistory
Layer: 1
Undoes
EndUndoes
Redoes
EndRedoes
EndUndoRedoHistory
Fore
SplineSet
372 825 m 1,0,-1
 555 825 l 2,1,2
 760 825 760 825 853.5 884.5 c 128,-1,3
 947 944 947 944 947 1077 c 128,-1,4
 947 1210 947 1210 870.5 1264 c 128,-1,5
 794 1318 794 1318 588 1318 c 2,6,-1
 372 1318 l 1,7,-1
 372 825 l 1,0,-1
372 138 m 1,8,-1
 628 138 l 2,9,10
 824 138 824 138 918 201 c 128,-1,11
 1012 264 1012 264 1012 406 c 0,12,13
 1012 552 1012 552 910 618 c 128,-1,14
 808 684 808 684 584 684 c 2,15,-1
 372 684 l 1,16,-1
 372 138 l 1,8,-1
200 0 m 1,17,-1
 200 1456 l 1,18,-1
 588 1456 l 2,19,20
 863 1456 863 1456 995.5 1373.5 c 128,-1,21
 1128 1291 1128 1291 1128 1105 c 0,22,23
 1128 970 1128 970 1066.5 890.5 c 128,-1,24
 1005 811 1005 811 881 769 c 1,25,26
 1034 738 1034 738 1114 651 c 128,-1,27
 1194 564 1194 564 1194 403 c 0,28,29
 1194 297 1194 297 1154 218.5 c 128,-1,30
 1114 140 1114 140 1038.5 92.5 c 128,-1,31
 963 45 963 45 862.5 22.5 c 128,-1,32
 762 0 762 0 634 0 c 2,33,-1
 200 0 l 1,17,-1
EndSplineSet
EndChar

StartChar: C
Encoding: 67 67 38
Width: 1369
GlyphClass: 2
Flags: W
AnchorPoint: "Anchor-2" 790 1536 basechar 0
AnchorPoint: "Anchor-1" 826 0 basechar 0
LayerCount: 2
UndoRedoHistory
Layer: 1
Undoes
EndUndoes
Redoes
EndRedoes
EndUndoRedoHistory
Fore
SplineSet
804 -24 m 0,0,1
 656 -24 656 -24 529.5 28 c 128,-1,2
 403 80 403 80 311.5 175 c 128,-1,3
 220 270 220 270 168 411 c 128,-1,4
 116 552 116 552 116 722 c 0,5,6
 116 885 116 885 166 1025.5 c 128,-1,7
 216 1166 216 1166 305.5 1266 c 128,-1,8
 395 1366 395 1366 523 1423 c 128,-1,9
 651 1480 651 1480 802 1480 c 0,10,11
 1067 1480 1067 1480 1255 1332 c 1,12,-1
 1177 1210 l 1,13,14
 1017 1330 1017 1330 820 1330 c 0,15,16
 697 1330 697 1330 597.5 1282.5 c 128,-1,17
 498 1235 498 1235 433.5 1152 c 128,-1,18
 369 1069 369 1069 334 959 c 128,-1,19
 299 849 299 849 299 722 c 0,20,21
 299 454 299 454 436.5 290 c 128,-1,22
 574 126 574 126 811 126 c 0,23,24
 1038 126 1038 126 1217 271 c 1,25,-1
 1277 129 l 1,26,27
 1080 -24 1080 -24 804 -24 c 0,0,1
EndSplineSet
EndChar

StartChar: D
Encoding: 68 68 39
Width: 1518
GlyphClass: 2
Flags: W
AnchorPoint: "Anchor-2" 700 1536 basechar 0
AnchorPoint: "Anchor-1" 676 0 basechar 0
LayerCount: 2
UndoRedoHistory
Layer: 1
Undoes
EndUndoes
Redoes
EndRedoes
EndUndoRedoHistory
Fore
SplineSet
200 0 m 1,0,-1
 200 1456 l 1,1,-1
 509 1456 l 2,2,3
 672 1456 672 1456 804.5 1433 c 128,-1,4
 937 1410 937 1410 1050 1356.5 c 128,-1,5
 1163 1303 1163 1303 1239.5 1219.5 c 128,-1,6
 1316 1136 1316 1136 1359 1011 c 128,-1,7
 1402 886 1402 886 1402 724 c 0,8,9
 1402 546 1402 546 1343.5 407.5 c 128,-1,10
 1285 269 1285 269 1179 180.5 c 128,-1,11
 1073 92 1073 92 928 46 c 128,-1,12
 783 0 783 0 607 0 c 2,13,-1
 200 0 l 1,0,-1
372 138 m 1,14,-1
 623 138 l 2,15,16
 905 138 905 138 1062.5 286.5 c 128,-1,17
 1220 435 1220 435 1220 721 c 0,18,19
 1220 856 1220 856 1189 958.5 c 128,-1,20
 1158 1061 1158 1061 1101.5 1129 c 128,-1,21
 1045 1197 1045 1197 958.5 1239.5 c 128,-1,22
 872 1282 872 1282 767.5 1300 c 128,-1,23
 663 1318 663 1318 529 1318 c 2,24,-1
 372 1318 l 1,25,-1
 372 138 l 1,14,-1
EndSplineSet
EndChar

StartChar: E
Encoding: 69 69 40
Width: 1191
GlyphClass: 2
Flags: W
AnchorPoint: "Anchor-2" 656 1536 basechar 0
AnchorPoint: "Anchor-1" 826 0 basechar 0
AnchorPoint: "Anchor-0" 850 0 basechar 0
LayerCount: 2
UndoRedoHistory
Layer: 1
Undoes
EndUndoes
Redoes
EndRedoes
EndUndoRedoHistory
Fore
SplineSet
200 0 m 1,0,-1
 200 1456 l 1,1,-1
 1047 1456 l 1,2,-1
 1047 1318 l 1,3,-1
 372 1318 l 1,4,-1
 372 820 l 1,5,-1
 1009 820 l 1,6,-1
 1009 672 l 1,7,-1
 372 672 l 1,8,-1
 372 138 l 1,9,-1
 1097 138 l 1,10,-1
 1097 0 l 1,11,-1
 200 0 l 1,0,-1
EndSplineSet
EndChar

StartChar: F
Encoding: 70 70 41
Width: 1116
GlyphClass: 2
Flags: W
AnchorPoint: "Anchor-2" 700 1536 basechar 0
AnchorPoint: "Anchor-1" 676 0 basechar 0
LayerCount: 2
UndoRedoHistory
Layer: 1
Undoes
EndUndoes
Redoes
EndRedoes
EndUndoRedoHistory
Fore
SplineSet
200 0 m 1,0,-1
 200 1456 l 1,1,-1
 1026 1456 l 1,2,-1
 1026 1318 l 1,3,-1
 372 1318 l 1,4,-1
 372 815 l 1,5,-1
 992 815 l 1,6,-1
 992 667 l 1,7,-1
 372 667 l 1,8,-1
 372 0 l 1,9,-1
 200 0 l 1,0,-1
EndSplineSet
EndChar

StartChar: G
Encoding: 71 71 42
Width: 1485
GlyphClass: 2
Flags: W
AnchorPoint: "Anchor-2" 790 1536 basechar 0
AnchorPoint: "Anchor-1" 826 0 basechar 0
LayerCount: 2
UndoRedoHistory
Layer: 1
Undoes
EndUndoes
Redoes
EndRedoes
EndUndoRedoHistory
Fore
SplineSet
116 701 m 0,0,1
 116 853 116 853 153.5 981 c 128,-1,2
 191 1109 191 1109 256.5 1200 c 128,-1,3
 322 1291 322 1291 410.5 1355 c 128,-1,4
 499 1419 499 1419 601.5 1449.5 c 128,-1,5
 704 1480 704 1480 815 1480 c 0,6,7
 1068 1480 1068 1480 1292 1331 c 1,8,-1
 1218 1208 l 1,9,10
 1020 1329 1020 1329 824 1329 c 0,11,12
 713 1329 713 1329 617.5 1288 c 128,-1,13
 522 1247 522 1247 451 1170.5 c 128,-1,14
 380 1094 380 1094 339.5 976.5 c 128,-1,15
 299 859 299 859 299 714 c 0,16,17
 299 433 299 433 437.5 279.5 c 128,-1,18
 576 126 576 126 840 126 c 0,19,20
 1030 126 1030 126 1145 174 c 1,21,-1
 1145 608 l 1,22,-1
 742 608 l 1,23,-1
 742 757 l 1,24,-1
 1317 757 l 1,25,-1
 1317 81 l 1,26,27
 1093 -24 1093 -24 827 -24 c 0,28,29
 491 -24 491 -24 303.5 166 c 128,-1,30
 116 356 116 356 116 701 c 0,0,1
EndSplineSet
EndChar

StartChar: H
Encoding: 72 72 43
Width: 1514
GlyphClass: 2
Flags: W
AnchorPoint: "Anchor-2" 793 1536 basechar 0
AnchorPoint: "Anchor-1" 788 0 basechar 0
LayerCount: 2
UndoRedoHistory
Layer: 1
Undoes
EndUndoes
Redoes
EndRedoes
EndUndoRedoHistory
Fore
SplineSet
200 0 m 1,0,-1
 200 1456 l 1,1,-1
 372 1456 l 1,2,-1
 372 822 l 1,3,-1
 1142 822 l 1,4,-1
 1142 1456 l 1,5,-1
 1314 1456 l 1,6,-1
 1314 0 l 1,7,-1
 1142 0 l 1,8,-1
 1142 674 l 1,9,-1
 372 674 l 1,10,-1
 372 0 l 1,11,-1
 200 0 l 1,0,-1
EndSplineSet
EndChar

StartChar: I
Encoding: 73 73 44
Width: 770
GlyphClass: 2
Flags: W
AnchorPoint: "Anchor-2" 390 1536 basechar 0
AnchorPoint: "Anchor-1" 286 1 basechar 0
LayerCount: 2
UndoRedoHistory
Layer: 1
Undoes
EndUndoes
Redoes
EndRedoes
EndUndoRedoHistory
Fore
SplineSet
660 0 m 1,0,-1
 110 0 l 1,1,-1
 110 124 l 1,2,-1
 299 124 l 1,3,-1
 299 1332 l 1,4,-1
 110 1332 l 1,5,-1
 110 1456 l 1,6,-1
 660 1456 l 1,7,-1
 660 1332 l 1,8,-1
 471 1332 l 1,9,-1
 471 124 l 1,10,-1
 660 124 l 1,11,-1
 660 0 l 1,0,-1
EndSplineSet
EndChar

StartChar: J
Encoding: 74 74 45
Width: 1056
GlyphClass: 2
Flags: W
AnchorPoint: "Anchor-2" 670 1536 basechar 0
LayerCount: 2
UndoRedoHistory
Layer: 1
Undoes
EndUndoes
Redoes
EndRedoes
EndUndoRedoHistory
Fore
SplineSet
44 130 m 1,0,-1
 131 248 l 1,1,2
 180 188 180 188 246 157 c 128,-1,3
 312 126 312 126 378 126 c 0,4,5
 503 126 503 126 560.5 202.5 c 128,-1,6
 618 279 618 279 618 467 c 2,7,-1
 618 1318 l 1,8,-1
 211 1318 l 1,9,-1
 211 1456 l 1,10,-1
 1054 1456 l 1,11,-1
 1054 1318 l 1,12,-1
 783 1318 l 1,13,-1
 783 434 l 2,14,15
 783 204 783 204 681.5 90 c 128,-1,16
 580 -24 580 -24 388 -24 c 0,17,18
 290 -24 290 -24 197.5 15 c 128,-1,19
 105 54 105 54 44 130 c 1,0,-1
EndSplineSet
EndChar

StartChar: K
Encoding: 75 75 46
Width: 1250
GlyphClass: 2
Flags: W
AnchorPoint: "Anchor-2" 667 1536 basechar 0
AnchorPoint: "Anchor-1" 726 0 basechar 0
LayerCount: 2
UndoRedoHistory
Layer: 1
Undoes
EndUndoes
Redoes
EndRedoes
EndUndoRedoHistory
Fore
SplineSet
200 0 m 1,0,-1
 200 1456 l 1,1,-1
 372 1456 l 1,2,-1
 372 796 l 1,3,-1
 990 1456 l 1,4,-1
 1201 1456 l 1,5,-1
 550 764 l 1,6,-1
 1241 0 l 1,7,-1
 1023 0 l 1,8,-1
 372 725 l 1,9,-1
 372 0 l 1,10,-1
 200 0 l 1,0,-1
EndSplineSet
EndChar

StartChar: L
Encoding: 76 76 47
Width: 1076
GlyphClass: 2
Flags: W
AnchorPoint: "Anchor-2" 580 1536 basechar 0
AnchorPoint: "Anchor-1" 696 0 basechar 0
LayerCount: 2
UndoRedoHistory
Layer: 1
Undoes
EndUndoes
Redoes
EndRedoes
EndUndoRedoHistory
Fore
SplineSet
200 0 m 1,0,-1
 200 1456 l 1,1,-1
 372 1456 l 1,2,-1
 372 138 l 1,3,-1
 1053 138 l 1,4,-1
 1053 0 l 1,5,-1
 200 0 l 1,0,-1
EndSplineSet
EndChar

StartChar: M
Encoding: 77 77 48
Width: 1946
GlyphClass: 2
Flags: W
AnchorPoint: "Anchor-2" 970 1536 basechar 0
AnchorPoint: "Anchor-1" 976 0 basechar 0
LayerCount: 2
UndoRedoHistory
Layer: 1
Undoes
EndUndoes
Redoes
EndRedoes
EndUndoRedoHistory
Fore
SplineSet
200 0 m 1,0,-1
 200 1456 l 1,1,-1
 426 1456 l 1,2,-1
 891 579 l 1,3,-1
 974 420 l 1,4,-1
 1055 582 l 1,5,-1
 1534 1456 l 1,6,-1
 1746 1456 l 1,7,-1
 1746 0 l 1,8,-1
 1578 0 l 1,9,-1
 1578 1251 l 1,10,-1
 1503 1096 l 1,11,-1
 1032 220 l 1,12,-1
 911 220 l 1,13,-1
 437 1108 l 1,14,-1
 370 1268 l 1,15,-1
 370 0 l 1,16,-1
 200 0 l 1,0,-1
EndSplineSet
EndChar

StartChar: N
Encoding: 78 78 49
Width: 1587
GlyphClass: 2
Flags: W
AnchorPoint: "Anchor-2" 809 1536 basechar 0
AnchorPoint: "Anchor-1" 804 0 basechar 0
LayerCount: 2
UndoRedoHistory
Layer: 1
Undoes
EndUndoes
Redoes
EndRedoes
EndUndoRedoHistory
Fore
SplineSet
200 0 m 1,0,-1
 200 1456 l 1,1,-1
 405 1456 l 1,2,-1
 1141 342 l 1,3,-1
 1216 215 l 1,4,-1
 1216 1456 l 1,5,-1
 1387 1456 l 1,6,-1
 1387 0 l 1,7,-1
 1180 0 l 1,8,-1
 441 1113 l 1,9,-1
 372 1237 l 1,10,-1
 372 0 l 1,11,-1
 200 0 l 1,0,-1
EndSplineSet
EndChar

StartChar: O
Encoding: 79 79 50
Width: 1626
GlyphClass: 2
Flags: W
AnchorPoint: "Anchor-2" 790 1536 basechar 0
AnchorPoint: "Anchor-1" 826 0 basechar 0
LayerCount: 2
UndoRedoHistory
Layer: 1
Undoes
EndUndoes
Redoes
EndRedoes
EndUndoRedoHistory
Fore
SplineSet
813 -24 m 128,-1,1
 680 -24 680 -24 566 16.5 c 128,-1,2
 452 57 452 57 370.5 128 c 128,-1,3
 289 199 289 199 231 294 c 128,-1,4
 173 389 173 389 144.5 499.5 c 128,-1,5
 116 610 116 610 116 728 c 0,6,7
 116 878 116 878 162 1012 c 128,-1,8
 208 1146 208 1146 293 1251 c 128,-1,9
 378 1356 378 1356 513 1418 c 128,-1,10
 648 1480 648 1480 813 1480 c 128,-1,11
 978 1480 978 1480 1113 1418 c 128,-1,12
 1248 1356 1248 1356 1333 1251 c 128,-1,13
 1418 1146 1418 1146 1464 1012 c 128,-1,14
 1510 878 1510 878 1510 728 c 0,15,16
 1510 610 1510 610 1481.5 499.5 c 128,-1,17
 1453 389 1453 389 1395 294 c 128,-1,18
 1337 199 1337 199 1255.5 128 c 128,-1,19
 1174 57 1174 57 1060 16.5 c 128,-1,0
 946 -24 946 -24 813 -24 c 128,-1,1
813 126 m 128,-1,21
 915 126 915 126 1006 165 c 128,-1,22
 1097 204 1097 204 1169 277 c 128,-1,23
 1241 350 1241 350 1283.5 467 c 128,-1,24
 1326 584 1326 584 1326 729 c 128,-1,25
 1326 874 1326 874 1283.5 990.5 c 128,-1,26
 1241 1107 1241 1107 1169 1180 c 128,-1,27
 1097 1253 1097 1253 1006 1291.5 c 128,-1,28
 915 1330 915 1330 813 1330 c 128,-1,29
 711 1330 711 1330 620 1291.5 c 128,-1,30
 529 1253 529 1253 457 1180 c 128,-1,31
 385 1107 385 1107 342.5 990.5 c 128,-1,32
 300 874 300 874 300 729 c 128,-1,33
 300 584 300 584 342.5 467 c 128,-1,34
 385 350 385 350 457 277 c 128,-1,35
 529 204 529 204 620 165 c 128,-1,20
 711 126 711 126 813 126 c 128,-1,21
EndSplineSet
EndChar

StartChar: P
Encoding: 80 80 51
Width: 1245
GlyphClass: 2
Flags: W
AnchorPoint: "Anchor-2" 700 1536 basechar 0
AnchorPoint: "Anchor-1" 676 0 basechar 0
LayerCount: 2
UndoRedoHistory
Layer: 1
Undoes
EndUndoes
Redoes
EndRedoes
EndUndoRedoHistory
Fore
SplineSet
372 736 m 1,0,-1
 623 736 l 2,1,2
 987 736 987 736 987 1018 c 0,3,4
 987 1174 987 1174 898 1246 c 128,-1,5
 809 1318 809 1318 603 1318 c 2,6,-1
 372 1318 l 1,7,-1
 372 736 l 1,0,-1
200 0 m 1,8,-1
 200 1456 l 1,9,-1
 580 1456 l 2,10,11
 889 1456 889 1456 1030 1350 c 128,-1,12
 1171 1244 1171 1244 1171 1020 c 0,13,14
 1171 806 1171 806 1026.5 696.5 c 128,-1,15
 882 587 882 587 604 587 c 2,16,-1
 372 587 l 1,17,-1
 372 0 l 1,18,-1
 200 0 l 1,8,-1
EndSplineSet
EndChar

StartChar: Q
Encoding: 81 81 52
Width: 1626
GlyphClass: 2
Flags: W
LayerCount: 2
UndoRedoHistory
Layer: 1
Undoes
EndUndoes
Redoes
EndRedoes
EndUndoRedoHistory
Fore
SplineSet
813 -24 m 128,-1,1
 680 -24 680 -24 566 16.5 c 128,-1,2
 452 57 452 57 370.5 128 c 128,-1,3
 289 199 289 199 231 294 c 128,-1,4
 173 389 173 389 144.5 499.5 c 128,-1,5
 116 610 116 610 116 728 c 0,6,7
 116 878 116 878 162 1012 c 128,-1,8
 208 1146 208 1146 293 1251 c 128,-1,9
 378 1356 378 1356 513 1418 c 128,-1,10
 648 1480 648 1480 813 1480 c 128,-1,11
 978 1480 978 1480 1113 1418 c 128,-1,12
 1248 1356 1248 1356 1333 1251 c 128,-1,13
 1418 1146 1418 1146 1464 1012 c 128,-1,14
 1510 878 1510 878 1510 728 c 0,15,16
 1510 610 1510 610 1481.5 499.5 c 128,-1,17
 1453 389 1453 389 1395 294 c 0,18,19
 1338 199 1338 199 1256 128 c 0,20,21
 1236 110 1236 110 1213 94 c 1,22,-1
 1355 -168 l 1,23,-1
 1227 -237 l 1,24,-1
 1080 24 l 1,25,26
 1070 20 1070 20 1060 16 c 0,27,0
 946 -24 946 -24 813 -24 c 128,-1,1
1132 243 m 1,28,29
 1151 259 1151 259 1169 277 c 0,30,31
 1241 350 1241 350 1283.5 467 c 128,-1,32
 1326 584 1326 584 1326 729 c 128,-1,33
 1326 874 1326 874 1283.5 990.5 c 128,-1,34
 1241 1107 1241 1107 1169 1180 c 128,-1,35
 1097 1253 1097 1253 1006 1291.5 c 128,-1,36
 915 1330 915 1330 813 1330 c 128,-1,37
 711 1330 711 1330 620 1291.5 c 128,-1,38
 529 1253 529 1253 457 1180 c 128,-1,39
 385 1107 385 1107 342.5 990.5 c 128,-1,40
 300 874 300 874 300 729 c 128,-1,41
 300 584 300 584 342.5 467 c 128,-1,42
 385 350 385 350 457 277 c 128,-1,43
 529 204 529 204 620 165 c 128,-1,44
 711 126 711 126 813 126 c 0,45,46
 913 126 913 126 1002 163 c 1,47,-1
 867 402 l 1,48,-1
 1005 477 l 1,49,-1
 1132 243 l 1,28,29
EndSplineSet
EndChar

StartChar: R
Encoding: 82 82 53
Width: 1317
GlyphClass: 2
Flags: W
AnchorPoint: "Anchor-2" 700 1536 basechar 0
AnchorPoint: "Anchor-1" 676 0 basechar 0
LayerCount: 2
UndoRedoHistory
Layer: 1
Undoes
EndUndoes
Redoes
EndRedoes
EndUndoRedoHistory
Fore
SplineSet
372 799 m 1,0,-1
 627 799 l 2,1,2
 702 799 702 799 763.5 812 c 128,-1,3
 825 825 825 825 876.5 853.5 c 128,-1,4
 928 882 928 882 957 934 c 128,-1,5
 986 986 986 986 986 1058 c 0,6,7
 986 1135 986 1135 960 1187.5 c 128,-1,8
 934 1240 934 1240 884 1267.5 c 128,-1,9
 834 1295 834 1295 775.5 1306.5 c 128,-1,10
 717 1318 717 1318 638 1318 c 2,11,-1
 372 1318 l 1,12,-1
 372 799 l 1,0,-1
200 0 m 1,13,-1
 200 1456 l 1,14,-1
 549 1456 l 2,15,16
 624 1456 624 1456 685 1452.5 c 128,-1,17
 746 1449 746 1449 812 1439 c 128,-1,18
 878 1429 878 1429 928 1411.5 c 128,-1,19
 978 1394 978 1394 1025 1365 c 128,-1,20
 1072 1336 1072 1336 1102 1296.5 c 128,-1,21
 1132 1257 1132 1257 1150 1200.5 c 128,-1,22
 1168 1144 1168 1144 1168 1074 c 0,23,24
 1168 914 1168 914 1072 810 c 0,25,26
 989 720 989 720 831 678 c 1,27,-1
 1253 0 l 1,28,-1
 1065 0 l 1,29,-1
 678 652 l 1,30,-1
 372 652 l 1,31,-1
 372 0 l 1,32,-1
 200 0 l 1,13,-1
EndSplineSet
EndChar

StartChar: S
Encoding: 83 83 54
Width: 1186
GlyphClass: 2
Flags: W
AnchorPoint: "Anchor-2" 604 1536 basechar 0
AnchorPoint: "Anchor-1" 587 -1 basechar 0
LayerCount: 2
UndoRedoHistory
Layer: 1
Undoes
EndUndoes
Redoes
EndRedoes
EndUndoRedoHistory
Fore
SplineSet
615 -24 m 0,0,1
 484 -24 484 -24 358.5 22 c 128,-1,2
 233 68 233 68 154 128 c 1,3,-1
 205 278 l 1,4,5
 280 216 280 216 394 171 c 128,-1,6
 508 126 508 126 611 126 c 0,7,8
 747 126 747 126 820 198 c 128,-1,9
 893 270 893 270 893 394 c 0,10,11
 893 443 893 443 880 478 c 128,-1,12
 867 513 867 513 830 549 c 128,-1,13
 793 585 793 585 723 617.5 c 128,-1,14
 653 650 653 650 542 685 c 0,15,16
 328 753 328 753 238.5 847 c 128,-1,17
 149 941 149 941 150 1105 c 0,18,19
 151 1222 151 1222 212 1308.5 c 128,-1,20
 273 1395 273 1395 375.5 1437.5 c 128,-1,21
 478 1480 478 1480 607 1480 c 0,22,23
 838 1480 838 1480 1020 1348 c 1,24,-1
 954 1217 l 1,25,26
 797 1330 797 1330 627 1330 c 0,27,28
 488 1330 488 1330 407 1275 c 128,-1,29
 326 1220 326 1220 324 1114 c 0,30,31
 322 1039 322 1039 348 991.5 c 128,-1,32
 374 944 374 944 441.5 906 c 128,-1,33
 509 868 509 868 642 825 c 1,34,35
 766 786 766 786 848.5 741.5 c 128,-1,36
 931 697 931 697 978 643 c 128,-1,37
 1025 589 1025 589 1043.5 529.5 c 128,-1,38
 1062 470 1062 470 1062 391 c 0,39,40
 1062 205 1062 205 942 90.5 c 128,-1,41
 822 -24 822 -24 615 -24 c 0,0,1
EndSplineSet
EndChar

StartChar: T
Encoding: 84 84 55
Width: 1155
GlyphClass: 2
Flags: W
AnchorPoint: "Anchor-2" 580 1536 basechar 0
AnchorPoint: "Anchor-1" 696 0 basechar 0
LayerCount: 2
UndoRedoHistory
Layer: 1
Undoes
EndUndoes
Redoes
EndRedoes
EndUndoRedoHistory
Fore
SplineSet
490 0 m 1,0,-1
 490 1318 l 1,1,-1
 30 1318 l 1,2,-1
 30 1456 l 1,3,-1
 1125 1456 l 1,4,-1
 1125 1318 l 1,5,-1
 662 1318 l 1,6,-1
 662 0 l 1,7,-1
 490 0 l 1,0,-1
EndSplineSet
EndChar

StartChar: U
Encoding: 85 85 56
Width: 1453
GlyphClass: 2
Flags: W
AnchorPoint: "Anchor-2" 656 1536 basechar 0
AnchorPoint: "Anchor-1" 826 0 basechar 0
AnchorPoint: "Anchor-0" 850 0 basechar 0
LayerCount: 2
UndoRedoHistory
Layer: 1
Undoes
EndUndoes
Redoes
EndRedoes
EndUndoRedoHistory
Fore
SplineSet
738 -24 m 0,0,1
 170 -24 170 -24 170 541 c 2,2,-1
 170 1456 l 1,3,-1
 342 1456 l 1,4,-1
 342 546 l 2,5,6
 342 126 342 126 737 126 c 0,7,8
 917 126 917 126 1014.5 234.5 c 128,-1,9
 1112 343 1112 343 1112 539 c 2,10,-1
 1112 1456 l 1,11,-1
 1283 1456 l 1,12,-1
 1283 551 l 1,13,14
 1281 279 1281 279 1139 127.5 c 128,-1,15
 997 -24 997 -24 738 -24 c 0,0,1
EndSplineSet
EndChar

StartChar: V
Encoding: 86 86 57
Width: 1313
GlyphClass: 2
Flags: W
LayerCount: 2
UndoRedoHistory
Layer: 1
Undoes
EndUndoes
Redoes
EndRedoes
EndUndoRedoHistory
Fore
SplineSet
572 1 m 1,0,-1
 18 1456 l 1,1,-1
 206 1456 l 1,2,-1
 618 325 l 1,3,-1
 664 184 l 1,4,-1
 712 324 l 1,5,-1
 1112 1456 l 1,6,-1
 1296 1456 l 1,7,-1
 758 1 l 1,8,-1
 572 1 l 1,0,-1
EndSplineSet
EndChar

StartChar: W
Encoding: 87 87 58
Width: 2073
GlyphClass: 2
Flags: W
AnchorPoint: "Anchor-2" 1023 1536 basechar 0
AnchorPoint: "Anchor-1" 1017 0 basechar 0
LayerCount: 2
UndoRedoHistory
Layer: 1
Undoes
EndUndoes
Redoes
EndRedoes
EndUndoRedoHistory
Fore
SplineSet
446 1 m 1,0,-1
 23 1456 l 1,1,-1
 209 1456 l 1,2,-1
 519 349 l 1,3,-1
 557 189 l 1,4,-1
 607 349 l 1,5,-1
 957 1456 l 1,6,-1
 1130 1456 l 1,7,-1
 1477 345 l 1,8,-1
 1523 190 l 1,9,-1
 1565 349 l 1,10,-1
 1870 1456 l 1,11,-1
 2050 1456 l 1,12,-1
 1627 0 l 1,13,-1
 1415 0 l 1,14,-1
 1038 1247 l 1,15,-1
 659 1 l 1,16,-1
 446 1 l 1,0,-1
EndSplineSet
EndChar

StartChar: X
Encoding: 88 88 59
Width: 1279
GlyphClass: 2
Flags: W
LayerCount: 2
UndoRedoHistory
Layer: 1
Undoes
EndUndoes
Redoes
EndRedoes
EndUndoRedoHistory
Fore
SplineSet
1058 0 m 1,0,-1
 640 623 l 1,1,-1
 224 0 l 1,2,-1
 20 0 l 1,3,-1
 544 741 l 1,4,-1
 59 1456 l 1,5,-1
 265 1456 l 1,6,-1
 653 854 l 1,7,-1
 1053 1456 l 1,8,-1
 1249 1456 l 1,9,-1
 751 742 l 1,10,-1
 1259 0 l 1,11,-1
 1058 0 l 1,0,-1
EndSplineSet
EndChar

StartChar: Y
Encoding: 89 89 60
Width: 1235
GlyphClass: 2
Flags: W
AnchorPoint: "Anchor-2" 620 1536 basechar 0
AnchorPoint: "Anchor-1" 625 0 basechar 0
LayerCount: 2
UndoRedoHistory
Layer: 1
Undoes
EndUndoes
Redoes
EndRedoes
EndUndoRedoHistory
Fore
SplineSet
530 0 m 1,0,-1
 530 582 l 1,1,-1
 8 1456 l 1,2,-1
 200 1456 l 1,3,-1
 616 727 l 1,4,-1
 1036 1456 l 1,5,-1
 1226 1456 l 1,6,-1
 702 585 l 1,7,-1
 702 0 l 1,8,-1
 530 0 l 1,0,-1
EndSplineSet
EndChar

StartChar: Z
Encoding: 90 90 61
Width: 1209
GlyphClass: 2
Flags: W
AnchorPoint: "Anchor-2" 700 1536 basechar 0
AnchorPoint: "Anchor-1" 676 0 basechar 0
LayerCount: 2
UndoRedoHistory
Layer: 1
Undoes
EndUndoes
Redoes
EndRedoes
EndUndoRedoHistory
Fore
SplineSet
102 0 m 1,0,-1
 102 92 l 1,1,-1
 909 1318 l 1,2,-1
 134 1318 l 1,3,-1
 134 1456 l 1,4,-1
 1141 1456 l 1,5,-1
 1141 1368 l 1,6,-1
 330 138 l 1,7,-1
 1133 138 l 1,8,-1
 1133 0 l 1,9,-1
 102 0 l 1,0,-1
EndSplineSet
EndChar

StartChar: bracketleft
Encoding: 91 91 62
Width: 731
GlyphClass: 2
Flags: W
LayerCount: 2
UndoRedoHistory
Layer: 1
Undoes
EndUndoes
Redoes
EndRedoes
EndUndoRedoHistory
Fore
SplineSet
194 -200 m 1,0,-1
 194 1510 l 1,1,-1
 550 1510 l 1,2,-1
 550 1388 l 1,3,-1
 357 1388 l 1,4,-1
 357 -78 l 1,5,-1
 551 -78 l 1,6,-1
 551 -200 l 1,7,-1
 194 -200 l 1,0,-1
EndSplineSet
EndChar

StartChar: backslash
Encoding: 92 92 63
Width: 954
GlyphClass: 2
Flags: W
LayerCount: 2
UndoRedoHistory
Layer: 1
Undoes
EndUndoes
Redoes
EndRedoes
EndUndoRedoHistory
Fore
SplineSet
712 0 m 1,0,-1
 83 1456 l 1,1,-1
 250 1456 l 1,2,-1
 875 0 l 1,3,-1
 712 0 l 1,0,-1
EndSplineSet
EndChar

StartChar: bracketright
Encoding: 93 93 64
Width: 731
GlyphClass: 2
Flags: W
LayerCount: 2
UndoRedoHistory
Layer: 1
Undoes
EndUndoes
Redoes
EndRedoes
EndUndoRedoHistory
Fore
SplineSet
538 1510 m 1,0,-1
 538 -200 l 1,1,-1
 182 -200 l 1,2,-1
 182 -78 l 1,3,-1
 375 -78 l 1,4,-1
 375 1388 l 1,5,-1
 181 1388 l 1,6,-1
 181 1510 l 1,7,-1
 538 1510 l 1,0,-1
EndSplineSet
EndChar

StartChar: asciicircum
Encoding: 94 94 65
Width: 1390
GlyphClass: 2
Flags: W
LayerCount: 2
UndoRedoHistory
Layer: 1
Undoes
EndUndoes
Redoes
EndRedoes
EndUndoRedoHistory
Fore
SplineSet
172 550 m 1,0,-1
 644 1432 l 1,1,-1
 741 1432 l 1,2,-1
 1220 550 l 1,3,-1
 1065 550 l 1,4,-1
 691 1260 l 1,5,-1
 328 550 l 1,6,-1
 172 550 l 1,0,-1
EndSplineSet
EndChar

StartChar: underscore
Encoding: 95 95 66
Width: 1383
GlyphClass: 2
Flags: W
LayerCount: 2
UndoRedoHistory
Layer: 1
Undoes
EndUndoes
Redoes
EndRedoes
EndUndoRedoHistory
Fore
SplineSet
200 -152 m 1,0,-1
 200 -24 l 1,1,-1
 1183 -24 l 1,2,-1
 1183 -152 l 1,3,-1
 200 -152 l 1,0,-1
EndSplineSet
EndChar

StartChar: grave
Encoding: 96 96 67
Width: 629
GlyphClass: 2
Flags: W
LayerCount: 2
UndoRedoHistory
Layer: 1
Undoes
EndUndoes
Redoes
EndRedoes
EndUndoRedoHistory
Fore
SplineSet
416 1160 m 1,0,-1
 84 1480 l 1,1,-1
 298 1480 l 1,2,-1
 545 1160 l 1,3,-1
 416 1160 l 1,0,-1
EndSplineSet
EndChar

StartChar: a
Encoding: 97 97 68
Width: 1198
GlyphClass: 2
Flags: W
AnchorPoint: "Anchor-2" 676 1123 basechar 0
AnchorPoint: "Anchor-1" 616 0 basechar 0
AnchorPoint: "Anchor-0" 994 0 basechar 0
LayerCount: 2
UndoRedoHistory
Layer: 1
Undoes
EndUndoes
Redoes
EndRedoes
EndUndoRedoHistory
Fore
SplineSet
544 114 m 0,0,1
 680 114 680 114 759.5 209.5 c 128,-1,2
 839 305 839 305 839 453 c 2,3,-1
 839 890 l 1,4,5
 759 916 759 916 684 916 c 0,6,7
 512 916 512 916 400.5 790.5 c 128,-1,8
 289 665 289 665 289 448 c 0,9,10
 289 298 289 298 359 206 c 128,-1,11
 429 114 429 114 544 114 c 0,0,1
520 -22 m 0,12,13
 343 -22 343 -22 231 105 c 128,-1,14
 119 232 119 232 119 438 c 0,15,16
 119 710 119 710 279.5 881 c 128,-1,17
 440 1052 440 1052 686 1052 c 0,18,19
 858 1052 858 1052 1003 976 c 1,20,-1
 1003 278 l 2,21,22
 1003 198 1003 198 1034 162.5 c 128,-1,23
 1065 127 1065 127 1148 121 c 1,24,-1
 1119 -14 l 1,25,26
 1003 -14 1003 -14 941 30 c 128,-1,27
 879 74 879 74 858 161 c 1,28,29
 808 75 808 75 719.5 26.5 c 128,-1,30
 631 -22 631 -22 520 -22 c 0,12,13
EndSplineSet
EndChar

StartChar: b
Encoding: 98 98 69
Width: 1190
GlyphClass: 2
Flags: W
AnchorPoint: "Anchor-2" 790 1536 basechar 0
AnchorPoint: "Anchor-1" 826 0 basechar 0
LayerCount: 2
UndoRedoHistory
Layer: 1
Undoes
EndUndoes
Redoes
EndRedoes
EndUndoRedoHistory
Fore
SplineSet
564 114 m 0,0,1
 672 114 672 114 751.5 175.5 c 128,-1,2
 831 237 831 237 869.5 334 c 128,-1,3
 908 431 908 431 908 550 c 0,4,5
 908 726 908 726 836.5 821 c 128,-1,6
 765 916 765 916 654 916 c 0,7,8
 532 916 532 916 434.5 826.5 c 128,-1,9
 337 737 337 737 337 601 c 2,10,-1
 337 151 l 1,11,12
 346 147 346 147 363 141 c 128,-1,13
 380 135 380 135 439 124.5 c 128,-1,14
 498 114 498 114 564 114 c 0,0,1
570 -22 m 0,15,16
 505 -22 505 -22 440 -12.5 c 128,-1,17
 375 -3 375 -3 328.5 10.5 c 128,-1,18
 282 24 282 24 245.5 38 c 128,-1,19
 209 52 209 52 190 62 c 2,20,-1
 172 71 l 1,21,-1
 172 1500 l 1,22,-1
 337 1500 l 1,23,-1
 337 868 l 1,24,25
 463 1052 463 1052 677 1052 c 0,26,27
 850 1052 850 1052 964 915 c 128,-1,28
 1078 778 1078 778 1078 545 c 0,29,30
 1078 296 1078 296 937.5 137 c 128,-1,31
 797 -22 797 -22 570 -22 c 0,15,16
EndSplineSet
EndChar

StartChar: c
Encoding: 99 99 70
Width: 1024
GlyphClass: 2
Flags: W
AnchorPoint: "Anchor-2" 597 1152 basechar 0
AnchorPoint: "Anchor-1" 599 0 basechar 0
LayerCount: 2
UndoRedoHistory
Layer: 1
Undoes
EndUndoes
Redoes
EndRedoes
EndUndoRedoHistory
Fore
SplineSet
960 102 m 1,0,1
 802 -22 802 -22 605 -22 c 0,2,3
 505 -22 505 -22 416 15 c 128,-1,4
 327 52 327 52 259 119.5 c 128,-1,5
 191 187 191 187 151.5 288.5 c 128,-1,6
 112 390 112 390 112 511 c 0,7,8
 112 637 112 637 154.5 741 c 128,-1,9
 197 845 197 845 268.5 912 c 128,-1,10
 340 979 340 979 431.5 1015.5 c 128,-1,11
 523 1052 523 1052 622 1052 c 0,12,13
 795 1052 795 1052 939 948 c 1,14,-1
 888 826 l 1,15,16
 763 915 763 915 636 915 c 0,17,18
 565 915 565 915 502.5 890 c 128,-1,19
 440 865 440 865 390 816.5 c 128,-1,20
 340 768 340 768 311 689 c 128,-1,21
 282 610 282 610 282 510 c 0,22,23
 282 324 282 324 378.5 219 c 128,-1,24
 475 114 475 114 619 114 c 0,25,26
 694 114 694 114 769.5 144 c 128,-1,27
 845 174 845 174 902 226 c 1,28,-1
 960 102 l 1,0,1
EndSplineSet
EndChar

StartChar: d
Encoding: 100 100 71
Width: 1237
GlyphClass: 2
Flags: W
AnchorPoint: "Anchor-2" 790 1536 basechar 0
AnchorPoint: "Anchor-1" 826 0 basechar 0
LayerCount: 2
UndoRedoHistory
Layer: 1
Undoes
EndUndoes
Redoes
EndRedoes
EndUndoRedoHistory
Fore
SplineSet
871 161 m 1,0,1
 763 -22 763 -22 524 -22 c 0,2,3
 342 -22 342 -22 227 106.5 c 128,-1,4
 112 235 112 235 112 464 c 0,5,6
 112 607 112 607 157 721.5 c 128,-1,7
 202 836 202 836 278.5 907 c 128,-1,8
 355 978 355 978 450 1015 c 128,-1,9
 545 1052 545 1052 651 1052 c 0,10,11
 744 1052 744 1052 851 1014 c 1,12,-1
 851 1500 l 1,13,-1
 1016 1500 l 1,14,-1
 1016 314 l 2,15,16
 1016 261 1016 261 1020.5 230 c 128,-1,17
 1025 199 1025 199 1039.5 171.5 c 128,-1,18
 1054 144 1054 144 1083.5 132.5 c 128,-1,19
 1113 121 1113 121 1161 121 c 1,20,-1
 1132 -14 l 1,21,22
 911 -14 911 -14 871 161 c 1,0,1
283 463 m 0,23,24
 283 296 283 296 354 205 c 128,-1,25
 425 114 425 114 537 114 c 0,26,27
 680 114 680 114 766 216.5 c 128,-1,28
 852 319 852 319 852 497 c 2,29,-1
 852 880 l 1,30,31
 751 916 751 916 661 916 c 0,32,33
 485 916 485 916 384 788 c 128,-1,34
 283 660 283 660 283 463 c 0,23,24
EndSplineSet
EndChar

StartChar: e
Encoding: 101 101 72
Width: 1082
GlyphClass: 2
Flags: W
AnchorPoint: "Anchor-2" 616 1122 basechar 0
AnchorPoint: "Anchor-1" 656 0 basechar 0
AnchorPoint: "Anchor-0" 869 56 basechar 0
LayerCount: 2
UndoRedoHistory
Layer: 1
Undoes
EndUndoes
Redoes
EndRedoes
EndUndoRedoHistory
Fore
SplineSet
285 519 m 1,0,1
 366 519 366 519 452 534 c 128,-1,2
 538 549 538 549 616 577.5 c 128,-1,3
 694 606 694 606 744 653.5 c 128,-1,4
 794 701 794 701 794 758 c 0,5,6
 794 829 794 829 742 872.5 c 128,-1,7
 690 916 690 916 604 916 c 0,8,9
 475 916 475 916 380.5 805.5 c 128,-1,10
 286 695 286 695 285 519 c 1,0,1
606 -22 m 0,11,12
 503 -22 503 -22 413.5 13.5 c 128,-1,13
 324 49 324 49 256.5 114.5 c 128,-1,14
 189 180 189 180 150.5 281 c 128,-1,15
 112 382 112 382 112 505 c 0,16,17
 112 617 112 617 146 716 c 128,-1,18
 180 815 180 815 243 890 c 128,-1,19
 306 965 306 965 401.5 1008.5 c 128,-1,20
 497 1052 497 1052 613 1052 c 0,21,22
 766 1052 766 1052 861.5 967 c 128,-1,23
 957 882 957 882 957 755 c 0,24,25
 957 667 957 667 899 596.5 c 128,-1,26
 841 526 841 526 744 484 c 128,-1,27
 647 442 647 442 531 420 c 128,-1,28
 415 398 415 398 290 398 c 1,29,30
 300 321 300 321 335.5 263 c 128,-1,31
 371 205 371 205 420 174 c 128,-1,32
 469 143 469 143 518.5 128.5 c 128,-1,33
 568 114 568 114 617 114 c 0,34,35
 786 114 786 114 946 208 c 1,36,-1
 1004 100 l 1,37,38
 829 -22 829 -22 606 -22 c 0,11,12
EndSplineSet
EndChar

StartChar: f
Encoding: 102 102 73
Width: 711
GlyphClass: 2
Flags: W
AnchorPoint: "Anchor-2" 543 1464 basechar 0
AnchorPoint: "Anchor-1" 366 0 basechar 0
LayerCount: 2
UndoRedoHistory
Layer: 1
Undoes
EndUndoes
Redoes
EndRedoes
EndUndoRedoHistory
Fore
SplineSet
425 0 m 1,0,-1
 266 0 l 1,1,-1
 266 919 l 1,2,-1
 64 919 l 1,3,-1
 64 1026 l 1,4,-1
 266 1026 l 1,5,-1
 266 1147 l 2,6,7
 266 1309 266 1309 349 1404.5 c 128,-1,8
 432 1500 432 1500 606 1500 c 2,9,-1
 743 1500 l 1,10,-1
 743 1374 l 1,11,-1
 638 1374 l 2,12,13
 535 1374 535 1374 480 1320.5 c 128,-1,14
 425 1267 425 1267 425 1159 c 2,15,-1
 425 1026 l 1,16,-1
 695 1026 l 1,17,-1
 695 919 l 1,18,-1
 425 919 l 1,19,-1
 425 0 l 1,0,-1
EndSplineSet
EndChar

StartChar: g
Encoding: 103 103 74
Width: 1170
GlyphClass: 2
Flags: W
AnchorPoint: "Anchor-2" 652 1027 basechar 0
AnchorPoint: "Anchor-1" 588 -512 basechar 0
LayerCount: 2
UndoRedoHistory
Layer: 1
Undoes
EndUndoes
Redoes
EndRedoes
EndUndoRedoHistory
Fore
SplineSet
544 114 m 0,0,1
 692 114 692 114 773 215.5 c 128,-1,2
 854 317 854 317 854 476 c 2,3,-1
 854 881 l 1,4,5
 737 916 737 916 666 916 c 0,6,7
 491 916 491 916 388 791 c 128,-1,8
 285 666 285 666 285 452 c 0,9,10
 285 301 285 301 356 207.5 c 128,-1,11
 427 114 427 114 544 114 c 0,0,1
533 -494 m 0,12,13
 373 -494 373 -494 208 -433 c 1,14,-1
 224 -280 l 1,15,16
 292 -314 292 -314 374 -335.5 c 128,-1,17
 456 -357 456 -357 520 -357 c 0,18,19
 674 -357 674 -357 764 -261 c 128,-1,20
 854 -165 854 -165 854 11 c 2,21,-1
 854 153 l 1,22,23
 748 -22 748 -22 523 -22 c 0,24,25
 343 -22 343 -22 229 107 c 128,-1,26
 115 236 115 236 115 442 c 0,27,28
 115 726 115 726 266 889 c 128,-1,29
 417 1052 417 1052 669 1052 c 0,30,31
 766 1052 766 1052 862 1028.5 c 128,-1,32
 958 1005 958 1005 1018 966 c 1,33,-1
 1018 32 l 2,34,35
 1018 -197 1018 -197 882.5 -345.5 c 128,-1,36
 747 -494 747 -494 533 -494 c 0,12,13
EndSplineSet
EndChar

StartChar: h
Encoding: 104 104 75
Width: 1229
GlyphClass: 2
Flags: W
AnchorPoint: "Anchor-2" 737 1260 basechar 0
AnchorPoint: "Anchor-1" 645 0 basechar 0
LayerCount: 2
UndoRedoHistory
Layer: 1
Undoes
EndUndoes
Redoes
EndRedoes
EndUndoRedoHistory
Fore
SplineSet
1164 -20 m 1,0,-1
 1151 -20 l 2,1,2
 996 -20 996 -20 929 54 c 128,-1,3
 862 128 862 128 862 294 c 2,4,-1
 862 563 l 2,5,6
 862 746 862 746 815 826 c 128,-1,7
 768 906 768 906 656 916 c 0,8,9
 600 921 600 921 542.5 901 c 128,-1,10
 485 881 485 881 435.5 839.5 c 128,-1,11
 386 798 386 798 355 726 c 128,-1,12
 324 654 324 654 324 565 c 2,13,-1
 324 0 l 1,14,-1
 160 0 l 1,15,-1
 160 1500 l 1,16,-1
 324 1500 l 1,17,-1
 324 867 l 1,18,19
 374 955 374 955 470.5 1005.5 c 128,-1,20
 567 1056 567 1056 677 1052 c 0,21,22
 848 1046 848 1046 937 930.5 c 128,-1,23
 1026 815 1026 815 1026 569 c 2,24,-1
 1026 320 l 2,25,26
 1026 207 1026 207 1055.5 158.5 c 128,-1,27
 1085 110 1085 110 1161 110 c 2,28,-1
 1185 110 l 1,29,-1
 1164 -20 l 1,0,-1
EndSplineSet
EndChar

StartChar: i
Encoding: 105 105 76
Width: 633
GlyphClass: 2
Flags: W
AnchorPoint: "Anchor-1" 248 1 basechar 0
LayerCount: 2
UndoRedoHistory
Layer: 1
Undoes
EndUndoes
Redoes
EndRedoes
EndUndoRedoHistory
Fore
SplineSet
285 1236 m 128,-1,1
 237 1236 237 1236 201.5 1265.5 c 128,-1,2
 166 1295 166 1295 166 1347 c 128,-1,3
 166 1399 166 1399 201.5 1428.5 c 128,-1,4
 237 1458 237 1458 286 1458 c 0,5,6
 334 1458 334 1458 369 1428 c 128,-1,7
 404 1398 404 1398 404 1346 c 128,-1,8
 404 1294 404 1294 368.5 1265 c 128,-1,0
 333 1236 333 1236 285 1236 c 128,-1,1
659 26 m 1,9,10
 570 -10 570 -10 488 -16 c 128,-1,11
 406 -22 406 -22 339.5 2.5 c 128,-1,12
 273 27 273 27 233 93.5 c 128,-1,13
 193 160 193 160 193 262 c 2,14,-1
 193 1026 l 1,15,-1
 357 1026 l 1,16,-1
 357 267 l 2,17,18
 357 198 357 198 380.5 160 c 128,-1,19
 404 122 404 122 447 115.5 c 128,-1,20
 490 109 490 109 534 116.5 c 128,-1,21
 578 124 578 124 636 145 c 1,22,-1
 659 26 l 1,9,10
EndSplineSet
EndChar

StartChar: j
Encoding: 106 106 77
Width: 558
GlyphClass: 2
Flags: W
AnchorPoint: "Anchor-2" 700 1536 basechar 0
AnchorPoint: "Anchor-1" 676 0 basechar 0
LayerCount: 2
UndoRedoHistory
Layer: 1
Undoes
EndUndoes
Redoes
EndRedoes
EndUndoRedoHistory
Fore
SplineSet
101 -464 m 0,0,1
 27 -464 27 -464 -50 -443 c 1,2,-1
 -35 -311 l 1,3,4
 20 -329 20 -329 78 -329 c 0,5,6
 160 -329 160 -329 188 -276 c 128,-1,7
 216 -223 216 -223 216 -76 c 2,8,-1
 216 1026 l 1,9,-1
 381 1026 l 1,10,-1
 381 -84 l 2,11,12
 381 -290 381 -290 316.5 -377 c 128,-1,13
 252 -464 252 -464 101 -464 c 0,0,1
298 1236 m 128,-1,15
 250 1236 250 1236 214.5 1265.5 c 128,-1,16
 179 1295 179 1295 179 1347 c 128,-1,17
 179 1399 179 1399 214.5 1428.5 c 128,-1,18
 250 1458 250 1458 299 1458 c 0,19,20
 347 1458 347 1458 382 1428 c 128,-1,21
 417 1398 417 1398 417 1346 c 128,-1,22
 417 1294 417 1294 381.5 1265 c 128,-1,14
 346 1236 346 1236 298 1236 c 128,-1,15
EndSplineSet
EndChar

StartChar: k
Encoding: 107 107 78
Width: 1047
GlyphClass: 2
Flags: W
AnchorPoint: "Anchor-2" 767 1152 basechar 0
AnchorPoint: "Anchor-1" 616 -1 basechar 0
LayerCount: 2
UndoRedoHistory
Layer: 1
Undoes
EndUndoes
Redoes
EndRedoes
EndUndoRedoHistory
Fore
SplineSet
336 0 m 1,0,-1
 172 0 l 1,1,-1
 172 1500 l 1,2,-1
 336 1500 l 1,3,-1
 336 556 l 1,4,-1
 783 1026 l 1,5,-1
 990 1026 l 1,6,-1
 498 513 l 1,7,-1
 1052 0 l 1,8,-1
 835 0 l 1,9,-1
 336 460 l 1,10,-1
 336 0 l 1,0,-1
EndSplineSet
EndChar

StartChar: l
Encoding: 108 108 79
Width: 671
GlyphClass: 2
Flags: W
AnchorPoint: "Anchor-2" 266 1474 basechar 0
AnchorPoint: "Anchor-1" 264 0 basechar 0
LayerCount: 2
UndoRedoHistory
Layer: 1
Undoes
EndUndoes
Redoes
EndRedoes
EndUndoRedoHistory
Fore
SplineSet
637 144 m 1,0,-1
 657 23 l 1,1,2
 547 -13 547 -13 460.5 -14 c 128,-1,3
 374 -15 374 -15 322.5 10 c 128,-1,4
 271 35 271 35 237.5 81 c 128,-1,5
 204 127 204 127 192 176 c 128,-1,6
 180 225 180 225 180 280 c 2,7,-1
 180 1500 l 1,8,-1
 344 1500 l 1,9,-1
 344 274 l 2,10,11
 344 239 344 239 349 214 c 128,-1,12
 354 189 354 189 371.5 163.5 c 128,-1,13
 389 138 389 138 419.5 127 c 128,-1,14
 450 116 450 116 505.5 119 c 128,-1,15
 561 122 561 122 637 144 c 1,0,-1
EndSplineSet
EndChar

StartChar: m
Encoding: 109 109 80
Width: 1924
GlyphClass: 2
Flags: W
AnchorPoint: "Anchor-2" 952 1024 basechar 0
AnchorPoint: "Anchor-1" 946 0 basechar 0
LayerCount: 2
UndoRedoHistory
Layer: 1
Undoes
EndUndoes
Redoes
EndRedoes
EndUndoRedoHistory
Fore
SplineSet
1855 -14 m 1,0,-1
 1830 -14 l 2,1,2
 1676 -14 1676 -14 1613.5 66.5 c 128,-1,3
 1551 147 1551 147 1551 324 c 2,4,-1
 1551 579 l 2,5,6
 1551 763 1551 763 1503 839.5 c 128,-1,7
 1455 916 1455 916 1342 916 c 0,8,9
 1285 916 1285 916 1233.5 893.5 c 128,-1,10
 1182 871 1182 871 1139 826.5 c 128,-1,11
 1096 782 1096 782 1070.5 707 c 128,-1,12
 1045 632 1045 632 1045 536 c 2,13,-1
 1045 0 l 1,14,-1
 881 0 l 1,15,-1
 881 566 l 2,16,17
 881 746 881 746 829.5 831 c 128,-1,18
 778 916 778 916 667 916 c 0,19,20
 534 916 534 916 448.5 815 c 128,-1,21
 363 714 363 714 363 529 c 2,22,-1
 363 0 l 1,23,-1
 199 0 l 1,24,-1
 199 680 l 2,25,26
 199 838 199 838 76 945 c 1,27,-1
 218 1026 l 1,28,29
 258 995 258 995 294 939 c 128,-1,30
 330 883 330 883 335 832 c 1,31,32
 454 1052 454 1052 702 1052 c 0,33,34
 817 1052 817 1052 891 989 c 128,-1,35
 965 926 965 926 997 828 c 1,36,37
 1056 934 1056 934 1153.5 993 c 128,-1,38
 1251 1052 1251 1052 1368 1052 c 0,39,40
 1715 1052 1715 1052 1715 577 c 2,41,-1
 1715 353 l 2,42,43
 1715 215 1715 215 1739.5 168 c 128,-1,44
 1764 121 1764 121 1851 121 c 2,45,-1
 1882 121 l 1,46,-1
 1855 -14 l 1,0,-1
EndSplineSet
EndChar

StartChar: n
Encoding: 110 110 81
Width: 1263
GlyphClass: 2
Flags: W
AnchorPoint: "Anchor-2" 700 1536 basechar 0
AnchorPoint: "Anchor-1" 676 0 basechar 0
LayerCount: 2
UndoRedoHistory
Layer: 1
Undoes
EndUndoes
Redoes
EndRedoes
EndUndoRedoHistory
Fore
SplineSet
1221 121 m 1,0,-1
 1194 -14 l 1,1,-1
 1166 -14 l 2,2,3
 1084 -14 1084 -14 1029.5 8.5 c 128,-1,4
 975 31 975 31 944.5 78 c 128,-1,5
 914 125 914 125 902 186.5 c 128,-1,6
 890 248 890 248 890 338 c 2,7,-1
 890 580 l 2,8,9
 890 759 890 759 834.5 837.5 c 128,-1,10
 779 916 779 916 667 916 c 0,11,12
 609 916 609 916 556.5 893 c 128,-1,13
 504 870 504 870 460 824 c 128,-1,14
 416 778 416 778 389.5 700 c 128,-1,15
 363 622 363 622 363 522 c 2,16,-1
 363 0 l 1,17,-1
 199 0 l 1,18,-1
 199 683 l 2,19,20
 199 839 199 839 76 941 c 1,21,-1
 218 1023 l 1,22,23
 310 943 310 943 326 833 c 1,24,25
 382 934 382 934 476.5 993 c 128,-1,26
 571 1052 571 1052 700 1052 c 0,27,28
 776 1052 776 1052 838.5 1025.5 c 128,-1,29
 901 999 901 999 950 944.5 c 128,-1,30
 999 890 999 890 1026.5 799 c 128,-1,31
 1054 708 1054 708 1054 588 c 2,32,-1
 1054 311 l 2,33,34
 1054 208 1054 208 1080.5 164.5 c 128,-1,35
 1107 121 1107 121 1182 121 c 2,36,-1
 1221 121 l 1,0,-1
EndSplineSet
EndChar

StartChar: o
Encoding: 111 111 82
Width: 1216
GlyphClass: 2
Flags: W
AnchorPoint: "Anchor-2" 619 1152 basechar 0
AnchorPoint: "Anchor-1" 826 0 basechar 0
AnchorPoint: "Anchor-0" 726 0 basechar 0
LayerCount: 2
UndoRedoHistory
Layer: 1
Undoes
EndUndoes
Redoes
EndRedoes
EndUndoRedoHistory
Fore
SplineSet
613 -22 m 0,0,1
 392 -22 392 -22 252 125 c 128,-1,2
 112 272 112 272 112 511 c 0,3,4
 112 751 112 751 252 901.5 c 128,-1,5
 392 1052 392 1052 612 1052 c 0,6,7
 829 1052 829 1052 966.5 902.5 c 128,-1,8
 1104 753 1104 753 1104 513 c 0,9,10
 1104 274 1104 274 967 126 c 128,-1,11
 830 -22 830 -22 613 -22 c 0,0,1
613 114 m 0,12,13
 758 114 758 114 845.5 225 c 128,-1,14
 933 336 933 336 933 515 c 0,15,16
 933 696 933 696 845.5 806 c 128,-1,17
 758 916 758 916 612 916 c 0,18,19
 463 916 463 916 372.5 805 c 128,-1,20
 282 694 282 694 282 513 c 0,21,22
 282 335 282 335 373 224.5 c 128,-1,23
 464 114 464 114 613 114 c 0,12,13
EndSplineSet
EndChar

StartChar: p
Encoding: 112 112 83
Width: 1213
GlyphClass: 2
Flags: W
AnchorPoint: "Anchor-2" 790 1536 basechar 0
AnchorPoint: "Anchor-1" 826 0 basechar 0
LayerCount: 2
UndoRedoHistory
Layer: 1
Undoes
EndUndoes
Redoes
EndRedoes
EndUndoRedoHistory
Fore
SplineSet
358 166 m 1,0,1
 474 114 474 114 583 114 c 0,2,3
 738 114 738 114 835 220 c 128,-1,4
 932 326 932 326 932 541 c 0,5,6
 932 723 932 723 859 819.5 c 128,-1,7
 786 916 786 916 652 916 c 0,8,9
 532 916 532 916 445 811 c 128,-1,10
 358 706 358 706 358 508 c 2,11,-1
 358 166 l 1,0,1
195 -508 m 1,12,-1
 195 646 l 2,13,14
 195 757 195 757 157.5 832.5 c 128,-1,15
 120 908 120 908 72 945 c 1,16,-1
 213 1026 l 1,17,18
 247 1000 247 1000 279.5 946.5 c 128,-1,19
 312 893 312 893 322 829 c 1,20,21
 387 942 387 942 485 997 c 128,-1,22
 583 1052 583 1052 687 1052 c 0,23,24
 879 1052 879 1052 990 914.5 c 128,-1,25
 1101 777 1101 777 1101 543 c 0,26,27
 1101 279 1101 279 965.5 128.5 c 128,-1,28
 830 -22 830 -22 609 -22 c 0,29,30
 490 -22 490 -22 359 24 c 1,31,-1
 359 -508 l 1,32,-1
 195 -508 l 1,12,-1
EndSplineSet
EndChar

StartChar: q
Encoding: 113 113 84
Width: 1189
GlyphClass: 2
Flags: W
LayerCount: 2
UndoRedoHistory
Layer: 1
Undoes
EndUndoes
Redoes
EndRedoes
EndUndoRedoHistory
Fore
SplineSet
541 114 m 0,0,1
 689 114 689 114 770 215.5 c 128,-1,2
 851 317 851 317 851 476 c 2,3,-1
 851 881 l 1,4,5
 734 916 734 916 663 916 c 0,6,7
 489 916 489 916 385.5 789 c 128,-1,8
 282 662 282 662 282 448 c 0,9,10
 282 298 282 298 353 206 c 128,-1,11
 424 114 424 114 541 114 c 0,0,1
1005 -544 m 2,12,13
 982 -554 982 -554 956.5 -554.5 c 128,-1,14
 931 -555 931 -555 907 -546 c 128,-1,15
 883 -537 883 -537 867 -509.5 c 128,-1,16
 851 -482 851 -482 851 -441 c 2,17,-1
 851 153 l 1,18,19
 745 -22 745 -22 520 -22 c 0,20,21
 339 -22 339 -22 225.5 105 c 128,-1,22
 112 232 112 232 112 438 c 0,23,24
 112 722 112 722 263.5 887 c 128,-1,25
 415 1052 415 1052 666 1052 c 0,26,27
 759 1052 759 1052 855.5 1023.5 c 128,-1,28
 952 995 952 995 1015 954 c 1,29,-1
 1015 -386 l 1,30,-1
 1297 -268 l 1,31,-1
 1322 -405 l 1,32,-1
 1005 -544 l 2,12,13
EndSplineSet
EndChar

StartChar: r
Encoding: 114 114 85
Width: 813
GlyphClass: 2
Flags: W
AnchorPoint: "Anchor-2" 487 1152 basechar 0
AnchorPoint: "Anchor-1" 338 -3 basechar 0
LayerCount: 2
UndoRedoHistory
Layer: 1
Undoes
EndUndoes
Redoes
EndRedoes
EndUndoRedoHistory
Fore
SplineSet
211 0 m 1,0,-1
 211 693 l 2,1,2
 211 771 211 771 168 848.5 c 128,-1,3
 125 926 125 926 78 965 c 1,4,-1
 219 1026 l 1,5,6
 261 1000 261 1000 294 947.5 c 128,-1,7
 327 895 327 895 338 830 c 1,8,9
 377 926 377 926 462.5 987 c 128,-1,10
 548 1048 548 1048 643 1048 c 0,11,12
 725 1048 725 1048 797 1028 c 1,13,-1
 783 883 l 1,14,15
 715 907 715 907 638 907 c 0,16,17
 526 907 526 907 450.5 807.5 c 128,-1,18
 375 708 375 708 375 537 c 2,19,-1
 375 0 l 1,20,-1
 211 0 l 1,0,-1
EndSplineSet
EndChar

StartChar: s
Encoding: 115 115 86
Width: 907
GlyphClass: 2
Flags: W
AnchorPoint: "Anchor-2" 500 1152 basechar 0
AnchorPoint: "Anchor-1" 501 0 basechar 0
LayerCount: 2
UndoRedoHistory
Layer: 1
Undoes
EndUndoes
Redoes
EndRedoes
EndUndoRedoHistory
Fore
SplineSet
475 -22 m 0,0,1
 283 -22 283 -22 118 78 c 1,2,-1
 169 208 l 1,3,4
 334 114 334 114 465 114 c 0,5,6
 546 114 546 114 600.5 152 c 128,-1,7
 655 190 655 190 655 267 c 0,8,9
 655 284 655 284 651.5 299 c 128,-1,10
 648 314 648 314 638 328.5 c 128,-1,11
 628 343 628 343 621 353 c 128,-1,12
 614 363 614 363 594.5 376 c 128,-1,13
 575 389 575 389 565 396 c 128,-1,14
 555 403 555 403 528 416 c 128,-1,15
 501 429 501 429 490 434 c 128,-1,16
 479 439 479 439 445.5 453.5 c 128,-1,17
 412 468 412 468 401 473 c 0,18,19
 350 495 350 495 317.5 511.5 c 128,-1,20
 285 528 285 528 244 556 c 128,-1,21
 203 584 203 584 180 612.5 c 128,-1,22
 157 641 157 641 140.5 683.5 c 128,-1,23
 124 726 124 726 124 777 c 0,24,25
 124 907 124 907 220 979.5 c 128,-1,26
 316 1052 316 1052 458 1052 c 0,27,28
 636 1052 636 1052 782 969 c 1,29,-1
 735 837 l 1,30,31
 681 868 681 868 607 892 c 128,-1,32
 533 916 533 916 470 916 c 0,33,34
 385 916 385 916 336.5 880 c 128,-1,35
 288 844 288 844 288 779 c 0,36,37
 288 747 288 747 302 722 c 128,-1,38
 316 697 316 697 347 675.5 c 128,-1,39
 378 654 378 654 411.5 637.5 c 128,-1,40
 445 621 445 621 499 597 c 0,41,42
 523 587 523 587 536 581 c 0,43,44
 602 554 602 554 644.5 531 c 128,-1,45
 687 508 687 508 731 472 c 128,-1,46
 775 436 775 436 796 388 c 128,-1,47
 817 340 817 340 817 279 c 0,48,49
 817 138 817 138 720 58 c 128,-1,50
 623 -22 623 -22 475 -22 c 0,0,1
EndSplineSet
EndChar

StartChar: t
Encoding: 116 116 87
Width: 856
GlyphClass: 2
Flags: W
AnchorPoint: "Anchor-2" 500 1152 basechar 0
AnchorPoint: "Anchor-1" 501 0 basechar 0
LayerCount: 2
UndoRedoHistory
Layer: 1
Undoes
EndUndoes
Redoes
EndRedoes
EndUndoRedoHistory
Fore
SplineSet
587 -8 m 0,0,1
 417 -8 417 -8 339 65 c 128,-1,2
 261 138 261 138 261 300 c 2,3,-1
 261 919 l 1,4,-1
 58 919 l 1,5,-1
 58 1026 l 1,6,-1
 266 1026 l 1,7,-1
 266 1323 l 1,8,-1
 422 1353 l 1,9,-1
 422 1026 l 1,10,-1
 756 1026 l 1,11,-1
 756 919 l 1,12,-1
 422 919 l 1,13,-1
 425 298 l 2,14,15
 425 204 425 204 468 161.5 c 128,-1,16
 511 119 511 119 606 119 c 0,17,18
 640 119 640 119 701.5 131.5 c 128,-1,19
 763 144 763 144 799 158 c 1,20,-1
 818 35 l 1,21,22
 770 18 770 18 699.5 5 c 128,-1,23
 629 -8 629 -8 587 -8 c 0,0,1
EndSplineSet
EndChar

StartChar: u
Encoding: 117 117 88
Width: 1220
GlyphClass: 2
Flags: W
AnchorPoint: "Anchor-2" 600 1152 basechar 0
AnchorPoint: "Anchor-1" 587 0 basechar 0
AnchorPoint: "Anchor-0" 947 0 basechar 0
LayerCount: 2
UndoRedoHistory
Layer: 1
Undoes
EndUndoes
Redoes
EndRedoes
EndUndoRedoHistory
Fore
SplineSet
522 -22 m 0,0,1
 449 -22 449 -22 385.5 -1 c 128,-1,2
 322 20 322 20 269 64 c 128,-1,3
 216 108 216 108 186.5 185 c 128,-1,4
 157 262 157 262 160 365 c 2,5,-1
 166 582 l 1,6,7
 168 694 168 694 166.5 792.5 c 128,-1,8
 165 891 165 891 162 958 c 2,9,-1
 158 1026 l 1,10,-1
 323 1026 l 1,11,12
 325 1009 325 1009 327 976.5 c 128,-1,13
 329 944 329 944 332.5 829 c 128,-1,14
 336 714 336 714 331 583 c 1,15,-1
 325 365 l 2,16,17
 319 114 319 114 542 114 c 0,18,19
 669 114 669 114 756 216 c 128,-1,20
 843 318 843 318 843 482 c 2,21,-1
 843 1026 l 1,22,-1
 1007 1026 l 1,23,-1
 1007 328 l 2,24,25
 1007 211 1007 211 1034.5 166 c 128,-1,26
 1062 121 1062 121 1152 121 c 1,27,-1
 1123 -14 l 1,28,29
 1015 -14 1015 -14 949.5 27 c 128,-1,30
 884 68 884 68 862 161 c 1,31,32
 751 -22 751 -22 522 -22 c 0,0,1
EndSplineSet
EndChar

StartChar: v
Encoding: 118 118 89
Width: 1050
GlyphClass: 2
Flags: W
LayerCount: 2
UndoRedoHistory
Layer: 1
Undoes
EndUndoes
Redoes
EndRedoes
EndUndoRedoHistory
Fore
SplineSet
443 0 m 1,0,-1
 21 1026 l 1,1,-1
 203 1026 l 1,2,-1
 477 336 l 2,3,4
 501 278 501 278 535 163 c 1,5,6
 582 315 582 315 591 336 c 2,7,-1
 852 1026 l 1,8,-1
 1029 1026 l 1,9,-1
 611 0 l 1,10,-1
 443 0 l 1,0,-1
EndSplineSet
EndChar

StartChar: w
Encoding: 119 119 90
Width: 1667
GlyphClass: 2
Flags: W
AnchorPoint: "Anchor-2" 843 1024 basechar 0
AnchorPoint: "Anchor-1" 840 0 basechar 0
LayerCount: 2
UndoRedoHistory
Layer: 1
Undoes
EndUndoes
Redoes
EndRedoes
EndUndoRedoHistory
Fore
SplineSet
392 0 m 1,0,-1
 27 1026 l 1,1,-1
 203 1026 l 1,2,-1
 452 284 l 2,3,4
 457 268 457 268 467 234 c 128,-1,5
 477 200 477 200 481 186 c 1,6,7
 483 192 483 192 494 226 c 128,-1,8
 505 260 505 260 512 276 c 1,9,-1
 768 1026 l 1,10,-1
 927 1026 l 1,11,-1
 1168 286 l 2,12,13
 1173 271 1173 271 1182.5 237 c 128,-1,14
 1192 203 1192 203 1197 189 c 1,15,16
 1204 206 1204 206 1215 240.5 c 128,-1,17
 1226 275 1226 275 1231 287 c 1,18,-1
 1471 1026 l 1,19,-1
 1640 1026 l 1,20,-1
 1272 0 l 1,21,-1
 1112 0 l 1,22,-1
 842 831 l 1,23,-1
 554 0 l 1,24,-1
 392 0 l 1,0,-1
EndSplineSet
EndChar

StartChar: x
Encoding: 120 120 91
Width: 1065
GlyphClass: 2
Flags: W
LayerCount: 2
UndoRedoHistory
Layer: 1
Undoes
EndUndoes
Redoes
EndRedoes
EndUndoRedoHistory
Fore
SplineSet
49 0 m 1,0,-1
 441 514 l 1,1,-1
 68 1026 l 1,2,-1
 270 1026 l 1,3,-1
 546 626 l 1,4,-1
 824 1026 l 1,5,-1
 1003 1026 l 1,6,-1
 633 518 l 1,7,-1
 1016 0 l 1,8,-1
 815 0 l 1,9,-1
 531 408 l 1,10,-1
 239 0 l 1,11,-1
 49 0 l 1,0,-1
EndSplineSet
EndChar

StartChar: y
Encoding: 121 121 92
Width: 1177
GlyphClass: 2
Flags: W
AnchorPoint: "Anchor-2" 536 1024 basechar 0
LayerCount: 2
UndoRedoHistory
Layer: 1
Undoes
EndUndoes
Redoes
EndRedoes
EndUndoRedoHistory
Fore
SplineSet
536 -494 m 0,0,1
 375 -494 375 -494 208 -433 c 1,2,-1
 227 -280 l 1,3,4
 296 -315 296 -315 377 -336 c 128,-1,5
 458 -357 458 -357 522 -357 c 0,6,7
 673 -357 673 -357 765 -271 c 128,-1,8
 857 -185 857 -185 857 -44 c 2,9,-1
 857 116 l 1,10,11
 734 -22 734 -22 540 -22 c 0,12,13
 482 -22 482 -22 428 -9.5 c 128,-1,14
 374 3 374 3 323.5 32.5 c 128,-1,15
 273 62 273 62 236.5 105.5 c 128,-1,16
 200 149 200 149 179 215.5 c 128,-1,17
 158 282 158 282 160 365 c 2,18,-1
 166 582 l 2,19,20
 170 740 170 740 168 839 c 128,-1,21
 166 938 166 938 162 982 c 2,22,-1
 158 1026 l 1,23,-1
 323 1026 l 1,24,25
 325 1016 325 1016 327 991 c 128,-1,26
 329 966 329 966 333 860.5 c 128,-1,27
 337 755 337 755 331 595 c 1,28,-1
 325 365 l 2,29,30
 323 294 323 294 343 243 c 128,-1,31
 363 192 363 192 399.5 165 c 128,-1,32
 436 138 436 138 476.5 126 c 128,-1,33
 517 114 517 114 564 114 c 0,34,35
 687 114 687 114 772 199 c 128,-1,36
 857 284 857 284 857 427 c 2,37,-1
 857 1026 l 1,38,-1
 1021 1026 l 1,39,-1
 1021 -23 l 2,40,41
 1021 -234 1021 -234 886.5 -364 c 128,-1,42
 752 -494 752 -494 536 -494 c 0,0,1
EndSplineSet
EndChar

StartChar: z
Encoding: 122 122 93
Width: 978
GlyphClass: 2
Flags: W
AnchorPoint: "Anchor-2" 506 1024 basechar 0
AnchorPoint: "Anchor-1" 555 0 basechar 0
LayerCount: 2
UndoRedoHistory
Layer: 1
Undoes
EndUndoes
Redoes
EndRedoes
EndUndoRedoHistory
Fore
SplineSet
90 0 m 1,0,-1
 90 89 l 1,1,-1
 676 891 l 1,2,-1
 116 891 l 1,3,-1
 116 1026 l 1,4,-1
 899 1026 l 1,5,-1
 899 939 l 1,6,-1
 315 134 l 1,7,-1
 916 134 l 1,8,-1
 916 0 l 1,9,-1
 90 0 l 1,0,-1
EndSplineSet
EndChar

StartChar: braceleft
Encoding: 123 123 94
Width: 747
GlyphClass: 2
Flags: W
LayerCount: 2
UndoRedoHistory
Layer: 1
Undoes
EndUndoes
Redoes
EndRedoes
EndUndoRedoHistory
Fore
SplineSet
657 -225 m 1,0,1
 481 -220 481 -220 378 -146.5 c 128,-1,2
 275 -73 275 -73 275 69 c 2,3,-1
 275 319 l 2,4,5
 275 423 275 423 229 487 c 128,-1,6
 183 551 183 551 83 560 c 1,7,-1
 83 695 l 1,8,9
 170 701 170 701 222 758.5 c 128,-1,10
 274 816 274 816 275 912 c 1,11,-1
 275 1156 l 2,12,13
 275 1307 275 1307 371 1393.5 c 128,-1,14
 467 1480 467 1480 658 1480 c 1,15,-1
 658 1337 l 1,16,17
 565 1335 565 1335 503.5 1288.5 c 128,-1,18
 442 1242 442 1242 442 1148 c 2,19,-1
 442 875 l 2,20,21
 442 775 442 775 394 712.5 c 128,-1,22
 346 650 346 650 263 625 c 1,23,24
 347 594 347 594 394.5 519.5 c 128,-1,25
 442 445 442 445 442 360 c 2,26,-1
 442 128 l 2,27,28
 442 -82 442 -82 657 -82 c 1,29,-1
 657 -225 l 1,0,1
EndSplineSet
EndChar

StartChar: bar
Encoding: 124 124 95
Width: 564
GlyphClass: 2
Flags: W
LayerCount: 2
UndoRedoHistory
Layer: 1
Undoes
EndUndoes
Redoes
EndRedoes
EndUndoRedoHistory
Fore
SplineSet
200 -200 m 1,0,-1
 200 1541 l 1,1,-1
 364 1541 l 1,2,-1
 364 -200 l 1,3,-1
 200 -200 l 1,0,-1
EndSplineSet
EndChar

StartChar: braceright
Encoding: 125 125 96
Width: 747
GlyphClass: 2
Flags: W
LayerCount: 2
UndoRedoHistory
Layer: 1
Undoes
EndUndoes
Redoes
EndRedoes
EndUndoRedoHistory
Fore
SplineSet
91 1480 m 1,0,1
 267 1475 267 1475 370 1401.5 c 128,-1,2
 473 1328 473 1328 473 1186 c 2,3,-1
 473 936 l 2,4,5
 473 832 473 832 519 768 c 128,-1,6
 565 704 565 704 665 695 c 1,7,-1
 665 560 l 1,8,9
 578 554 578 554 526 496.5 c 128,-1,10
 474 439 474 439 473 343 c 1,11,-1
 473 99 l 2,12,13
 473 -52 473 -52 377 -138.5 c 128,-1,14
 281 -225 281 -225 90 -225 c 1,15,-1
 90 -82 l 1,16,17
 183 -80 183 -80 244.5 -33.5 c 128,-1,18
 306 13 306 13 306 107 c 2,19,-1
 306 380 l 2,20,21
 306 480 306 480 354 542.5 c 128,-1,22
 402 605 402 605 485 630 c 1,23,24
 401 661 401 661 353.5 735.5 c 128,-1,25
 306 810 306 810 306 895 c 2,26,-1
 306 1127 l 2,27,28
 306 1337 306 1337 91 1337 c 1,29,-1
 91 1480 l 1,0,1
EndSplineSet
EndChar

StartChar: asciitilde
Encoding: 126 126 97
Width: 1331
GlyphClass: 2
Flags: W
LayerCount: 2
UndoRedoHistory
Layer: 1
Undoes
EndUndoes
Redoes
EndRedoes
EndUndoRedoHistory
Fore
SplineSet
265 385 m 1,0,-1
 150 440 l 1,1,2
 175 558 175 558 253.5 631.5 c 128,-1,3
 332 705 332 705 445 705 c 0,4,5
 504 705 504 705 605 664 c 0,6,7
 638 650 638 650 702 617 c 128,-1,8
 766 584 766 584 813 564.5 c 128,-1,9
 860 545 860 545 892 545 c 0,10,11
 958 545 958 545 1000.5 598 c 128,-1,12
 1043 651 1043 651 1059 723 c 1,13,-1
 1184 684 l 1,14,15
 1155 561 1155 561 1079 485.5 c 128,-1,16
 1003 410 1003 410 891 410 c 0,17,18
 839 410 839 410 751 452 c 0,19,20
 728 463 728 463 676 489 c 128,-1,21
 624 515 624 515 592.5 530 c 128,-1,22
 561 545 561 545 519 558 c 128,-1,23
 477 571 477 571 447 571 c 0,24,25
 374 571 374 571 328 517 c 128,-1,26
 282 463 282 463 265 385 c 1,0,-1
EndSplineSet
EndChar

StartChar: cent
Encoding: 162 162 100
Width: 1059
GlyphClass: 2
Flags: W
LayerCount: 2
UndoRedoHistory
Layer: 1
Undoes
EndUndoes
Redoes
EndRedoes
EndUndoRedoHistory
Fore
SplineSet
553 122 m 1,0,-1
 553 904 l 1,1,2
 421 882 421 882 349.5 774.5 c 128,-1,3
 278 667 278 667 278 508 c 0,4,5
 278 344 278 344 353 243 c 128,-1,6
 428 142 428 142 553 122 c 1,0,-1
553 -235 m 1,7,-1
 553 -20 l 1,8,9
 359 0 359 0 232 144.5 c 128,-1,10
 105 289 105 289 105 503 c 0,11,12
 105 731 105 731 226 880.5 c 128,-1,13
 347 1030 347 1030 553 1049 c 1,14,-1
 553 1281 l 1,15,-1
 661 1281 l 1,16,-1
 661 1049 l 1,17,18
 860 1034 860 1034 952 912 c 1,19,-1
 875 801 l 1,20,21
 801 893 801 893 661 907 c 1,22,-1
 661 120 l 1,23,24
 802 135 802 135 932 225 c 1,25,-1
 968 87 l 1,26,27
 818 -3 818 -3 661 -20 c 1,28,-1
 661 -235 l 1,29,-1
 553 -235 l 1,7,-1
EndSplineSet
EndChar

StartChar: sterling
Encoding: 163 163 101
Width: 1273
GlyphClass: 2
Flags: W
LayerCount: 2
UndoRedoHistory
Layer: 1
Undoes
EndUndoes
Redoes
EndRedoes
EndUndoRedoHistory
Fore
SplineSet
188 0 m 1,0,-1
 188 138 l 1,1,2
 265 183 265 183 305 277.5 c 128,-1,3
 345 372 345 372 345 500 c 2,4,-1
 345 660 l 1,5,-1
 162 660 l 1,6,-1
 162 792 l 1,7,-1
 344 792 l 1,8,-1
 344 926 l 2,9,10
 344 1483 344 1483 763 1483 c 0,11,12
 973 1483 973 1483 1088 1392 c 1,13,-1
 1036 1261 l 1,14,15
 922 1331 922 1331 773 1331 c 0,16,17
 700 1331 700 1331 649 1306.5 c 128,-1,18
 598 1282 598 1282 569.5 1234 c 128,-1,19
 541 1186 541 1186 528.5 1125 c 128,-1,20
 516 1064 516 1064 516 982 c 2,21,-1
 516 792 l 1,22,-1
 833 792 l 1,23,-1
 833 660 l 1,24,-1
 518 660 l 1,25,-1
 518 551 l 2,26,27
 518 252 518 252 381 141 c 1,28,-1
 1107 141 l 1,29,-1
 1107 0 l 1,30,-1
 188 0 l 1,0,-1
EndSplineSet
EndChar

StartChar: currency
Encoding: 164 164 102
Width: 1227
GlyphClass: 2
Flags: W
LayerCount: 2
UndoRedoHistory
Layer: 1
Undoes
EndUndoes
Redoes
EndRedoes
EndUndoRedoHistory
Fore
SplineSet
609 351 m 128,-1,1
 730 351 730 351 812.5 437.5 c 128,-1,2
 895 524 895 524 898 651 c 128,-1,3
 901 778 901 778 819 870 c 128,-1,4
 737 962 737 962 617 965 c 0,5,6
 496 968 496 968 408 876.5 c 128,-1,7
 320 785 320 785 320 658 c 128,-1,8
 320 531 320 531 404 441 c 128,-1,0
 488 351 488 351 609 351 c 128,-1,1
1027 210 m 1,9,-1
 861 371 l 1,10,11
 756 274 756 274 611 274 c 0,12,13
 479 274 479 274 374 363 c 1,14,-1
 214 195 l 1,15,-1
 178 232 l 1,16,-1
 337 398 l 1,17,18
 232 511 232 511 232 661 c 0,19,20
 232 798 232 798 326 908 c 1,21,-1
 163 1065 l 1,22,-1
 202 1104 l 1,23,-1
 362 947 l 1,24,25
 474 1051 474 1051 620 1048 c 0,26,27
 753 1045 753 1045 853 956 c 1,28,-1
 1009 1120 l 1,29,-1
 1049 1081 l 1,30,-1
 891 917 l 1,31,32
 993 804 993 804 990 651 c 0,33,34
 987 512 987 512 896 408 c 1,35,-1
 1064 246 l 1,36,-1
 1027 210 l 1,9,-1
EndSplineSet
EndChar

StartChar: yen
Encoding: 165 165 103
Width: 1530
GlyphClass: 2
Flags: W
LayerCount: 2
UndoRedoHistory
Layer: 1
Undoes
EndUndoes
Redoes
EndRedoes
EndUndoRedoHistory
Fore
SplineSet
315 283 m 1,0,-1
 315 403 l 1,1,-1
 678 403 l 1,2,-1
 678 574 l 1,3,-1
 309 574 l 1,4,-1
 309 696 l 1,5,-1
 610 696 l 1,6,-1
 156 1456 l 1,7,-1
 348 1456 l 1,8,-1
 764 727 l 1,9,-1
 1184 1456 l 1,10,-1
 1374 1456 l 1,11,-1
 917 696 l 1,12,-1
 1213 696 l 1,13,-1
 1213 574 l 1,14,-1
 850 574 l 1,15,-1
 850 403 l 1,16,-1
 1216 403 l 1,17,-1
 1216 283 l 1,18,-1
 850 283 l 1,19,-1
 850 0 l 1,20,-1
 678 0 l 1,21,-1
 678 283 l 1,22,-1
 315 283 l 1,0,-1
EndSplineSet
EndChar

StartChar: brokenbar
Encoding: 166 166 104
Width: 557
GlyphClass: 2
Flags: W
LayerCount: 2
UndoRedoHistory
Layer: 1
Undoes
EndUndoes
Redoes
EndRedoes
EndUndoRedoHistory
Fore
SplineSet
200 677 m 1,0,-1
 200 1545 l 1,1,-1
 357 1545 l 1,2,-1
 357 677 l 1,3,-1
 200 677 l 1,0,-1
200 -491 m 1,4,-1
 200 393 l 1,5,-1
 357 393 l 1,6,-1
 357 -491 l 1,7,-1
 200 -491 l 1,4,-1
EndSplineSet
EndChar

StartChar: section
Encoding: 167 167 105
Width: 1071
GlyphClass: 2
Flags: W
LayerCount: 2
UndoRedoHistory
Layer: 1
Undoes
EndUndoes
Redoes
EndRedoes
EndUndoRedoHistory
Fore
SplineSet
578 557 m 1,0,1
 617 581 617 581 642.5 601.5 c 128,-1,2
 668 622 668 622 691 656.5 c 128,-1,3
 714 691 714 691 714 728 c 0,4,5
 714 757 714 757 701.5 782 c 128,-1,6
 689 807 689 807 673 823.5 c 128,-1,7
 657 840 657 840 628 857 c 128,-1,8
 599 874 599 874 580 882 c 128,-1,9
 561 890 561 890 528.5 903 c 128,-1,10
 496 916 496 916 486 920 c 1,11,12
 358 852 358 852 358 746 c 0,13,14
 358 723 358 723 363.5 703.5 c 128,-1,15
 369 684 369 684 377 670 c 128,-1,16
 385 656 385 656 400 642.5 c 128,-1,17
 415 629 415 629 427.5 620.5 c 128,-1,18
 440 612 440 612 462 602 c 128,-1,19
 484 592 484 592 498 586.5 c 128,-1,20
 512 581 512 581 538 571.5 c 128,-1,21
 564 562 564 562 578 557 c 1,0,1
473 -24 m 0,22,23
 333 -24 333 -24 208 27 c 1,24,-1
 206 172 l 1,25,26
 349 110 349 110 468 110 c 0,27,28
 565 110 565 110 631 152.5 c 128,-1,29
 697 195 697 195 697 260 c 0,30,31
 697 287 697 287 688.5 308.5 c 128,-1,32
 680 330 680 330 668.5 343.5 c 128,-1,33
 657 357 657 357 634.5 370.5 c 128,-1,34
 612 384 612 384 595 391 c 128,-1,35
 578 398 578 398 545.5 410.5 c 128,-1,36
 513 423 513 423 495 431 c 2,37,-1
 415 466 l 2,38,39
 181 568 181 568 181 734 c 0,40,41
 181 882 181 882 370 974 c 1,42,43
 296 1018 296 1018 256.5 1072 c 128,-1,44
 217 1126 217 1126 217 1211 c 0,45,46
 217 1267 217 1267 237.5 1313 c 128,-1,47
 258 1359 258 1359 292.5 1389.5 c 128,-1,48
 327 1420 327 1420 375 1441 c 128,-1,49
 423 1462 423 1462 476.5 1471 c 128,-1,50
 530 1480 530 1480 589 1480 c 0,51,52
 631 1480 631 1480 672.5 1473.5 c 128,-1,53
 714 1467 714 1467 739 1461 c 128,-1,54
 764 1455 764 1455 813 1440 c 1,55,-1
 815 1296 l 1,56,57
 704 1346 704 1346 594 1346 c 0,58,59
 388 1346 388 1346 388 1215 c 0,60,61
 388 1161 388 1161 416 1129.5 c 128,-1,62
 444 1098 444 1098 496 1069 c 0,63,64
 530 1050 530 1050 594 1022 c 128,-1,65
 658 994 658 994 702.5 971 c 128,-1,66
 747 948 747 948 794.5 915.5 c 128,-1,67
 842 883 842 883 867 839.5 c 128,-1,68
 892 796 892 796 892 742 c 0,69,70
 892 696 892 696 875.5 656.5 c 128,-1,71
 859 617 859 617 828.5 586 c 128,-1,72
 798 555 798 555 771 534.5 c 128,-1,73
 744 514 744 514 706 491 c 1,74,75
 782 453 782 453 825.5 403 c 128,-1,76
 869 353 869 353 869 269 c 0,77,78
 869 167 869 167 813 99.5 c 128,-1,79
 757 32 757 32 671 4 c 128,-1,80
 585 -24 585 -24 473 -24 c 0,22,23
EndSplineSet
EndChar

StartChar: dieresis
Encoding: 168 168 106
Width: 896
GlyphClass: 2
Flags: W
AnchorPoint: "Anchor-2" 437 1152 mark 0
LayerCount: 2
UndoRedoHistory
Layer: 1
Undoes
EndUndoes
Redoes
EndRedoes
EndUndoRedoHistory
Fore
SplineSet
532 1362 m 2,0,-1
 532 1386 l 2,1,2
 532 1420 532 1420 556 1444 c 128,-1,3
 580 1468 580 1468 614 1468 c 128,-1,4
 648 1468 648 1468 672 1444 c 128,-1,5
 696 1420 696 1420 696 1386 c 2,6,-1
 696 1362 l 2,7,8
 696 1328 696 1328 672 1304 c 128,-1,9
 648 1280 648 1280 614 1280 c 128,-1,10
 580 1280 580 1280 556 1304 c 128,-1,11
 532 1328 532 1328 532 1362 c 2,0,-1
200 1362 m 2,12,-1
 200 1386 l 2,13,14
 200 1420 200 1420 224 1444 c 128,-1,15
 248 1468 248 1468 282 1468 c 128,-1,16
 316 1468 316 1468 340 1444 c 128,-1,17
 364 1420 364 1420 364 1386 c 2,18,-1
 364 1362 l 2,19,20
 364 1328 364 1328 340 1304 c 128,-1,21
 316 1280 316 1280 282 1280 c 128,-1,22
 248 1280 248 1280 224 1304 c 128,-1,23
 200 1328 200 1328 200 1362 c 2,12,-1
EndSplineSet
EndChar

StartChar: copyright
Encoding: 169 169 107
Width: 1880
GlyphClass: 2
Flags: W
LayerCount: 2
UndoRedoHistory
Layer: 1
Undoes
EndUndoes
Redoes
EndRedoes
EndUndoRedoHistory
Fore
SplineSet
939 80 m 0,0,1
 1111 80 1111 80 1256 167.5 c 128,-1,2
 1401 255 1401 255 1484.5 403.5 c 128,-1,3
 1568 552 1568 552 1568 725 c 0,4,5
 1568 899 1568 899 1484.5 1047.5 c 128,-1,6
 1401 1196 1401 1196 1256 1283.5 c 128,-1,7
 1111 1371 1111 1371 939 1371 c 0,8,9
 766 1371 766 1371 621 1283.5 c 128,-1,10
 476 1196 476 1196 392.5 1047.5 c 128,-1,11
 309 899 309 899 309 725 c 0,12,13
 309 552 309 552 392.5 403.5 c 128,-1,14
 476 255 476 255 621 167.5 c 128,-1,15
 766 80 766 80 939 80 c 0,0,1
940 1480 m 128,-1,17
 1092 1480 1092 1480 1231.5 1420 c 128,-1,18
 1371 1360 1371 1360 1472 1259 c 128,-1,19
 1573 1158 1573 1158 1632.5 1018.5 c 128,-1,20
 1692 879 1692 879 1692 727 c 128,-1,21
 1692 575 1692 575 1632 436 c 128,-1,22
 1572 297 1572 297 1471.5 196 c 128,-1,23
 1371 95 1371 95 1231.5 35 c 128,-1,24
 1092 -25 1092 -25 940 -25 c 128,-1,25
 788 -25 788 -25 648.5 35 c 128,-1,26
 509 95 509 95 408.5 196 c 128,-1,27
 308 297 308 297 248 436 c 128,-1,28
 188 575 188 575 188 727 c 128,-1,29
 188 879 188 879 247.5 1018.5 c 128,-1,30
 307 1158 307 1158 408 1259 c 128,-1,31
 509 1360 509 1360 648.5 1420 c 128,-1,16
 788 1480 788 1480 940 1480 c 128,-1,17
965 249 m 0,32,33
 857 249 857 249 768 288 c 128,-1,34
 679 327 679 327 620.5 393 c 128,-1,35
 562 459 562 459 530 546 c 128,-1,36
 498 633 498 633 498 729 c 0,37,38
 498 956 498 956 631.5 1082 c 128,-1,39
 765 1208 765 1208 975 1208 c 0,40,41
 1142 1208 1142 1208 1258 1105 c 1,42,-1
 1228 985 l 1,43,44
 1122 1080 1122 1080 969 1080 c 0,45,46
 818 1080 818 1080 734.5 980.5 c 128,-1,47
 651 881 651 881 651 733 c 0,48,49
 651 564 651 564 742.5 472 c 128,-1,50
 834 380 834 380 995 380 c 0,51,52
 1129 380 1129 380 1224 460 c 1,53,-1
 1261 339 l 1,54,55
 1136 249 1136 249 965 249 c 0,32,33
EndSplineSet
EndChar

StartChar: guillemotleft
Encoding: 171 171 109
Width: 965
GlyphClass: 2
Flags: W
LayerCount: 2
UndoRedoHistory
Layer: 1
Undoes
EndUndoes
Redoes
EndRedoes
EndUndoRedoHistory
Fore
SplineSet
714 173 m 1,0,-1
 452 543 l 1,1,-1
 719 916 l 1,2,-1
 878 916 l 1,3,-1
 615 543 l 1,4,-1
 871 173 l 1,5,-1
 714 173 l 1,0,-1
355 173 m 1,6,-1
 87 543 l 1,7,-1
 361 916 l 1,8,-1
 514 916 l 1,9,-1
 257 543 l 1,10,-1
 506 173 l 1,11,-1
 355 173 l 1,6,-1
EndSplineSet
EndChar

StartChar: logicalnot
Encoding: 172 172 110
Width: 1417
GlyphClass: 2
Flags: W
LayerCount: 2
UndoRedoHistory
Layer: 1
Undoes
EndUndoes
Redoes
EndRedoes
EndUndoRedoHistory
Fore
SplineSet
1068 238 m 1,0,-1
 1068 659 l 1,1,-1
 196 659 l 1,2,-1
 196 798 l 1,3,-1
 1218 798 l 1,4,-1
 1218 238 l 1,5,-1
 1068 238 l 1,0,-1
EndSplineSet
EndChar

StartChar: registered
Encoding: 174 174 111
Width: 1880
GlyphClass: 2
Flags: W
LayerCount: 2
UndoRedoHistory
Layer: 1
Undoes
EndUndoes
Redoes
EndRedoes
EndUndoRedoHistory
Fore
SplineSet
789 293 m 1,0,-1
 647 293 l 1,1,-1
 647 1192 l 1,2,-1
 861 1192 l 2,3,4
 1072 1192 1072 1192 1173.5 1133 c 128,-1,5
 1275 1074 1275 1074 1275 950 c 0,6,7
 1275 845 1275 845 1214.5 785.5 c 128,-1,8
 1154 726 1154 726 1052 706 c 1,9,-1
 1293 293 l 1,10,-1
 1132 293 l 1,11,-1
 917 684 l 1,12,-1
 789 684 l 1,13,-1
 789 293 l 1,0,-1
787 803 m 1,14,-1
 859 803 l 2,15,16
 863 803 863 803 870 803 c 0,17,18
 907 803 907 803 925.5 803.5 c 128,-1,19
 944 804 944 804 976 806 c 128,-1,20
 1008 808 1008 808 1025.5 813 c 128,-1,21
 1043 818 1043 818 1065 827.5 c 128,-1,22
 1087 837 1087 837 1098.5 851 c 128,-1,23
 1110 865 1110 865 1118 886 c 128,-1,24
 1126 907 1126 907 1126 935 c 0,25,26
 1126 969 1126 969 1118 993.5 c 128,-1,27
 1110 1018 1110 1018 1095 1032.5 c 128,-1,28
 1080 1047 1080 1047 1058.5 1056 c 128,-1,29
 1037 1065 1037 1065 1011 1068 c 128,-1,30
 985 1071 985 1071 955 1072 c 128,-1,31
 925 1073 925 1073 893 1072 c 0,32,33
 870 1072 870 1072 858 1072 c 2,34,-1
 787 1072 l 1,35,-1
 787 803 l 1,14,-1
939 80 m 0,36,37
 1111 80 1111 80 1256 167.5 c 128,-1,38
 1401 255 1401 255 1484.5 403.5 c 128,-1,39
 1568 552 1568 552 1568 725 c 0,40,41
 1568 899 1568 899 1484.5 1047.5 c 128,-1,42
 1401 1196 1401 1196 1256 1283.5 c 128,-1,43
 1111 1371 1111 1371 939 1371 c 0,44,45
 766 1371 766 1371 621 1283.5 c 128,-1,46
 476 1196 476 1196 392.5 1047.5 c 128,-1,47
 309 899 309 899 309 725 c 0,48,49
 309 552 309 552 392.5 403.5 c 128,-1,50
 476 255 476 255 621 167.5 c 128,-1,51
 766 80 766 80 939 80 c 0,36,37
940 1480 m 128,-1,53
 1092 1480 1092 1480 1231.5 1420 c 128,-1,54
 1371 1360 1371 1360 1472 1259 c 128,-1,55
 1573 1158 1573 1158 1632.5 1018.5 c 128,-1,56
 1692 879 1692 879 1692 727 c 128,-1,57
 1692 575 1692 575 1632 436 c 128,-1,58
 1572 297 1572 297 1471.5 196 c 128,-1,59
 1371 95 1371 95 1231.5 35 c 128,-1,60
 1092 -25 1092 -25 940 -25 c 128,-1,61
 788 -25 788 -25 648.5 35 c 128,-1,62
 509 95 509 95 408.5 196 c 128,-1,63
 308 297 308 297 248 436 c 128,-1,64
 188 575 188 575 188 727 c 128,-1,65
 188 879 188 879 247.5 1018.5 c 128,-1,66
 307 1158 307 1158 408 1259 c 128,-1,67
 509 1360 509 1360 648.5 1420 c 128,-1,52
 788 1480 788 1480 940 1480 c 128,-1,53
EndSplineSet
EndChar

StartChar: macron
Encoding: 175 175 112
Width: 972
GlyphClass: 2
Flags: W
AnchorPoint: "Anchor-2" 484 1152 mark 0
LayerCount: 2
UndoRedoHistory
Layer: 1
Undoes
EndUndoes
Redoes
EndRedoes
EndUndoRedoHistory
Fore
SplineSet
200 1322 m 1,0,-1
 200 1456 l 1,1,-1
 772 1456 l 1,2,-1
 772 1322 l 1,3,-1
 200 1322 l 1,0,-1
EndSplineSet
EndChar

StartChar: degree
Encoding: 176 176 113
Width: 1052
GlyphClass: 2
Flags: W
LayerCount: 2
UndoRedoHistory
Layer: 1
Undoes
EndUndoes
Redoes
EndRedoes
EndUndoRedoHistory
Fore
SplineSet
526 815 m 0,0,1
 377 815 377 815 283.5 914 c 128,-1,2
 190 1013 190 1013 190 1148 c 0,3,4
 190 1252 190 1252 240.5 1329.5 c 128,-1,5
 291 1407 291 1407 366 1443.5 c 128,-1,6
 441 1480 441 1480 526 1480 c 0,7,8
 676 1480 676 1480 769 1382 c 128,-1,9
 862 1284 862 1284 862 1148 c 0,10,11
 862 1044 862 1044 811 966 c 128,-1,12
 760 888 760 888 685 851.5 c 128,-1,13
 610 815 610 815 526 815 c 0,0,1
526 936 m 0,14,15
 622 936 622 936 676 999.5 c 128,-1,16
 730 1063 730 1063 730 1149 c 0,17,18
 730 1246 730 1246 671 1302.5 c 128,-1,19
 612 1359 612 1359 526 1359 c 0,20,21
 430 1359 430 1359 376 1297 c 128,-1,22
 322 1235 322 1235 322 1149 c 0,23,24
 322 1051 322 1051 379 993.5 c 128,-1,25
 436 936 436 936 526 936 c 0,14,15
EndSplineSet
EndChar

StartChar: plusminus
Encoding: 177 177 114
Width: 1425
GlyphClass: 2
Flags: W
LayerCount: 2
UndoRedoHistory
Layer: 1
Undoes
EndUndoes
Redoes
EndRedoes
EndUndoRedoHistory
Fore
SplineSet
196 0 m 1,0,-1
 196 138 l 1,1,-1
 1228 138 l 1,2,-1
 1228 0 l 1,3,-1
 196 0 l 1,0,-1
635 308 m 1,4,-1
 635 680 l 1,5,-1
 196 680 l 1,6,-1
 196 818 l 1,7,-1
 633 818 l 1,8,-1
 633 1192 l 1,9,-1
 782 1192 l 1,10,-1
 782 818 l 1,11,-1
 1224 818 l 1,12,-1
 1224 680 l 1,13,-1
 785 680 l 1,14,-1
 785 308 l 1,15,-1
 635 308 l 1,4,-1
EndSplineSet
EndChar

StartChar: uni00B2
Encoding: 178 178 115
Width: 927
GlyphClass: 2
Flags: W
LayerCount: 2
UndoRedoHistory
Layer: 1
Undoes
EndUndoes
Redoes
EndRedoes
EndUndoRedoHistory
Fore
SplineSet
188 604 m 1,0,-1
 188 715 l 1,1,2
 405 914 405 914 489 1006 c 0,3,4
 542 1065 542 1065 575 1118 c 0,5,6
 606 1168 606 1168 606 1211 c 0,7,8
 606 1265 606 1265 567 1294 c 128,-1,9
 528 1323 528 1323 466 1323 c 0,10,11
 343 1323 343 1323 281 1192 c 1,12,-1
 196 1270 l 1,13,14
 230 1348 230 1348 301 1394 c 128,-1,15
 372 1440 372 1440 472 1440 c 0,16,17
 559 1440 559 1440 622 1404.5 c 128,-1,18
 685 1369 685 1369 715 1307 c 0,19,20
 735 1264 735 1264 735 1213 c 0,21,22
 735 1142 735 1142 707 1085 c 128,-1,23
 679 1028 679 1028 629 968 c 0,24,25
 611 947 611 947 588.5 923 c 128,-1,26
 566 899 566 899 551 883.5 c 128,-1,27
 536 868 536 868 504.5 840 c 128,-1,28
 473 812 473 812 463 803 c 128,-1,29
 453 794 453 794 414 760.5 c 128,-1,30
 375 727 375 727 370 722 c 1,31,-1
 734 722 l 1,32,-1
 734 604 l 1,33,-1
 188 604 l 1,0,-1
EndSplineSet
EndChar

StartChar: uni00B3
Encoding: 179 179 116
Width: 862
GlyphClass: 2
Flags: W
LayerCount: 2
UndoRedoHistory
Layer: 1
Undoes
EndUndoes
Redoes
EndRedoes
EndUndoRedoHistory
Fore
SplineSet
403 586 m 0,0,1
 254 586 254 586 157 683 c 1,2,-1
 217 779 l 1,3,4
 301 701 301 701 398 701 c 0,5,6
 473 701 473 701 523 736 c 128,-1,7
 573 771 573 771 573 837 c 0,8,9
 573 890 573 890 541 921 c 128,-1,10
 509 952 509 952 465 961.5 c 128,-1,11
 421 971 421 971 358 971 c 0,12,13
 355 971 355 971 344 970.5 c 128,-1,14
 333 970 333 970 328 970 c 2,15,-1
 302 970 l 1,16,-1
 302 1089 l 1,17,-1
 351 1089 l 2,18,19
 548 1089 548 1089 548 1210 c 0,20,21
 548 1322 548 1322 407 1322 c 0,22,23
 311 1322 311 1322 215 1244 c 1,24,-1
 157 1340 l 1,25,26
 201 1384 201 1384 268 1412.5 c 128,-1,27
 335 1441 335 1441 409 1441 c 0,28,29
 496 1441 496 1441 561 1405.5 c 128,-1,30
 626 1370 626 1370 658 1310 c 0,31,32
 681 1267 681 1267 681 1213 c 0,33,34
 681 1089 681 1089 574 1032 c 1,35,36
 702 975 702 975 702 834 c 0,37,38
 702 745 702 745 650.5 687 c 128,-1,39
 599 629 599 629 518 603 c 0,40,41
 462 586 462 586 403 586 c 0,0,1
EndSplineSet
EndChar

StartChar: acute
Encoding: 180 180 117
Width: 618
GlyphClass: 2
Flags: W
LayerCount: 2
UndoRedoHistory
Layer: 1
Undoes
EndUndoes
Redoes
EndRedoes
EndUndoRedoHistory
Fore
SplineSet
93 1136 m 1,0,-1
 319 1456 l 1,1,-1
 531 1456 l 1,2,-1
 223 1136 l 1,3,-1
 93 1136 l 1,0,-1
EndSplineSet
EndChar

StartChar: paragraph
Encoding: 182 182 118
Width: 1150
GlyphClass: 2
Flags: W
LayerCount: 2
UndoRedoHistory
Layer: 1
Undoes
EndUndoes
Redoes
EndRedoes
EndUndoRedoHistory
Fore
SplineSet
468 0 m 1,0,-1
 468 830 l 1,1,2
 309 830 309 830 223 910.5 c 128,-1,3
 137 991 137 991 137 1134 c 0,4,5
 137 1455 137 1455 642 1455 c 2,6,-1
 1023 1455 l 1,7,-1
 1023 1331 l 1,8,-1
 936 1331 l 1,9,-1
 936 0 l 1,10,-1
 807 0 l 1,11,-1
 807 1331 l 1,12,-1
 606 1331 l 1,13,-1
 606 0 l 1,14,-1
 468 0 l 1,0,-1
EndSplineSet
EndChar

StartChar: periodcentered
Encoding: 183 183 119
Width: 617
GlyphClass: 2
Flags: W
LayerCount: 2
UndoRedoHistory
Layer: 1
Undoes
EndUndoes
Redoes
EndRedoes
EndUndoRedoHistory
Fore
SplineSet
308 1134 m 0,0,1
 326 1134 326 1134 341.5 1131 c 128,-1,2
 357 1128 357 1128 370 1122 c 128,-1,3
 383 1116 383 1116 394.5 1107.5 c 128,-1,4
 406 1099 406 1099 414.5 1089 c 128,-1,5
 423 1079 423 1079 429.5 1067 c 128,-1,6
 436 1055 436 1055 440.5 1042 c 128,-1,7
 445 1029 445 1029 447.5 1015.5 c 128,-1,8
 450 1002 450 1002 450 988 c 0,9,10
 450 929 450 929 412.5 885.5 c 128,-1,11
 375 842 375 842 308 842 c 0,12,13
 274 842 274 842 246.5 854.5 c 128,-1,14
 219 867 219 867 202 888 c 128,-1,15
 185 909 185 909 176 935 c 128,-1,16
 167 961 167 961 167 989 c 0,17,18
 167 1066 167 1066 222 1107 c 0,19,20
 258 1134 258 1134 308 1134 c 0,0,1
EndSplineSet
EndChar

StartChar: cedilla
Encoding: 184 184 120
Width: 762
GlyphClass: 2
Flags: W
AnchorPoint: "Anchor-1" 390 0 mark 0
LayerCount: 2
UndoRedoHistory
Layer: 1
Undoes
EndUndoes
Redoes
EndRedoes
EndUndoRedoHistory
Fore
SplineSet
347 -396 m 0,0,1
 280 -396 280 -396 172 -374 c 1,2,-1
 180 -289 l 1,3,4
 280 -313 280 -313 331 -313 c 0,5,6
 445 -313 445 -313 445 -241 c 0,7,8
 445 -168 445 -168 336 -168 c 0,9,10
 332 -168 332 -168 299 -171 c 2,11,-1
 267 -173 l 1,12,-1
 300 17 l 1,13,-1
 397 17 l 1,14,-1
 379 -90 l 1,15,-1
 388 -90 l 1,16,17
 588 -100 588 -100 588 -239 c 0,18,19
 588 -282 588 -282 568 -314 c 128,-1,20
 548 -346 548 -346 512.5 -363 c 128,-1,21
 477 -380 477 -380 436 -388 c 128,-1,22
 395 -396 395 -396 347 -396 c 0,0,1
EndSplineSet
EndChar

StartChar: uni00B9
Encoding: 185 185 121
Width: 721
GlyphClass: 2
Flags: W
LayerCount: 2
UndoRedoHistory
Layer: 1
Undoes
EndUndoes
Redoes
EndRedoes
EndUndoRedoHistory
Fore
SplineSet
195 604 m 1,0,-1
 195 723 l 1,1,-1
 317 723 l 1,2,-1
 317 1008 l 2,3,4
 317 1038 317 1038 316.5 1090.5 c 128,-1,5
 316 1143 316 1143 316 1168 c 2,6,-1
 316 1271 l 1,7,8
 244 1233 244 1233 164 1203 c 1,9,-1
 165 1333 l 1,10,11
 240 1356 240 1356 333 1412 c 1,12,-1
 438 1427 l 1,13,-1
 438 720 l 1,14,-1
 560 720 l 1,15,-1
 560 604 l 1,16,-1
 195 604 l 1,0,-1
EndSplineSet
EndChar

StartChar: ordmasculine
Encoding: 186 186 122
Width: 1094
GlyphClass: 2
Flags: W
LayerCount: 2
UndoRedoHistory
Layer: 1
Undoes
EndUndoes
Redoes
EndRedoes
EndUndoRedoHistory
Fore
SplineSet
549 879 m 0,0,1
 649 879 649 879 707 947 c 128,-1,2
 765 1015 765 1015 765 1123 c 0,3,4
 765 1234 765 1234 707 1303.5 c 128,-1,5
 649 1373 649 1373 546 1373 c 0,6,7
 446 1373 446 1373 388.5 1304.5 c 128,-1,8
 331 1236 331 1236 331 1127 c 0,9,10
 331 1015 331 1015 388 947 c 128,-1,11
 445 879 445 879 549 879 c 0,0,1
549 771 m 0,12,13
 383 771 383 771 287 866 c 128,-1,14
 191 961 191 961 191 1128 c 128,-1,15
 191 1295 191 1295 289.5 1387.5 c 128,-1,16
 388 1480 388 1480 548 1480 c 0,17,18
 714 1480 714 1480 808.5 1380.5 c 128,-1,19
 903 1281 903 1281 903 1125 c 0,20,21
 903 957 903 957 806 864 c 128,-1,22
 709 771 709 771 549 771 c 0,12,13
EndSplineSet
EndChar

StartChar: guillemotright
Encoding: 187 187 123
Width: 990
GlyphClass: 2
Flags: W
LayerCount: 2
UndoRedoHistory
Layer: 1
Undoes
EndUndoes
Redoes
EndRedoes
EndUndoRedoHistory
Fore
SplineSet
253 916 m 1,0,-1
 515 544 l 1,1,-1
 248 173 l 1,2,-1
 88 173 l 1,3,-1
 352 544 l 1,4,-1
 95 916 l 1,5,-1
 253 916 l 1,0,-1
636 916 m 1,6,-1
 905 544 l 1,7,-1
 631 173 l 1,8,-1
 480 173 l 1,9,-1
 733 544 l 1,10,-1
 487 916 l 1,11,-1
 636 916 l 1,6,-1
EndSplineSet
EndChar

StartChar: onequarter
Encoding: 188 188 124
Width: 1812
GlyphClass: 2
Flags: W
LayerCount: 2
UndoRedoHistory
Layer: 1
Undoes
EndUndoes
Redoes
EndRedoes
EndUndoRedoHistory
Fore
SplineSet
1537 617 m 1,0,-1
 1537 363 l 1,1,-1
 1726 363 l 1,2,-1
 1726 264 l 1,3,-1
 1538 264 l 1,4,-1
 1538 0 l 1,5,-1
 1406 0 l 1,6,-1
 1406 264 l 1,7,-1
 967 264 l 1,8,-1
 967 355 l 1,9,-1
 1328 1026 l 1,10,-1
 1465 1026 l 1,11,-1
 1128 363 l 1,12,-1
 1406 363 l 1,13,-1
 1406 617 l 1,14,-1
 1537 617 l 1,0,-1
169 426 m 1,15,-1
 169 1351 l 1,16,-1
 84 1351 l 1,17,-1
 84 1456 l 1,18,-1
 310 1456 l 1,19,-1
 310 426 l 1,20,-1
 169 426 l 1,15,-1
286 0 m 1,21,-1
 1119 1456 l 1,22,-1
 1268 1456 l 1,23,-1
 437 0 l 1,24,-1
 286 0 l 1,21,-1
EndSplineSet
Ligature2: "'frac' Diagonal Fractions lookup 0 subtable" one fraction four
Ligature2: "'frac' Diagonal Fractions lookup 0 subtable" one slash four
EndChar

StartChar: onehalf
Encoding: 189 189 125
Width: 1949
GlyphClass: 2
Flags: W
LayerCount: 2
UndoRedoHistory
Layer: 1
Undoes
EndUndoes
Redoes
EndRedoes
EndUndoRedoHistory
Fore
SplineSet
1507 1052 m 0,0,1
 1642 1052 1642 1052 1726.5 968 c 128,-1,2
 1811 884 1811 884 1815 747 c 0,3,4
 1816 695 1816 695 1803.5 649 c 128,-1,5
 1791 603 1791 603 1756.5 549.5 c 128,-1,6
 1722 496 1722 496 1696.5 464 c 128,-1,7
 1671 432 1671 432 1613 364 c 0,8,9
 1602 351 1602 351 1596 344 c 2,10,-1
 1404 119 l 1,11,-1
 1795 119 l 1,12,-1
 1795 0 l 1,13,-1
 1236 0 l 1,14,-1
 1236 126 l 1,15,-1
 1514 451 l 2,16,17
 1600 552 1600 552 1634 616.5 c 128,-1,18
 1668 681 1668 681 1664 752 c 0,19,20
 1656 926 1656 926 1503 926 c 0,21,22
 1464 926 1464 926 1426 916 c 128,-1,23
 1388 906 1388 906 1362 892.5 c 128,-1,24
 1336 879 1336 879 1315.5 865 c 128,-1,25
 1295 851 1295 851 1285 842 c 2,26,-1
 1275 833 l 1,27,-1
 1217 950 l 1,28,29
 1221 954 1221 954 1229 961 c 128,-1,30
 1237 968 1237 968 1264 985.5 c 128,-1,31
 1291 1003 1291 1003 1322 1016.5 c 128,-1,32
 1353 1030 1353 1030 1403.5 1041 c 128,-1,33
 1454 1052 1454 1052 1507 1052 c 0,0,1
209 426 m 1,34,-1
 209 1351 l 1,35,-1
 124 1351 l 1,36,-1
 124 1456 l 1,37,-1
 350 1456 l 1,38,-1
 350 426 l 1,39,-1
 209 426 l 1,34,-1
339 0 m 1,40,-1
 1172 1456 l 1,41,-1
 1321 1456 l 1,42,-1
 490 0 l 1,43,-1
 339 0 l 1,40,-1
EndSplineSet
Ligature2: "'frac' Diagonal Fractions lookup 0 subtable" one fraction two
Ligature2: "'frac' Diagonal Fractions lookup 0 subtable" one slash two
EndChar

StartChar: threequarters
Encoding: 190 190 126
Width: 2060
GlyphClass: 2
Flags: W
LayerCount: 2
UndoRedoHistory
Layer: 1
Undoes
EndUndoes
Redoes
EndRedoes
EndUndoRedoHistory
Fore
SplineSet
347 411 m 0,0,1
 225 411 225 411 110 483 c 1,2,-1
 148 596 l 1,3,4
 250 529 250 529 340 529 c 0,5,6
 426 529 426 529 483 580 c 128,-1,7
 540 631 540 631 540 718 c 0,8,9
 540 916 540 916 318 914 c 1,10,-1
 263 914 l 1,11,-1
 263 1028 l 1,12,-1
 311 1028 l 2,13,14
 415 1028 415 1028 469.5 1076.5 c 128,-1,15
 524 1125 524 1125 519 1214 c 0,16,17
 516 1280 516 1280 466 1322 c 128,-1,18
 416 1364 416 1364 348 1364 c 0,19,20
 217 1364 217 1364 136 1277 c 1,21,-1
 82 1370 l 1,22,23
 126 1423 126 1423 199.5 1452.5 c 128,-1,24
 273 1482 273 1482 361 1482 c 0,25,26
 432 1482 432 1482 494.5 1455 c 128,-1,27
 557 1428 557 1428 601 1367.5 c 128,-1,28
 645 1307 645 1307 648 1224 c 0,29,30
 651 1131 651 1131 610 1063.5 c 128,-1,31
 569 996 569 996 493 972 c 1,32,33
 577 952 577 952 623 884 c 128,-1,34
 669 816 669 816 670 715 c 0,35,36
 671 575 671 575 575 493 c 128,-1,37
 479 411 479 411 347 411 c 0,0,1
1785 617 m 1,38,-1
 1785 363 l 1,39,-1
 1974 363 l 1,40,-1
 1974 264 l 1,41,-1
 1786 264 l 1,42,-1
 1786 0 l 1,43,-1
 1654 0 l 1,44,-1
 1654 264 l 1,45,-1
 1215 264 l 1,46,-1
 1215 355 l 1,47,-1
 1576 1026 l 1,48,-1
 1713 1026 l 1,49,-1
 1376 363 l 1,50,-1
 1654 363 l 1,51,-1
 1654 617 l 1,52,-1
 1785 617 l 1,38,-1
543 0 m 1,53,-1
 1376 1456 l 1,54,-1
 1525 1456 l 1,55,-1
 694 0 l 1,56,-1
 543 0 l 1,53,-1
EndSplineSet
Ligature2: "'frac' Diagonal Fractions lookup 0 subtable" three fraction four
Ligature2: "'frac' Diagonal Fractions lookup 0 subtable" three slash four
EndChar

StartChar: AE
Encoding: 198 198 134
Width: 1981
GlyphClass: 2
Flags: W
LayerCount: 2
UndoRedoHistory
Layer: 1
Undoes
EndUndoes
Redoes
EndRedoes
EndUndoRedoHistory
Fore
SplineSet
506 546 m 1,0,-1
 1032 546 l 1,1,-1
 974 1308 l 1,2,-1
 926 1308 l 1,3,-1
 506 546 l 1,0,-1
15 0 m 1,4,-1
 823 1456 l 1,5,-1
 1832 1456 l 1,6,-1
 1832 1308 l 1,7,-1
 1133 1308 l 1,8,-1
 1169 820 l 1,9,-1
 1791 820 l 1,10,-1
 1791 672 l 1,11,-1
 1187 672 l 1,12,-1
 1227 148 l 1,13,-1
 1855 148 l 1,14,-1
 1855 0 l 1,15,-1
 1080 0 l 1,16,-1
 1050 398 l 1,17,-1
 430 398 l 1,18,-1
 211 0 l 1,19,-1
 15 0 l 1,4,-1
EndSplineSet
EndChar

StartChar: Eth
Encoding: 208 208 144
Width: 1518
GlyphClass: 2
Flags: W
LayerCount: 2
UndoRedoHistory
Layer: 1
Undoes
EndUndoes
Redoes
EndRedoes
EndUndoRedoHistory
Fore
SplineSet
372 138 m 1,0,-1
 623 138 l 2,1,2
 905 138 905 138 1062.5 286.5 c 128,-1,3
 1220 435 1220 435 1220 721 c 0,4,5
 1220 856 1220 856 1189 958.5 c 128,-1,6
 1158 1061 1158 1061 1101.5 1129 c 128,-1,7
 1045 1197 1045 1197 958.5 1239.5 c 128,-1,8
 872 1282 872 1282 767.5 1300 c 128,-1,9
 663 1318 663 1318 529 1318 c 2,10,-1
 372 1318 l 1,11,-1
 372 800 l 1,12,-1
 610 800 l 1,13,-1
 610 672 l 1,14,-1
 372 672 l 1,15,-1
 372 138 l 1,0,-1
200 672 m 1,16,-1
 43 672 l 1,17,-1
 43 800 l 1,18,-1
 200 800 l 1,19,-1
 200 1456 l 1,20,-1
 509 1456 l 2,21,22
 672 1456 672 1456 804.5 1433 c 128,-1,23
 937 1410 937 1410 1050 1356.5 c 128,-1,24
 1163 1303 1163 1303 1239.5 1219.5 c 128,-1,25
 1316 1136 1316 1136 1359 1011 c 128,-1,26
 1402 886 1402 886 1402 724 c 0,27,28
 1402 546 1402 546 1343.5 407.5 c 128,-1,29
 1285 269 1285 269 1179 180.5 c 128,-1,30
 1073 92 1073 92 928 46 c 128,-1,31
 783 0 783 0 607 0 c 2,32,-1
 200 0 l 1,33,-1
 200 672 l 1,16,-1
EndSplineSet
EndChar

StartChar: multiply
Encoding: 215 215 151
Width: 1340
GlyphClass: 2
Flags: W
LayerCount: 2
UndoRedoHistory
Layer: 1
Undoes
EndUndoes
Redoes
EndRedoes
EndUndoRedoHistory
Fore
SplineSet
379 154 m 1,0,-1
 276 257 l 1,1,-1
 570 554 l 1,2,-1
 276 851 l 1,3,-1
 379 954 l 1,4,-1
 670 657 l 1,5,-1
 960 954 l 1,6,-1
 1064 850 l 1,7,-1
 769 554 l 1,8,-1
 1064 258 l 1,9,-1
 960 154 l 1,10,-1
 670 450 l 1,11,-1
 379 154 l 1,0,-1
EndSplineSet
EndChar

StartChar: Oslash
Encoding: 216 216 152
Width: 1626
GlyphClass: 2
Flags: W
LayerCount: 2
UndoRedoHistory
Layer: 1
Undoes
EndUndoes
Redoes
EndRedoes
EndUndoRedoHistory
Fore
SplineSet
813 126 m 0,0,1
 915 126 915 126 1006 165 c 128,-1,2
 1097 204 1097 204 1169 277 c 128,-1,3
 1241 350 1241 350 1283.5 467 c 128,-1,4
 1326 584 1326 584 1326 729 c 128,-1,5
 1326 874 1326 874 1283.5 990.5 c 128,-1,6
 1241 1107 1241 1107 1169 1180 c 0,7,8
 1135 1214 1135 1214 1098 1241 c 1,9,-1
 654 152 l 1,10,11
 730 126 730 126 813 126 c 0,0,1
521 -175 m 1,12,-1
 418 -142 l 1,13,-1
 494 47 l 1,14,15
 424 81 424 81 370 128 c 0,16,17
 288 199 288 199 230.5 294 c 128,-1,18
 173 389 173 389 144.5 499.5 c 128,-1,19
 116 610 116 610 116 728 c 0,20,21
 116 878 116 878 162 1012 c 128,-1,22
 208 1146 208 1146 293 1251 c 128,-1,23
 378 1356 378 1356 513 1418 c 128,-1,24
 648 1480 648 1480 813 1480 c 0,25,26
 945 1480 945 1480 1059 1440 c 1,27,-1
 1125 1604 l 1,28,-1
 1232 1571 l 1,29,-1
 1160 1394 l 1,30,31
 1263 1337 1263 1337 1333 1251 c 0,32,33
 1418 1146 1418 1146 1464 1012 c 128,-1,34
 1510 878 1510 878 1510 728 c 0,35,36
 1510 610 1510 610 1481.5 499.5 c 128,-1,37
 1453 389 1453 389 1395 294 c 128,-1,38
 1337 199 1337 199 1255.5 128 c 128,-1,39
 1174 57 1174 57 1060 16.5 c 128,-1,40
 946 -24 946 -24 813 -24 c 0,41,42
 697 -24 697 -24 595 7 c 1,43,-1
 521 -175 l 1,12,-1
1000 1294 m 1,44,45
 912 1330 912 1330 813 1330 c 0,46,47
 711 1330 711 1330 620 1291.5 c 128,-1,48
 529 1253 529 1253 457 1180 c 128,-1,49
 385 1107 385 1107 342.5 990.5 c 128,-1,50
 300 874 300 874 300 729 c 128,-1,51
 300 584 300 584 342.5 467 c 128,-1,52
 385 350 385 350 457 277 c 0,53,54
 503 231 503 231 556 198 c 1,55,-1
 1000 1294 l 1,44,45
EndSplineSet
EndChar

StartChar: Thorn
Encoding: 222 222 158
Width: 1261
GlyphClass: 2
Flags: W
LayerCount: 2
UndoRedoHistory
Layer: 1
Undoes
EndUndoes
Redoes
EndRedoes
EndUndoRedoHistory
Fore
SplineSet
385 592 m 1,0,-1
 689 592 l 2,1,2
 849 592 849 592 926 659 c 128,-1,3
 1003 726 1003 726 1003 874 c 0,4,5
 1003 962 1003 962 980 1020 c 128,-1,6
 957 1078 957 1078 908 1109 c 128,-1,7
 859 1140 859 1140 796.5 1152 c 128,-1,8
 734 1164 734 1164 642 1164 c 2,9,-1
 385 1164 l 1,10,-1
 385 592 l 1,0,-1
213 0 m 1,11,-1
 213 1456 l 1,12,-1
 385 1456 l 1,13,-1
 385 1312 l 1,14,-1
 600 1312 l 2,15,16
 709 1312 709 1312 793 1301 c 128,-1,17
 877 1290 877 1290 953.5 1260.5 c 128,-1,18
 1030 1231 1030 1231 1079.5 1183 c 128,-1,19
 1129 1135 1129 1135 1158 1057.5 c 128,-1,20
 1187 980 1187 980 1187 876 c 0,21,22
 1187 758 1187 758 1149 673 c 128,-1,23
 1111 588 1111 588 1039 538.5 c 128,-1,24
 967 489 967 489 871.5 466 c 128,-1,25
 776 443 776 443 651 443 c 2,26,-1
 385 443 l 1,27,-1
 385 0 l 1,28,-1
 213 0 l 1,11,-1
EndSplineSet
EndChar

StartChar: germandbls
Encoding: 223 223 159
Width: 1263
GlyphClass: 2
Flags: W
LayerCount: 2
UndoRedoHistory
Layer: 1
Undoes
EndUndoes
Redoes
EndRedoes
EndUndoRedoHistory
Fore
SplineSet
1181 341 m 0,0,1
 1181 255 1181 255 1148 184 c 128,-1,2
 1115 113 1115 113 1060.5 69 c 128,-1,3
 1006 25 1006 25 939 1.5 c 128,-1,4
 872 -22 872 -22 800 -22 c 0,5,6
 606 -22 606 -22 479 138 c 1,7,-1
 544 243 l 1,8,9
 661 109 661 109 796 109 c 0,10,11
 890 109 890 109 957 170.5 c 128,-1,12
 1024 232 1024 232 1024 324 c 0,13,14
 1024 385 1024 385 1003.5 435 c 128,-1,15
 983 485 983 485 952.5 517 c 128,-1,16
 922 549 922 549 873 578.5 c 128,-1,17
 824 608 824 608 782 625.5 c 128,-1,18
 740 643 740 643 681 668.5 c 128,-1,19
 622 694 622 694 585 713 c 0,20,21
 550 731 550 731 537.5 762.5 c 128,-1,22
 525 794 525 794 542 827 c 128,-1,23
 559 860 559 860 604 881 c 0,24,25
 708 929 708 929 763.5 1006.5 c 128,-1,26
 819 1084 819 1084 819 1164 c 128,-1,27
 819 1244 819 1244 764 1297.5 c 128,-1,28
 709 1351 709 1351 611 1351 c 0,29,30
 476 1351 476 1351 410 1255.5 c 128,-1,31
 344 1160 344 1160 345 1007 c 2,32,-1
 349 0 l 1,33,-1
 184 0 l 1,34,-1
 182 1040 l 2,35,36
 182 1251 182 1251 296.5 1365.5 c 128,-1,37
 411 1480 411 1480 612 1480 c 0,38,39
 799 1480 799 1480 897.5 1389.5 c 128,-1,40
 996 1299 996 1299 996 1168 c 0,41,42
 996 1057 996 1057 926 958.5 c 128,-1,43
 856 860 856 860 735 819 c 0,44,45
 667 795 667 795 738 775 c 0,46,47
 840 746 840 746 913.5 713 c 128,-1,48
 987 680 987 680 1051 630 c 128,-1,49
 1115 580 1115 580 1148 507.5 c 128,-1,50
 1181 435 1181 435 1181 341 c 0,0,1
EndSplineSet
EndChar

StartChar: ae
Encoding: 230 230 166
Width: 1716
GlyphClass: 2
Flags: W
LayerCount: 2
UndoRedoHistory
Layer: 1
Undoes
EndUndoes
Redoes
EndRedoes
EndUndoRedoHistory
Fore
SplineSet
919 566 m 1,0,1
 1428 566 1428 566 1428 758 c 0,2,3
 1428 830 1428 830 1380.5 873 c 128,-1,4
 1333 916 1333 916 1248 916 c 0,5,6
 1117 916 1117 916 1023 823 c 128,-1,7
 929 730 929 730 919 566 c 1,0,1
1246 -22 m 0,8,9
 1038 -22 1038 -22 915 117 c 0,10,11
 877 159 877 159 851 212 c 1,12,13
 721 -22 721 -22 451 -22 c 0,14,15
 286 -22 286 -22 188.5 61 c 128,-1,16
 91 144 91 144 91 286 c 0,17,18
 91 353 91 353 113 405.5 c 128,-1,19
 135 458 135 458 164.5 491.5 c 128,-1,20
 194 525 194 525 253 548.5 c 128,-1,21
 312 572 312 572 357 583.5 c 128,-1,22
 402 595 402 595 485 601 c 128,-1,23
 568 607 568 607 615.5 608 c 128,-1,24
 663 609 663 609 756 609 c 0,25,26
 761 609 761 609 765 609 c 128,-1,27
 769 609 769 609 773 609 c 1,28,-1
 773 632 l 2,29,30
 773 774 773 774 706 845 c 128,-1,31
 639 916 639 916 531 916 c 0,32,33
 436 916 436 916 355 891.5 c 128,-1,34
 274 867 274 867 198 798 c 1,35,-1
 130 908 l 1,36,37
 232 989 232 989 328 1020.5 c 128,-1,38
 424 1052 424 1052 541 1052 c 0,39,40
 668 1052 668 1052 762 986 c 0,41,42
 839 932 839 932 874 849 c 1,43,44
 886 870 886 870 900 890 c 0,45,46
 954 966 954 966 1043 1009 c 128,-1,47
 1132 1052 1132 1052 1247 1052 c 0,48,49
 1400 1052 1400 1052 1495.5 967 c 128,-1,50
 1591 882 1591 882 1591 755 c 0,51,52
 1591 667 1591 667 1534.5 604 c 128,-1,53
 1478 541 1478 541 1378.5 507.5 c 128,-1,54
 1279 474 1279 474 1167 459.5 c 128,-1,55
 1055 445 1055 445 921 445 c 1,56,57
 939 287 939 287 1028.5 200.5 c 128,-1,58
 1118 114 1118 114 1257 114 c 0,59,60
 1358 114 1358 114 1428.5 146.5 c 128,-1,61
 1499 179 1499 179 1564 232 c 1,62,-1
 1632 122 l 1,63,64
 1539 47 1539 47 1449.5 12.5 c 128,-1,65
 1360 -22 1360 -22 1246 -22 c 0,8,9
474 114 m 0,66,67
 554 114 554 114 613.5 142.5 c 128,-1,68
 673 171 673 171 707.5 223 c 128,-1,69
 742 275 742 275 758.5 342 c 128,-1,70
 775 409 775 409 775 493 c 1,71,-1
 637 490 l 2,72,73
 584 489 584 489 544.5 485.5 c 128,-1,74
 505 482 505 482 458 475 c 128,-1,75
 411 468 411 468 378.5 454 c 128,-1,76
 346 440 346 440 317.5 419.5 c 128,-1,77
 289 399 289 399 274.5 367 c 128,-1,78
 260 335 260 335 260 294 c 0,79,80
 260 202 260 202 317 158 c 128,-1,81
 374 114 374 114 474 114 c 0,66,67
EndSplineSet
EndChar

StartChar: eth
Encoding: 240 240 176
Width: 1173
GlyphClass: 2
Flags: W
LayerCount: 2
UndoRedoHistory
Layer: 1
Undoes
EndUndoes
Redoes
EndRedoes
EndUndoRedoHistory
Fore
SplineSet
582 118 m 0,0,1
 660 118 660 118 720 151 c 128,-1,2
 780 184 780 184 816 242.5 c 128,-1,3
 852 301 852 301 869.5 375 c 128,-1,4
 887 449 887 449 887 536 c 1,5,6
 853 641 853 641 775 708 c 128,-1,7
 697 775 697 775 582 775 c 0,8,9
 440 775 440 775 357 683 c 128,-1,10
 274 591 274 591 274 441 c 0,11,12
 274 293 274 293 361 205.5 c 128,-1,13
 448 118 448 118 582 118 c 0,0,1
589 -22 m 0,14,15
 479 -22 479 -22 386 14.5 c 128,-1,16
 293 51 293 51 230.5 114.5 c 128,-1,17
 168 178 168 178 133 263.5 c 128,-1,18
 98 349 98 349 98 446 c 0,19,20
 98 660 98 660 228 787.5 c 128,-1,21
 358 915 358 915 556 915 c 0,22,23
 787 915 787 915 902 723 c 1,24,-1
 902 733 l 2,25,26
 902 817 902 817 881 895 c 128,-1,27
 860 973 860 973 826 1033 c 128,-1,28
 792 1093 792 1093 746 1146 c 0,29,30
 730 1164 730 1164 714 1181 c 1,31,-1
 529 1061 l 1,32,-1
 467 1156 l 1,33,-1
 626 1258 l 1,34,35
 591 1284 591 1284 555 1306 c 0,36,37
 505 1336 505 1336 465 1354.5 c 128,-1,38
 425 1373 425 1373 392 1383 c 1,39,-1
 467 1490 l 1,40,41
 543 1466 543 1466 615 1428 c 0,42,43
 678 1395 678 1395 749 1338 c 1,44,-1
 933 1456 l 1,45,-1
 994 1361 l 1,46,-1
 837 1259 l 1,47,48
 880 1215 880 1215 916 1166 c 0,49,50
 978 1080 978 1080 1023 951.5 c 128,-1,51
 1068 823 1068 823 1077 672 c 0,52,53
 1089 468 1089 468 1037 312.5 c 128,-1,54
 985 157 985 157 869.5 67.5 c 128,-1,55
 754 -22 754 -22 589 -22 c 0,14,15
EndSplineSet
EndChar

StartChar: divide
Encoding: 247 247 183
Width: 1445
GlyphClass: 2
Flags: W
LayerCount: 2
UndoRedoHistory
Layer: 1
Undoes
EndUndoes
Redoes
EndRedoes
EndUndoRedoHistory
Fore
SplineSet
622 80 m 1,0,-1
 622 290 l 1,1,-1
 830 290 l 1,2,-1
 830 80 l 1,3,-1
 622 80 l 1,0,-1
208 527 m 1,4,-1
 208 666 l 1,5,-1
 1234 666 l 1,6,-1
 1234 527 l 1,7,-1
 208 527 l 1,4,-1
622 896 m 1,8,-1
 622 1106 l 1,9,-1
 830 1106 l 1,10,-1
 830 896 l 1,11,-1
 622 896 l 1,8,-1
EndSplineSet
EndChar

StartChar: oslash
Encoding: 248 248 184
Width: 1216
GlyphClass: 2
Flags: W
LayerCount: 2
UndoRedoHistory
Layer: 1
Undoes
EndUndoes
Redoes
EndRedoes
EndUndoRedoHistory
Fore
SplineSet
613 114 m 0,0,1
 758 114 758 114 845.5 225 c 128,-1,2
 933 336 933 336 933 515 c 0,3,4
 934 696 934 696 846 806 c 0,5,6
 828 829 828 829 806 847 c 1,7,-1
 512 129 l 1,8,9
 559 114 559 114 613 114 c 0,0,1
353 -261 m 1,10,-1
 257 -229 l 1,11,-1
 365 37 l 1,12,13
 303 71 303 71 252 125 c 0,14,15
 112 272 112 272 112 511 c 0,16,17
 112 751 112 751 252 901.5 c 128,-1,18
 392 1052 392 1052 612 1052 c 0,19,20
 696 1052 696 1052 768 1029 c 1,21,-1
 869 1277 l 1,22,-1
 969 1245 l 1,23,-1
 863 987 l 1,24,25
 918 952 918 952 966 902 c 0,26,27
 1104 752 1104 752 1104 513 c 0,28,29
 1104 274 1104 274 967 126 c 128,-1,30
 830 -22 830 -22 613 -22 c 0,31,32
 530 -22 530 -22 459 -1 c 1,33,-1
 353 -261 l 1,10,-1
716 900 m 1,34,35
 668 916 668 916 612 916 c 0,36,37
 463 916 463 916 372.5 805 c 128,-1,38
 282 694 282 694 282 513 c 0,39,40
 282 334 282 334 373 224 c 0,41,42
 396 197 396 197 422 176 c 1,43,-1
 716 900 l 1,34,35
EndSplineSet
EndChar

StartChar: thorn
Encoding: 254 254 190
Width: 1223
GlyphClass: 2
Flags: W
LayerCount: 2
UndoRedoHistory
Layer: 1
Undoes
EndUndoes
Redoes
EndRedoes
EndUndoRedoHistory
Fore
SplineSet
641 109 m 0,0,1
 720 109 720 109 780 141.5 c 128,-1,2
 840 174 840 174 876 231 c 128,-1,3
 912 288 912 288 929.5 361 c 128,-1,4
 947 434 947 434 947 521 c 128,-1,5
 947 608 947 608 930 678 c 128,-1,6
 913 748 913 748 878 802 c 128,-1,7
 843 856 843 856 784.5 886 c 128,-1,8
 726 916 726 916 647 916 c 0,9,10
 564 916 564 916 502 884 c 128,-1,11
 440 852 440 852 404 793.5 c 128,-1,12
 368 735 368 735 350.5 660.5 c 128,-1,13
 333 586 333 586 333 494 c 0,14,15
 333 318 333 318 414 213.5 c 128,-1,16
 495 109 495 109 641 109 c 0,0,1
168 -508 m 1,17,-1
 168 1456 l 1,18,-1
 335 1456 l 1,19,-1
 335 882 l 1,20,21
 456 1052 456 1052 664 1052 c 0,22,23
 778 1052 778 1052 867.5 1009.5 c 128,-1,24
 957 967 957 967 1012 894 c 128,-1,25
 1067 821 1067 821 1095 727.5 c 128,-1,26
 1123 634 1123 634 1123 527 c 0,27,28
 1123 277 1123 277 1000.5 127.5 c 128,-1,29
 878 -22 878 -22 664 -22 c 0,30,31
 457 -22 457 -22 333 135 c 1,32,-1
 333 -508 l 1,33,-1
 168 -508 l 1,17,-1
EndSplineSet
EndChar

StartChar: gcommaaccent
Encoding: 291 291 225
Width: 1129
GlyphClass: 2
Flags: W
LayerCount: 2
UndoRedoHistory
Layer: 1
Undoes
EndUndoes
Redoes
EndRedoes
EndUndoRedoHistory
Fore
SplineSet
426 1162 m 1,0,-1
 583 1625 l 1,1,-1
 709 1625 l 1,2,-1
 606 1162 l 1,3,-1
 426 1162 l 1,0,-1
530 116 m 0,4,5
 670 116 670 116 757.5 211.5 c 128,-1,6
 845 307 845 307 845 453 c 2,7,-1
 845 872 l 1,8,9
 778 907 778 907 657 907 c 0,10,11
 483 907 483 907 376.5 780.5 c 128,-1,12
 270 654 270 654 270 448 c 0,13,14
 270 299 270 299 341.5 207.5 c 128,-1,15
 413 116 413 116 530 116 c 0,4,5
524 -494 m 0,16,17
 364 -494 364 -494 199 -433 c 1,18,-1
 218 -280 l 1,19,20
 285 -314 285 -314 366 -335.5 c 128,-1,21
 447 -357 447 -357 511 -357 c 0,22,23
 662 -357 662 -357 753.5 -271 c 128,-1,24
 845 -185 845 -185 845 -44 c 2,25,-1
 845 133 l 1,26,27
 791 62 791 62 699.5 20 c 128,-1,28
 608 -22 608 -22 506 -22 c 0,29,30
 325 -22 325 -22 212.5 105 c 128,-1,31
 100 232 100 232 100 438 c 0,32,33
 100 712 100 712 255 880 c 128,-1,34
 410 1048 410 1048 660 1048 c 0,35,36
 757 1048 757 1048 853 1024.5 c 128,-1,37
 949 1001 949 1001 1009 962 c 1,38,-1
 1009 -23 l 2,39,40
 1009 -234 1009 -234 874.5 -364 c 128,-1,41
 740 -494 740 -494 524 -494 c 0,16,17
EndSplineSet
EndChar

StartChar: hbar
Encoding: 295 295 228
Width: 1233
GlyphClass: 2
Flags: W
LayerCount: 2
UndoRedoHistory
Layer: 1
Undoes
EndUndoes
Redoes
EndRedoes
EndUndoRedoHistory
Fore
SplineSet
1164 -20 m 1,0,-1
 1151 -20 l 2,1,2
 996 -20 996 -20 929 54 c 128,-1,3
 862 128 862 128 862 294 c 2,4,-1
 862 563 l 2,5,6
 862 746 862 746 815 826 c 128,-1,7
 768 906 768 906 656 916 c 0,8,9
 600 921 600 921 542.5 901 c 128,-1,10
 485 881 485 881 435.5 839.5 c 128,-1,11
 386 798 386 798 355 726 c 128,-1,12
 324 654 324 654 324 565 c 2,13,-1
 324 0 l 1,14,-1
 160 0 l 1,15,-1
 160 1207 l 1,16,-1
 55 1207 l 1,17,-1
 55 1341 l 1,18,-1
 160 1341 l 1,19,-1
 160 1500 l 1,20,-1
 324 1500 l 1,21,-1
 324 1341 l 1,22,-1
 606 1341 l 1,23,-1
 606 1207 l 1,24,-1
 324 1207 l 1,25,-1
 324 867 l 1,26,27
 374 955 374 955 470.5 1005.5 c 128,-1,28
 567 1056 567 1056 677 1052 c 0,29,30
 848 1046 848 1046 937 930.5 c 128,-1,31
 1026 815 1026 815 1026 569 c 2,32,-1
 1026 320 l 2,33,34
 1026 207 1026 207 1055.5 158.5 c 128,-1,35
 1085 110 1085 110 1161 110 c 2,36,-1
 1185 110 l 1,37,-1
 1164 -20 l 1,0,-1
EndSplineSet
EndChar

StartChar: dotlessi
Encoding: 305 305 238
Width: 633
GlyphClass: 2
Flags: W
AnchorPoint: "Anchor-2" 272 1023 basechar 0
LayerCount: 2
UndoRedoHistory
Layer: 1
Undoes
EndUndoes
Redoes
EndRedoes
EndUndoRedoHistory
Fore
SplineSet
659 26 m 1,0,1
 570 -10 570 -10 488 -16 c 128,-1,2
 406 -22 406 -22 339.5 2.5 c 128,-1,3
 273 27 273 27 233 93.5 c 128,-1,4
 193 160 193 160 193 262 c 2,5,-1
 193 1026 l 1,6,-1
 357 1026 l 1,7,-1
 357 267 l 2,8,9
 357 198 357 198 380.5 160 c 128,-1,10
 404 122 404 122 447 115.5 c 128,-1,11
 490 109 490 109 534 116.5 c 128,-1,12
 578 124 578 124 636 145 c 1,13,-1
 659 26 l 1,0,1
EndSplineSet
EndChar

StartChar: kgreenlandic
Encoding: 312 312 245
Width: 1071
GlyphClass: 2
Flags: W
LayerCount: 2
UndoRedoHistory
Layer: 1
Undoes
EndUndoes
Redoes
EndRedoes
EndUndoRedoHistory
Fore
SplineSet
188 0 m 1,0,-1
 188 1026 l 1,1,-1
 353 1026 l 1,2,-1
 353 557 l 1,3,-1
 800 1026 l 1,4,-1
 1024 1026 l 1,5,-1
 508 512 l 1,6,7
 692 337 692 337 1062 0 c 1,8,-1
 843 0 l 1,9,-1
 353 471 l 1,10,-1
 353 0 l 1,11,-1
 188 0 l 1,0,-1
EndSplineSet
EndChar

StartChar: Lslash
Encoding: 321 321 254
Width: 1076
GlyphClass: 2
Flags: W
LayerCount: 2
UndoRedoHistory
Layer: 1
Undoes
EndUndoes
Redoes
EndRedoes
EndUndoRedoHistory
Fore
SplineSet
200 738 m 1,0,-1
 200 1456 l 1,1,-1
 372 1456 l 1,2,-1
 372 848 l 1,3,-1
 653 1027 l 1,4,-1
 653 890 l 1,5,-1
 372 711 l 1,6,-1
 372 138 l 1,7,-1
 1053 138 l 1,8,-1
 1053 0 l 1,9,-1
 200 0 l 1,10,-1
 200 601 l 1,11,-1
 25 489 l 1,12,-1
 25 626 l 1,13,-1
 200 738 l 1,0,-1
EndSplineSet
EndChar

StartChar: lslash
Encoding: 322 322 255
Width: 513
GlyphClass: 2
Flags: W
LayerCount: 2
UndoRedoHistory
Layer: 1
Undoes
EndUndoes
Redoes
EndRedoes
EndUndoRedoHistory
Fore
SplineSet
178 0 m 1,0,-1
 178 689 l 1,1,-1
 10 589 l 1,2,-1
 10 726 l 1,3,-1
 178 826 l 1,4,-1
 178 1492 l 1,5,-1
 343 1492 l 1,6,-1
 343 925 l 1,7,-1
 514 1027 l 1,8,-1
 514 890 l 1,9,-1
 343 788 l 1,10,-1
 343 0 l 1,11,-1
 178 0 l 1,0,-1
EndSplineSet
EndChar

StartChar: OE
Encoding: 338 338 268
Width: 1998
GlyphClass: 2
Flags: W
LayerCount: 2
UndoRedoHistory
Layer: 1
Undoes
EndUndoes
Redoes
EndRedoes
EndUndoRedoHistory
Fore
SplineSet
1007 1456 m 1,0,-1
 1854 1456 l 1,1,-1
 1854 1318 l 1,2,-1
 1179 1318 l 1,3,-1
 1179 820 l 1,4,-1
 1816 820 l 1,5,-1
 1816 672 l 1,6,-1
 1179 672 l 1,7,-1
 1179 138 l 1,8,-1
 1904 138 l 1,9,-1
 1904 0 l 1,10,-1
 1007 0 l 1,11,12
 918 -24 918 -24 813 -24 c 0,13,14
 680 -24 680 -24 566 16.5 c 128,-1,15
 452 57 452 57 370.5 128 c 128,-1,16
 289 199 289 199 231 294 c 128,-1,17
 173 389 173 389 144.5 499.5 c 128,-1,18
 116 610 116 610 116 728 c 0,19,20
 116 878 116 878 162 1012 c 128,-1,21
 208 1146 208 1146 293 1251 c 128,-1,22
 378 1356 378 1356 513 1418 c 128,-1,23
 648 1480 648 1480 813 1480 c 0,24,25
 918 1480 918 1480 1007 1456 c 1,0,-1
1007 165 m 1,26,-1
 1007 1292 l 1,27,28
 914 1330 914 1330 813 1330 c 0,29,30
 711 1330 711 1330 620 1291.5 c 128,-1,31
 529 1253 529 1253 457 1180 c 128,-1,32
 385 1107 385 1107 342.5 990.5 c 128,-1,33
 300 874 300 874 300 729 c 128,-1,34
 300 584 300 584 342.5 467 c 128,-1,35
 385 350 385 350 457 277 c 128,-1,36
 529 204 529 204 620 165 c 128,-1,37
 711 126 711 126 813 126 c 0,38,39
 916 126 916 126 1007 165 c 1,26,-1
EndSplineSet
EndChar

StartChar: oe
Encoding: 339 339 269
Width: 1903
GlyphClass: 2
Flags: W
LayerCount: 2
UndoRedoHistory
Layer: 1
Undoes
EndUndoes
Redoes
EndRedoes
EndUndoRedoHistory
Fore
SplineSet
613 114 m 0,0,1
 758 114 758 114 845.5 225 c 128,-1,2
 933 336 933 336 933 515 c 0,3,4
 933 696 933 696 845.5 806 c 128,-1,5
 758 916 758 916 612 916 c 0,6,7
 463 916 463 916 372.5 805 c 128,-1,8
 282 694 282 694 282 513 c 0,9,10
 282 335 282 335 373 224.5 c 128,-1,11
 464 114 464 114 613 114 c 0,0,1
1106 566 m 1,12,13
 1615 566 1615 566 1615 758 c 0,14,15
 1615 830 1615 830 1567.5 873 c 128,-1,16
 1520 916 1520 916 1435 916 c 0,17,18
 1304 916 1304 916 1210 823 c 128,-1,19
 1116 730 1116 730 1106 566 c 1,12,13
1433 -22 m 0,20,21
 1303 -22 1303 -22 1194 41 c 128,-1,22
 1085 104 1085 104 1018 222 c 1,23,24
 953 105 953 105 848.5 41.5 c 128,-1,25
 744 -22 744 -22 613 -22 c 0,26,27
 392 -22 392 -22 252 125 c 128,-1,28
 112 272 112 272 112 511 c 0,29,30
 112 751 112 751 252 901.5 c 128,-1,31
 392 1052 392 1052 612 1052 c 0,32,33
 744 1052 744 1052 850 986 c 128,-1,34
 956 920 956 920 1021 801 c 1,35,36
 1085 919 1085 919 1190.5 985.5 c 128,-1,37
 1296 1052 1296 1052 1434 1052 c 0,38,39
 1587 1052 1587 1052 1682.5 967 c 128,-1,40
 1778 882 1778 882 1778 755 c 0,41,42
 1778 667 1778 667 1721.5 604 c 128,-1,43
 1665 541 1665 541 1565.5 507.5 c 128,-1,44
 1466 474 1466 474 1354 459.5 c 128,-1,45
 1242 445 1242 445 1108 445 c 1,46,47
 1126 287 1126 287 1215.5 200.5 c 128,-1,48
 1305 114 1305 114 1444 114 c 0,49,50
 1545 114 1545 114 1615.5 146.5 c 128,-1,51
 1686 179 1686 179 1751 232 c 1,52,-1
 1819 122 l 1,53,54
 1726 47 1726 47 1636.5 12.5 c 128,-1,55
 1547 -22 1547 -22 1433 -22 c 0,20,21
EndSplineSet
EndChar

StartChar: florin
Encoding: 402 402 311
Width: 1088
GlyphClass: 2
Flags: W
LayerCount: 2
UndoRedoHistory
Layer: 1
Undoes
EndUndoes
Redoes
EndRedoes
EndUndoRedoHistory
Fore
SplineSet
176 -242 m 0,0,1
 127 -242 127 -242 72 -226 c 1,2,-1
 84 -88 l 1,3,4
 123 -104 123 -104 162 -104 c 0,5,6
 295 -104 295 -104 332 97 c 2,7,-1
 480 906 l 1,8,-1
 321 906 l 1,9,-1
 339 1026 l 1,10,-1
 501 1026 l 1,11,-1
 534 1201 l 2,12,13
 549 1281 549 1281 568 1334 c 128,-1,14
 587 1387 587 1387 621 1434 c 128,-1,15
 655 1481 655 1481 710.5 1503.5 c 128,-1,16
 766 1526 766 1526 845 1526 c 0,17,18
 912 1526 912 1526 988 1507 c 1,19,-1
 980 1362 l 1,20,21
 924 1384 924 1384 871 1384 c 0,22,23
 789 1384 789 1384 751.5 1345.5 c 128,-1,24
 714 1307 714 1307 700 1229 c 2,25,-1
 665 1026 l 1,26,-1
 862 1026 l 1,27,-1
 844 906 l 1,28,-1
 645 906 l 1,29,-1
 522 210 l 2,30,31
 507 128 507 128 494 73.5 c 128,-1,32
 481 19 481 19 454 -46 c 128,-1,33
 427 -111 427 -111 393 -150 c 128,-1,34
 359 -189 359 -189 303.5 -215.5 c 128,-1,35
 248 -242 248 -242 176 -242 c 0,0,1
EndSplineSet
EndChar

StartChar: dotlessj
Encoding: 567 567 340
Width: 558
GlyphClass: 2
Flags: W
AnchorPoint: "Anchor-2" 299 1152 basechar 0
LayerCount: 2
UndoRedoHistory
Layer: 1
Undoes
EndUndoes
Redoes
EndRedoes
EndUndoRedoHistory
Fore
SplineSet
101 -464 m 0,0,1
 27 -464 27 -464 -50 -443 c 1,2,-1
 -35 -311 l 1,3,4
 20 -329 20 -329 78 -329 c 0,5,6
 160 -329 160 -329 188 -276 c 128,-1,7
 216 -223 216 -223 216 -76 c 2,8,-1
 216 1026 l 1,9,-1
 381 1026 l 1,10,-1
 381 -84 l 2,11,12
 381 -290 381 -290 316.5 -377 c 128,-1,13
 252 -464 252 -464 101 -464 c 0,0,1
EndSplineSet
EndChar

StartChar: circumflex
Encoding: 710 710 341
Width: 709
GlyphClass: 2
Flags: W
LayerCount: 2
UndoRedoHistory
Layer: 1
Undoes
EndUndoes
Redoes
EndRedoes
EndUndoRedoHistory
Fore
SplineSet
273 1456 m 1,0,-1
 430 1456 l 1,1,-1
 659 1132 l 1,2,-1
 527 1132 l 1,3,-1
 349 1348 l 1,4,-1
 171 1132 l 1,5,-1
 45 1132 l 1,6,-1
 273 1456 l 1,0,-1
EndSplineSet
EndChar

StartChar: caron
Encoding: 711 711 342
Width: 709
GlyphClass: 2
Flags: W
LayerCount: 2
UndoRedoHistory
Layer: 1
Undoes
EndUndoes
Redoes
EndRedoes
EndUndoRedoHistory
Fore
SplineSet
278 1133 m 1,0,-1
 39 1456 l 1,1,-1
 186 1456 l 1,2,-1
 350 1241 l 1,3,-1
 518 1456 l 1,4,-1
 672 1456 l 1,5,-1
 434 1133 l 1,6,-1
 278 1133 l 1,0,-1
EndSplineSet
EndChar

StartChar: breve
Encoding: 728 728 343
Width: 639
GlyphClass: 2
Flags: W
AnchorPoint: "Anchor-2" 327 1046 mark 0
LayerCount: 2
UndoRedoHistory
Layer: 1
Undoes
EndUndoes
Redoes
EndRedoes
EndUndoRedoHistory
Fore
SplineSet
323 1221 m 0,0,1
 231 1221 231 1221 161 1282.5 c 128,-1,2
 91 1344 91 1344 82 1456 c 1,3,-1
 169 1456 l 1,4,5
 180 1394 180 1394 222 1360.5 c 128,-1,6
 264 1327 264 1327 318 1327 c 0,7,8
 374 1327 374 1327 420 1361 c 128,-1,9
 466 1395 466 1395 480 1456 c 1,10,-1
 566 1456 l 1,11,12
 557 1344 557 1344 486.5 1282.5 c 128,-1,13
 416 1221 416 1221 323 1221 c 0,0,1
EndSplineSet
EndChar

StartChar: dotaccent
Encoding: 729 729 344
Width: 534
GlyphClass: 2
Flags: W
AnchorPoint: "Anchor-2" 315 1030 mark 0
LayerCount: 2
UndoRedoHistory
Layer: 1
Undoes
EndUndoes
Redoes
EndRedoes
EndUndoRedoHistory
Fore
SplineSet
194 1293 m 1,0,-1
 194 1456 l 1,1,-1
 354 1456 l 1,2,-1
 354 1293 l 1,3,-1
 194 1293 l 1,0,-1
EndSplineSet
EndChar

StartChar: ring
Encoding: 730 730 345
Width: 616
GlyphClass: 2
Flags: W
AnchorPoint: "Anchor-2" 316 1152 mark 0
LayerCount: 2
UndoRedoHistory
Layer: 1
Undoes
EndUndoes
Redoes
EndRedoes
EndUndoRedoHistory
Fore
SplineSet
308 1195 m 0,0,1
 350 1195 350 1195 379.5 1226 c 128,-1,2
 409 1257 409 1257 409 1301 c 0,3,4
 409 1344 409 1344 379.5 1375 c 128,-1,5
 350 1406 350 1406 308 1406 c 0,6,7
 265 1406 265 1406 236 1375 c 128,-1,8
 207 1344 207 1344 207 1301 c 0,9,10
 207 1257 207 1257 236 1226 c 128,-1,11
 265 1195 265 1195 308 1195 c 0,0,1
308 1480 m 0,12,13
 388 1480 388 1480 443 1428.5 c 128,-1,14
 498 1377 498 1377 498 1300 c 0,15,16
 498 1222 498 1222 443 1171 c 128,-1,17
 388 1120 388 1120 308 1120 c 0,18,19
 229 1120 229 1120 173.5 1171 c 128,-1,20
 118 1222 118 1222 118 1300 c 0,21,22
 118 1377 118 1377 173.5 1428.5 c 128,-1,23
 229 1480 229 1480 308 1480 c 0,12,13
EndSplineSet
EndChar

StartChar: ogonek
Encoding: 731 731 346
Width: 518
GlyphClass: 2
Flags: W
AnchorPoint: "Anchor-0" 308 0 mark 0
LayerCount: 2
UndoRedoHistory
Layer: 1
Undoes
EndUndoes
Redoes
EndRedoes
EndUndoRedoHistory
Fore
SplineSet
276 -390 m 0,0,1
 178 -390 178 -390 118 -347.5 c 128,-1,2
 58 -305 58 -305 58 -225 c 0,3,4
 58 -188 58 -188 71.5 -155.5 c 128,-1,5
 85 -123 85 -123 104 -100 c 128,-1,6
 123 -77 123 -77 155 -54.5 c 128,-1,7
 187 -32 187 -32 212 -18.5 c 128,-1,8
 237 -5 237 -5 273 12 c 1,9,-1
 402 0 l 1,10,11
 293 -66 293 -66 257 -98 c 0,12,13
 199 -150 199 -150 199 -199 c 0,14,15
 199 -236 199 -236 229 -258.5 c 128,-1,16
 259 -281 259 -281 299 -281 c 0,17,18
 374 -281 374 -281 453 -250 c 1,19,-1
 453 -361 l 1,20,21
 383 -390 383 -390 276 -390 c 0,0,1
EndSplineSet
EndChar

StartChar: tilde
Encoding: 732 732 347
Width: 673
GlyphClass: 2
Flags: W
AnchorPoint: "Anchor-2" 339 1152 mark 0
LayerCount: 2
UndoRedoHistory
Layer: 1
Undoes
EndUndoes
Redoes
EndRedoes
EndUndoRedoHistory
Fore
SplineSet
443 1264 m 0,0,1
 409 1264 409 1264 376 1278 c 128,-1,2
 343 1292 343 1292 321.5 1309 c 128,-1,3
 300 1326 300 1326 272.5 1340.5 c 128,-1,4
 245 1355 245 1355 220 1355 c 0,5,6
 189 1355 189 1355 177 1332.5 c 128,-1,7
 165 1310 165 1310 159 1263 c 1,8,-1
 54 1263 l 1,9,10
 62 1356 62 1356 113.5 1417.5 c 128,-1,11
 165 1479 165 1479 253 1479 c 0,12,13
 283 1479 283 1479 311.5 1469.5 c 128,-1,14
 340 1460 340 1460 361.5 1447 c 128,-1,15
 383 1434 383 1434 401.5 1420.5 c 128,-1,16
 420 1407 420 1407 438 1398 c 128,-1,17
 456 1389 456 1389 470 1389 c 0,18,19
 483 1389 483 1389 493 1394.5 c 128,-1,20
 503 1400 503 1400 509 1408 c 128,-1,21
 515 1416 515 1416 519.5 1431 c 128,-1,22
 524 1446 524 1446 525.5 1456 c 128,-1,23
 527 1466 527 1466 530 1485 c 1,24,-1
 638 1485 l 1,25,26
 627 1391 627 1391 578.5 1327.5 c 128,-1,27
 530 1264 530 1264 443 1264 c 0,0,1
EndSplineSet
EndChar

StartChar: hungarumlaut
Encoding: 733 733 348
Width: 972
GlyphClass: 2
Flags: W
AnchorPoint: "Anchor-2" 316 1152 mark 0
LayerCount: 2
UndoRedoHistory
Layer: 1
Undoes
EndUndoes
Redoes
EndRedoes
EndUndoRedoHistory
Fore
SplineSet
438 1143 m 1,0,-1
 652 1456 l 1,1,-1
 828 1456 l 1,2,-1
 553 1143 l 1,3,-1
 438 1143 l 1,0,-1
172 1143 m 1,4,-1
 389 1456 l 1,5,-1
 559 1456 l 1,6,-1
 290 1143 l 1,7,-1
 172 1143 l 1,4,-1
EndSplineSet
EndChar

StartChar: dotaccentcmb
Encoding: 775 775 352
Width: 534
GlyphClass: 2
Flags: W
AnchorPoint: "Anchor-2" 315 1030 mark 0
LayerCount: 2
UndoRedoHistory
Layer: 1
Undoes
EndUndoes
Redoes
EndRedoes
EndUndoRedoHistory
Fore
SplineSet
194 1246 m 1,0,-1
 194 1409 l 1,1,-1
 354 1409 l 1,2,-1
 354 1246 l 1,3,-1
 194 1246 l 1,0,-1
EndSplineSet
EndChar

StartChar: dblgravecmb
Encoding: 783 783 354
Width: 4
GlyphClass: 2
Flags: W
AnchorPoint: "Anchor-2" 186 1048 mark 0
LayerCount: 2
UndoRedoHistory
Layer: 1
Undoes
EndUndoes
Redoes
EndRedoes
EndUndoRedoHistory
Fore
SplineSet
241 1143 m 1,0,-1
 -28 1456 l 1,1,-1
 142 1456 l 1,2,-1
 359 1143 l 1,3,-1
 241 1143 l 1,0,-1
-22 1143 m 1,4,-1
 -297 1456 l 1,5,-1
 -121 1456 l 1,6,-1
 93 1143 l 1,7,-1
 -22 1143 l 1,4,-1
EndSplineSet
EndChar

StartChar: uni0311
Encoding: 785 785 355
Width: 639
GlyphClass: 2
Flags: W
AnchorPoint: "Anchor-2" 318 1152 mark 0
LayerCount: 2
UndoRedoHistory
Layer: 1
Undoes
EndUndoes
Redoes
EndRedoes
EndUndoRedoHistory
Fore
SplineSet
42 1218 m 1,0,1
 61 1454 61 1454 326 1454 c 0,2,3
 451 1454 451 1454 523.5 1393.5 c 128,-1,4
 596 1333 596 1333 606 1218 c 1,5,-1
 520 1218 l 1,6,7
 505 1280 505 1280 451 1313.5 c 128,-1,8
 397 1347 397 1347 319 1347 c 0,9,10
 240 1347 240 1347 190 1314.5 c 128,-1,11
 140 1282 140 1282 129 1218 c 1,12,-1
 42 1218 l 1,0,1
EndSplineSet
EndChar

StartChar: uni0326
Encoding: 806 806 356
Width: 10
GlyphClass: 2
Flags: W
LayerCount: 2
UndoRedoHistory
Layer: 1
Undoes
EndUndoes
Redoes
EndRedoes
EndUndoRedoHistory
Fore
SplineSet
-183 -463 m 1,0,-1
 -76 0 l 1,1,-1
 111 0 l 1,2,-1
 -52 -463 l 1,3,-1
 -183 -463 l 1,0,-1
EndSplineSet
EndChar

StartChar: Delta
Encoding: 916 916 357
Width: 1294
GlyphClass: 2
Flags: W
LayerCount: 2
UndoRedoHistory
Layer: 1
Undoes
EndUndoes
Redoes
EndRedoes
EndUndoRedoHistory
Fore
SplineSet
245 135 m 1,0,-1
 1050 135 l 1,1,-1
 675 1187 l 1,2,-1
 643 1294 l 1,3,-1
 612 1187 l 1,4,-1
 245 135 l 1,0,-1
50 0 m 1,5,-1
 50 80 l 1,6,-1
 560 1456 l 1,7,-1
 735 1456 l 1,8,-1
 1244 80 l 1,9,-1
 1244 0 l 1,10,-1
 50 0 l 1,5,-1
EndSplineSet
EndChar

StartChar: uni03A9
Encoding: 937 937 358
Width: 1572
GlyphClass: 2
Flags: W
LayerCount: 2
UndoRedoHistory
Layer: 1
Undoes
EndUndoes
Redoes
EndRedoes
EndUndoRedoHistory
Fore
SplineSet
114 0 m 1,0,-1
 103 138 l 1,1,-1
 439 137 l 1,2,3
 300 243 300 243 212 422.5 c 128,-1,4
 124 602 124 602 124 807 c 0,5,6
 124 1126 124 1126 304 1303 c 128,-1,7
 484 1480 484 1480 798 1480 c 0,8,9
 1107 1480 1107 1480 1279 1299.5 c 128,-1,10
 1451 1119 1451 1119 1451 803 c 0,11,12
 1451 590 1451 590 1361 421 c 128,-1,13
 1271 252 1271 252 1131 137 c 1,14,-1
 1453 138 l 1,15,-1
 1444 0 l 1,16,-1
 937 0 l 1,17,-1
 933 121 l 1,18,19
 1081 224 1081 224 1177 404 c 128,-1,20
 1273 584 1273 584 1273 785 c 0,21,22
 1273 1041 1273 1041 1146 1185.5 c 128,-1,23
 1019 1330 1019 1330 794 1330 c 0,24,25
 675 1330 675 1330 580.5 1288.5 c 128,-1,26
 486 1247 486 1247 426 1173.5 c 128,-1,27
 366 1100 366 1100 334.5 1002.5 c 128,-1,28
 303 905 303 905 303 790 c 0,29,30
 303 567 303 567 396.5 394.5 c 128,-1,31
 490 222 490 222 638 121 c 1,32,-1
 641 0 l 1,33,-1
 114 0 l 1,0,-1
EndSplineSet
EndChar

StartChar: uni03BC
Encoding: 956 956 359
Width: 1239
GlyphClass: 2
Flags: W
LayerCount: 2
UndoRedoHistory
Layer: 1
Undoes
EndUndoes
Redoes
EndRedoes
EndUndoRedoHistory
Fore
SplineSet
541 -22 m 0,0,1
 425 -22 425 -22 342 26 c 1,2,-1
 342 -202 l 1,3,-1
 187 -202 l 1,4,-1
 185 582 l 1,5,6
 188 671 188 671 182.5 747 c 128,-1,7
 177 823 177 823 168 867.5 c 128,-1,8
 159 912 159 912 149.5 944 c 128,-1,9
 140 976 140 976 133 988 c 2,10,-1
 126 1000 l 1,11,-1
 291 1026 l 1,12,13
 294 1023 294 1023 298.5 1015 c 128,-1,14
 303 1007 303 1007 314 973.5 c 128,-1,15
 325 940 325 940 333.5 896.5 c 128,-1,16
 342 853 342 853 347.5 772.5 c 128,-1,17
 353 692 353 692 350 595 c 2,18,-1
 344 365 l 2,19,20
 338 114 338 114 561 114 c 0,21,22
 688 114 688 114 775 216 c 128,-1,23
 862 318 862 318 862 482 c 2,24,-1
 862 1026 l 1,25,-1
 1026 1026 l 1,26,-1
 1026 328 l 2,27,28
 1026 211 1026 211 1053.5 166 c 128,-1,29
 1081 121 1081 121 1171 121 c 1,30,-1
 1142 -14 l 1,31,32
 1034 -14 1034 -14 968.5 27 c 128,-1,33
 903 68 903 68 881 161 c 1,34,35
 770 -22 770 -22 541 -22 c 0,0,1
EndSplineSet
EndChar

StartChar: pi
Encoding: 960 960 360
Width: 1278
GlyphClass: 2
Flags: W
LayerCount: 2
UndoRedoHistory
Layer: 1
Undoes
EndUndoes
Redoes
EndRedoes
EndUndoRedoHistory
Fore
SplineSet
1052 -22 m 0,0,1
 989 -22 989 -22 946.5 -2.5 c 128,-1,2
 904 17 904 17 881.5 56.5 c 128,-1,3
 859 96 859 96 850.5 145.5 c 128,-1,4
 842 195 842 195 842 265 c 2,5,-1
 842 893 l 1,6,-1
 527 893 l 1,7,8
 527 682 527 682 472.5 400 c 128,-1,9
 418 118 418 118 351 0 c 1,10,-1
 170 0 l 1,11,12
 257 153 257 153 316 426.5 c 128,-1,13
 375 700 375 700 375 893 c 1,14,15
 302 893 302 893 229 863.5 c 128,-1,16
 156 834 156 834 107 782 c 1,17,-1
 77 933 l 1,18,19
 199 1026 199 1026 420 1026 c 2,20,-1
 1205 1026 l 1,21,-1
 1205 893 l 1,22,-1
 1001 893 l 1,23,-1
 1001 242 l 2,24,25
 1001 172 1001 172 1021 136.5 c 128,-1,26
 1041 101 1041 101 1099 101 c 0,27,28
 1137 101 1137 101 1179 114 c 1,29,-1
 1189 -8 l 1,30,31
 1110 -22 1110 -22 1052 -22 c 0,0,1
EndSplineSet
EndChar

StartChar: endash
Encoding: 8211 8211 383
Width: 1466
GlyphClass: 2
Flags: W
LayerCount: 2
UndoRedoHistory
Layer: 1
Undoes
EndUndoes
Redoes
EndRedoes
EndUndoRedoHistory
Fore
SplineSet
200 489 m 1,0,-1
 200 626 l 1,1,-1
 1266 626 l 1,2,-1
 1266 489 l 1,3,-1
 200 489 l 1,0,-1
EndSplineSet
EndChar

StartChar: emdash
Encoding: 8212 8212 384
Width: 2496
GlyphClass: 2
Flags: W
LayerCount: 2
UndoRedoHistory
Layer: 1
Undoes
EndUndoes
Redoes
EndRedoes
EndUndoRedoHistory
Fore
SplineSet
200 489 m 1,0,-1
 200 626 l 1,1,-1
 2296 626 l 1,2,-1
 2296 489 l 1,3,-1
 200 489 l 1,0,-1
EndSplineSet
EndChar

StartChar: quoteleft
Encoding: 8216 8216 385
Width: 573
GlyphClass: 2
Flags: W
LayerCount: 2
UndoRedoHistory
Layer: 1
Undoes
EndUndoes
Redoes
EndRedoes
EndUndoRedoHistory
Fore
SplineSet
430 1456 m 1,0,-1
 326 1016 l 1,1,-1
 144 1016 l 1,2,-1
 298 1456 l 1,3,-1
 430 1456 l 1,0,-1
EndSplineSet
EndChar

StartChar: quoteright
Encoding: 8217 8217 386
Width: 571
GlyphClass: 2
Flags: W
LayerCount: 2
UndoRedoHistory
Layer: 1
Undoes
EndUndoes
Redoes
EndRedoes
EndUndoRedoHistory
Fore
SplineSet
145 1016 m 1,0,-1
 250 1456 l 1,1,-1
 431 1456 l 1,2,-1
 277 1016 l 1,3,-1
 145 1016 l 1,0,-1
EndSplineSet
EndChar

StartChar: quotesinglbase
Encoding: 8218 8218 387
Width: 572
GlyphClass: 2
Flags: W
LayerCount: 2
UndoRedoHistory
Layer: 1
Undoes
EndUndoes
Redoes
EndRedoes
EndUndoRedoHistory
Fore
SplineSet
143 -238 m 1,0,-1
 249 201 l 1,1,-1
 430 201 l 1,2,-1
 276 -238 l 1,3,-1
 143 -238 l 1,0,-1
EndSplineSet
EndChar

StartChar: quotedblleft
Encoding: 8220 8220 388
Width: 923
GlyphClass: 2
Flags: W
LayerCount: 2
UndoRedoHistory
Layer: 1
Undoes
EndUndoes
Redoes
EndRedoes
EndUndoRedoHistory
Fore
SplineSet
493 1016 m 1,0,-1
 647 1456 l 1,1,-1
 780 1456 l 1,2,-1
 676 1016 l 1,3,-1
 493 1016 l 1,0,-1
144 1016 m 1,4,-1
 298 1456 l 1,5,-1
 431 1456 l 1,6,-1
 326 1016 l 1,7,-1
 144 1016 l 1,4,-1
EndSplineSet
EndChar

StartChar: quotedblright
Encoding: 8221 8221 389
Width: 899
GlyphClass: 2
Flags: W
LayerCount: 2
UndoRedoHistory
Layer: 1
Undoes
EndUndoes
Redoes
EndRedoes
EndUndoRedoHistory
Fore
SplineSet
472 1016 m 1,0,-1
 577 1456 l 1,1,-1
 759 1456 l 1,2,-1
 605 1016 l 1,3,-1
 472 1016 l 1,0,-1
146 1016 m 1,4,-1
 250 1456 l 1,5,-1
 432 1456 l 1,6,-1
 279 1016 l 1,7,-1
 146 1016 l 1,4,-1
EndSplineSet
EndChar

StartChar: quotedblbase
Encoding: 8222 8222 390
Width: 933
GlyphClass: 2
Flags: W
LayerCount: 2
UndoRedoHistory
Layer: 1
Undoes
EndUndoes
Redoes
EndRedoes
EndUndoRedoHistory
Fore
SplineSet
503 -238 m 1,0,-1
 607 201 l 1,1,-1
 790 201 l 1,2,-1
 636 -238 l 1,3,-1
 503 -238 l 1,0,-1
144 -238 m 1,4,-1
 249 201 l 1,5,-1
 431 201 l 1,6,-1
 278 -238 l 1,7,-1
 144 -238 l 1,4,-1
EndSplineSet
EndChar

StartChar: dagger
Encoding: 8224 8224 391
Width: 1185
GlyphClass: 2
Flags: W
LayerCount: 2
UndoRedoHistory
Layer: 1
Undoes
EndUndoes
Redoes
EndRedoes
EndUndoRedoHistory
Fore
SplineSet
513 0 m 1,0,-1
 513 904 l 1,1,-1
 190 904 l 1,2,-1
 190 1026 l 1,3,-1
 513 1026 l 1,4,-1
 513 1456 l 1,5,-1
 654 1456 l 1,6,-1
 654 1026 l 1,7,-1
 994 1026 l 1,8,-1
 994 904 l 1,9,-1
 654 904 l 1,10,-1
 654 0 l 1,11,-1
 513 0 l 1,0,-1
EndSplineSet
EndChar

StartChar: daggerdbl
Encoding: 8225 8225 392
Width: 1192
GlyphClass: 2
Flags: W
LayerCount: 2
UndoRedoHistory
Layer: 1
Undoes
EndUndoes
Redoes
EndRedoes
EndUndoRedoHistory
Fore
SplineSet
527 0 m 1,0,-1
 527 440 l 1,1,-1
 191 440 l 1,2,-1
 191 557 l 1,3,-1
 527 557 l 1,4,-1
 527 988 l 1,5,-1
 197 988 l 1,6,-1
 197 1110 l 1,7,-1
 527 1110 l 1,8,-1
 527 1456 l 1,9,-1
 671 1456 l 1,10,-1
 671 1110 l 1,11,-1
 1001 1110 l 1,12,-1
 1001 988 l 1,13,-1
 671 988 l 1,14,-1
 671 557 l 1,15,-1
 994 557 l 1,16,-1
 994 440 l 1,17,-1
 671 440 l 1,18,-1
 671 0 l 1,19,-1
 527 0 l 1,0,-1
EndSplineSet
EndChar

StartChar: bullet
Encoding: 8226 8226 393
Width: 1029
GlyphClass: 2
Flags: W
LayerCount: 2
UndoRedoHistory
Layer: 1
Undoes
EndUndoes
Redoes
EndRedoes
EndUndoRedoHistory
Fore
SplineSet
512 427 m 0,0,1
 367 427 367 427 278.5 518 c 128,-1,2
 190 609 190 609 190 736 c 0,3,4
 190 833 190 833 239.5 907 c 128,-1,5
 289 981 289 981 362.5 1016.5 c 128,-1,6
 436 1052 436 1052 517 1052 c 0,7,8
 662 1052 662 1052 750.5 960 c 128,-1,9
 839 868 839 868 839 743 c 0,10,11
 839 597 839 597 748.5 512 c 128,-1,12
 658 427 658 427 512 427 c 0,0,1
EndSplineSet
EndChar

StartChar: ellipsis
Encoding: 8230 8230 394
Width: 1604
GlyphClass: 2
Flags: W
LayerCount: 2
UndoRedoHistory
Layer: 1
Undoes
EndUndoes
Redoes
EndRedoes
EndUndoRedoHistory
Fore
SplineSet
1223 0 m 1,0,-1
 1223 210 l 1,1,-1
 1440 210 l 1,2,-1
 1440 0 l 1,3,-1
 1223 0 l 1,0,-1
696 0 m 1,4,-1
 696 210 l 1,5,-1
 913 210 l 1,6,-1
 913 0 l 1,7,-1
 696 0 l 1,4,-1
169 0 m 1,8,-1
 169 210 l 1,9,-1
 386 210 l 1,10,-1
 386 0 l 1,11,-1
 169 0 l 1,8,-1
EndSplineSet
EndChar

StartChar: perthousand
Encoding: 8240 8240 395
Width: 2567
GlyphClass: 2
Flags: W
LayerCount: 2
UndoRedoHistory
Layer: 1
Undoes
EndUndoes
Redoes
EndRedoes
EndUndoRedoHistory
Fore
SplineSet
432 718 m 0,0,1
 268 718 268 718 178 826 c 128,-1,2
 88 934 88 934 88 1096 c 0,3,4
 88 1273 88 1273 184.5 1376.5 c 128,-1,5
 281 1480 281 1480 437 1480 c 0,6,7
 599 1480 599 1480 689.5 1376.5 c 128,-1,8
 780 1273 780 1273 780 1101 c 0,9,10
 780 925 780 925 683.5 821.5 c 128,-1,11
 587 718 587 718 432 718 c 0,0,1
1356 89 m 128,-1,13
 1456 89 1456 89 1506.5 165.5 c 128,-1,14
 1557 242 1557 242 1557 360 c 128,-1,15
 1557 478 1557 478 1507 551.5 c 128,-1,16
 1457 625 1457 625 1357 625 c 0,17,18
 1256 625 1256 625 1204.5 548 c 128,-1,19
 1153 471 1153 471 1153 353 c 0,20,21
 1153 232 1153 232 1204.5 160.5 c 128,-1,12
 1256 89 1256 89 1356 89 c 128,-1,13
435 831 m 128,-1,23
 535 831 535 831 585.5 907.5 c 128,-1,24
 636 984 636 984 636 1102 c 128,-1,25
 636 1220 636 1220 586 1293.5 c 128,-1,26
 536 1367 536 1367 436 1367 c 0,27,28
 335 1367 335 1367 283.5 1290 c 128,-1,29
 232 1213 232 1213 232 1095 c 0,30,31
 232 974 232 974 283.5 902.5 c 128,-1,22
 335 831 335 831 435 831 c 128,-1,23
1353 -24 m 0,32,33
 1189 -24 1189 -24 1099 84 c 128,-1,34
 1009 192 1009 192 1009 354 c 0,35,36
 1009 531 1009 531 1105.5 634.5 c 128,-1,37
 1202 738 1202 738 1358 738 c 0,38,39
 1520 738 1520 738 1610.5 634.5 c 128,-1,40
 1701 531 1701 531 1701 359 c 0,41,42
 1701 183 1701 183 1604.5 79.5 c 128,-1,43
 1508 -24 1508 -24 1353 -24 c 0,32,33
366 0 m 1,44,-1
 1266 1456 l 1,45,-1
 1415 1456 l 1,46,-1
 520 0 l 1,47,-1
 366 0 l 1,44,-1
2151 -24 m 0,48,49
 1987 -24 1987 -24 1897 84 c 128,-1,50
 1807 192 1807 192 1807 354 c 0,51,52
 1807 531 1807 531 1903.5 634.5 c 128,-1,53
 2000 738 2000 738 2156 738 c 0,54,55
 2318 738 2318 738 2408.5 634.5 c 128,-1,56
 2499 531 2499 531 2499 359 c 0,57,58
 2499 183 2499 183 2402.5 79.5 c 128,-1,59
 2306 -24 2306 -24 2151 -24 c 0,48,49
2154 89 m 128,-1,61
 2254 89 2254 89 2304.5 165.5 c 128,-1,62
 2355 242 2355 242 2355 360 c 128,-1,63
 2355 478 2355 478 2305 551.5 c 128,-1,64
 2255 625 2255 625 2155 625 c 0,65,66
 2054 625 2054 625 2002.5 548 c 128,-1,67
 1951 471 1951 471 1951 353 c 0,68,69
 1951 232 1951 232 2002.5 160.5 c 128,-1,60
 2054 89 2054 89 2154 89 c 128,-1,61
EndSplineSet
EndChar

StartChar: guilsinglleft
Encoding: 8249 8249 396
Width: 652
GlyphClass: 2
Flags: W
LayerCount: 2
UndoRedoHistory
Layer: 1
Undoes
EndUndoes
Redoes
EndRedoes
EndUndoRedoHistory
Fore
SplineSet
384 171 m 1,0,-1
 115 541 l 1,1,-1
 389 914 l 1,2,-1
 548 914 l 1,3,-1
 285 541 l 1,4,-1
 540 171 l 1,5,-1
 384 171 l 1,0,-1
EndSplineSet
EndChar

StartChar: guilsinglright
Encoding: 8250 8250 397
Width: 652
GlyphClass: 2
Flags: W
LayerCount: 2
UndoRedoHistory
Layer: 1
Undoes
EndUndoes
Redoes
EndRedoes
EndUndoRedoHistory
Fore
SplineSet
306 914 m 1,0,-1
 577 542 l 1,1,-1
 300 171 l 1,2,-1
 143 171 l 1,3,-1
 405 542 l 1,4,-1
 151 914 l 1,5,-1
 306 914 l 1,0,-1
EndSplineSet
EndChar

StartChar: fraction
Encoding: 8260 8260 398
Width: 982
GlyphClass: 2
Flags: W
LayerCount: 2
UndoRedoHistory
Layer: 1
Undoes
EndUndoes
Redoes
EndRedoes
EndUndoRedoHistory
Fore
SplineSet
0 0 m 1,0,-1
 833 1456 l 1,1,-1
 982 1456 l 1,2,-1
 151 0 l 1,3,-1
 0 0 l 1,0,-1
EndSplineSet
EndChar

StartChar: uni2074
Encoding: 8308 8308 399
Width: 907
GlyphClass: 2
Flags: W
LayerCount: 2
UndoRedoHistory
Layer: 1
Undoes
EndUndoes
Redoes
EndRedoes
EndUndoRedoHistory
Fore
SplineSet
127 910 m 1,0,-1
 366 910 l 1,1,-1
 366 1244 l 1,2,-1
 127 910 l 1,0,-1
366 615 m 1,3,-1
 366 803 l 1,4,-1
 -12 803 l 1,5,-1
 -12 894 l 1,6,-1
 354 1412 l 1,7,-1
 488 1412 l 1,8,-1
 488 910 l 1,9,-1
 597 910 l 1,10,-1
 607 803 l 1,11,-1
 486 803 l 1,12,-1
 486 615 l 1,13,-1
 366 615 l 1,3,-1
EndSplineSet
EndChar

StartChar: Euro
Encoding: 8364 8364 400
Width: 1394
GlyphClass: 2
Flags: W
LayerCount: 2
UndoRedoHistory
Layer: 1
Undoes
EndUndoes
Redoes
EndRedoes
EndUndoRedoHistory
Fore
SplineSet
829 -24 m 0,0,1
 681 -24 681 -24 554.5 28 c 128,-1,2
 428 80 428 80 336.5 175 c 128,-1,3
 245 270 245 270 193 411 c 0,4,5
 174 462 174 462 162 516 c 1,6,-1
 13 516 l 1,7,-1
 33 644 l 1,8,-1
 144 644 l 1,9,10
 141 682 141 682 141 722 c 0,11,12
 141 759 141 759 144 794 c 1,13,-1
 10 794 l 1,14,-1
 32 922 l 1,15,-1
 162 922 l 1,16,17
 173 976 173 976 191 1026 c 0,18,19
 241 1166 241 1166 330.5 1266 c 128,-1,20
 420 1366 420 1366 548 1423 c 128,-1,21
 676 1480 676 1480 827 1480 c 0,22,23
 1092 1480 1092 1480 1280 1332 c 1,24,-1
 1202 1210 l 1,25,26
 1042 1330 1042 1330 845 1330 c 0,27,28
 722 1330 722 1330 622.5 1282.5 c 128,-1,29
 523 1235 523 1235 458.5 1152 c 128,-1,30
 394 1069 394 1069 359 959 c 0,31,32
 353 941 353 941 348 922 c 1,33,-1
 903 922 l 1,34,-1
 883 794 l 1,35,-1
 327 794 l 1,36,37
 324 759 324 759 324 722 c 0,38,39
 324 682 324 682 327 644 c 1,40,-1
 869 644 l 1,41,-1
 850 516 l 1,42,-1
 348 516 l 1,43,44
 382 385 382 385 462 290 c 0,45,46
 600 126 600 126 836 126 c 0,47,48
 1063 126 1063 126 1242 271 c 1,49,-1
 1302 129 l 1,50,51
 1105 -24 1105 -24 829 -24 c 0,0,1
EndSplineSet
EndChar

StartChar: trademark
Encoding: 8482 8482 401
Width: 1839
GlyphClass: 2
Flags: W
LayerCount: 2
UndoRedoHistory
Layer: 1
Undoes
EndUndoes
Redoes
EndRedoes
EndUndoRedoHistory
Fore
SplineSet
333 690 m 1,0,-1
 333 1354 l 1,1,-1
 80 1354 l 1,2,-1
 80 1455 l 1,3,-1
 707 1455 l 1,4,-1
 707 1354 l 1,5,-1
 457 1354 l 1,6,-1
 457 690 l 1,7,-1
 333 690 l 1,0,-1
814 690 m 1,8,-1
 814 1455 l 1,9,-1
 961 1455 l 1,10,-1
 1229 846 l 1,11,-1
 1508 1455 l 1,12,-1
 1646 1455 l 1,13,-1
 1646 690 l 1,14,-1
 1530 690 l 1,15,-1
 1530 1274 l 1,16,-1
 1280 719 l 1,17,-1
 1178 719 l 1,18,-1
 929 1273 l 1,19,-1
 929 690 l 1,20,-1
 814 690 l 1,8,-1
EndSplineSet
EndChar

StartChar: partialdiff
Encoding: 8706 8706 402
Width: 1153
GlyphClass: 2
Flags: W
LayerCount: 2
UndoRedoHistory
Layer: 1
Undoes
EndUndoes
Redoes
EndRedoes
EndUndoRedoHistory
Fore
SplineSet
495 113 m 0,0,1
 809 113 809 113 872 660 c 1,2,3
 837 756 837 756 769.5 815 c 128,-1,4
 702 874 702 874 605 874 c 0,5,6
 440 874 440 874 351 746.5 c 128,-1,7
 262 619 262 619 262 422 c 0,8,9
 262 284 262 284 325 198.5 c 128,-1,10
 388 113 388 113 495 113 c 0,0,1
492 -22 m 0,11,12
 362 -22 362 -22 270.5 39 c 128,-1,13
 179 100 179 100 136 199 c 128,-1,14
 93 298 93 298 93 425 c 0,15,16
 93 553 93 553 133 663.5 c 128,-1,17
 173 774 173 774 240 848.5 c 128,-1,18
 307 923 307 923 396 965 c 128,-1,19
 485 1007 485 1007 583 1007 c 0,20,21
 761 1007 761 1007 889 841 c 1,22,23
 889 851 889 851 889.5 878 c 128,-1,24
 890 905 890 905 890 916 c 0,25,26
 890 1126 890 1126 807.5 1236 c 128,-1,27
 725 1346 725 1346 562 1346 c 0,28,29
 434 1346 434 1346 299 1251 c 1,30,-1
 289 1389 l 1,31,32
 420 1480 420 1480 585 1480 c 0,33,34
 689 1480 689 1480 771 1447 c 128,-1,35
 853 1414 853 1414 906.5 1357.5 c 128,-1,36
 960 1301 960 1301 995.5 1220.5 c 128,-1,37
 1031 1140 1031 1140 1046 1050.5 c 128,-1,38
 1061 961 1061 961 1061 857 c 0,39,40
 1061 673 1061 673 1025.5 515 c 128,-1,41
 990 357 990 357 921 236.5 c 128,-1,42
 852 116 852 116 742 47 c 128,-1,43
 632 -22 632 -22 492 -22 c 0,11,12
EndSplineSet
EndChar

StartChar: product
Encoding: 8719 8719 403
Width: 1549
GlyphClass: 2
Flags: W
LayerCount: 2
UndoRedoHistory
Layer: 1
Undoes
EndUndoes
Redoes
EndRedoes
EndUndoRedoHistory
Fore
SplineSet
301 0 m 1,0,-1
 301 1311 l 1,1,-1
 100 1311 l 1,2,-1
 100 1456 l 1,3,-1
 1449 1456 l 1,4,-1
 1449 1311 l 1,5,-1
 1270 1311 l 1,6,-1
 1270 0 l 1,7,-1
 1092 0 l 1,8,-1
 1092 1311 l 1,9,-1
 476 1311 l 1,10,-1
 476 0 l 1,11,-1
 301 0 l 1,0,-1
EndSplineSet
EndChar

StartChar: summation
Encoding: 8721 8721 404
Width: 1175
GlyphClass: 2
Flags: W
LayerCount: 2
UndoRedoHistory
Layer: 1
Undoes
EndUndoes
Redoes
EndRedoes
EndUndoRedoHistory
Fore
SplineSet
156 0 m 1,0,-1
 156 123 l 1,1,-1
 564 739 l 1,2,-1
 178 1338 l 1,3,-1
 178 1456 l 1,4,-1
 1010 1456 l 1,5,-1
 1010 1314 l 1,6,-1
 386 1314 l 1,7,-1
 760 741 l 1,8,-1
 356 148 l 1,9,-1
 1055 148 l 1,10,-1
 1055 0 l 1,11,-1
 156 0 l 1,0,-1
EndSplineSet
EndChar

StartChar: minus
Encoding: 8722 8722 405
Width: 1445
GlyphClass: 2
Flags: W
LayerCount: 2
UndoRedoHistory
Layer: 1
Undoes
EndUndoes
Redoes
EndRedoes
EndUndoRedoHistory
Fore
SplineSet
208 496 m 1,0,-1
 208 633 l 1,1,-1
 1235 633 l 1,2,-1
 1235 496 l 1,3,-1
 208 496 l 1,0,-1
EndSplineSet
EndChar

StartChar: radical
Encoding: 8730 8730 406
Width: 1238
GlyphClass: 2
Flags: W
LayerCount: 2
UndoRedoHistory
Layer: 1
Undoes
EndUndoes
Redoes
EndRedoes
EndUndoRedoHistory
Fore
SplineSet
551 0 m 1,0,-1
 300 673 l 1,1,-1
 128 645 l 1,2,-1
 108 757 l 1,3,-1
 401 808 l 1,4,-1
 551 367 l 1,5,-1
 613 162 l 1,6,-1
 667 370 l 1,7,-1
 1008 1456 l 1,8,-1
 1138 1456 l 1,9,-1
 680 0 l 1,10,-1
 551 0 l 1,0,-1
EndSplineSet
EndChar

StartChar: infinity
Encoding: 8734 8734 407
Width: 1683
GlyphClass: 2
Flags: W
LayerCount: 2
UndoRedoHistory
Layer: 1
Undoes
EndUndoes
Redoes
EndRedoes
EndUndoRedoHistory
Fore
SplineSet
1232 355 m 0,0,1
 1337 355 1337 355 1389.5 426.5 c 128,-1,2
 1442 498 1442 498 1442 618 c 0,3,4
 1442 717 1442 717 1380 773 c 128,-1,5
 1318 829 1318 829 1227 829 c 0,6,7
 1181 829 1181 829 1139 813.5 c 128,-1,8
 1097 798 1097 798 1068 778.5 c 128,-1,9
 1039 759 1039 759 1006.5 721.5 c 128,-1,10
 974 684 974 684 957 660 c 128,-1,11
 940 636 940 636 911 592 c 1,12,13
 919 581 919 581 942.5 548.5 c 128,-1,14
 966 516 966 516 975 504 c 128,-1,15
 984 492 984 492 1006.5 465.5 c 128,-1,16
 1029 439 1029 439 1042.5 428 c 128,-1,17
 1056 417 1056 417 1079.5 399.5 c 128,-1,18
 1103 382 1103 382 1124 374.5 c 128,-1,19
 1145 367 1145 367 1173 361 c 128,-1,20
 1201 355 1201 355 1232 355 c 0,0,1
464 355 m 0,21,22
 518 355 518 355 563.5 373 c 128,-1,23
 609 391 609 391 644.5 424.5 c 128,-1,24
 680 458 680 458 706.5 491 c 128,-1,25
 733 524 733 524 764 568 c 0,26,27
 768 575 768 575 771.5 579.5 c 128,-1,28
 775 584 775 584 778 589 c 1,29,30
 743 641 743 641 714 677 c 128,-1,31
 685 713 685 713 644 751.5 c 128,-1,32
 603 790 603 790 555.5 809.5 c 128,-1,33
 508 829 508 829 454 829 c 0,34,35
 350 829 350 829 293 760.5 c 128,-1,36
 236 692 236 692 236 592 c 0,37,38
 236 484 236 484 301 419.5 c 128,-1,39
 366 355 366 355 464 355 c 0,21,22
461 236 m 0,40,41
 298 236 298 236 202 346.5 c 128,-1,42
 106 457 106 457 106 612 c 0,43,44
 106 764 106 764 204 854 c 128,-1,45
 302 944 302 944 456 944 c 0,46,47
 513 944 513 944 563.5 929.5 c 128,-1,48
 614 915 614 915 650 894 c 128,-1,49
 686 873 686 873 724.5 836 c 128,-1,50
 763 799 763 799 787 769.5 c 128,-1,51
 811 740 811 740 847 692 c 1,52,53
 879 736 879 736 905 767 c 128,-1,54
 931 798 931 798 969 834 c 128,-1,55
 1007 870 1007 870 1044 892 c 128,-1,56
 1081 914 1081 914 1129.5 929 c 128,-1,57
 1178 944 1178 944 1231 944 c 0,58,59
 1393 944 1393 944 1487 846 c 128,-1,60
 1581 748 1581 748 1581 595 c 0,61,62
 1581 485 1581 485 1530 401.5 c 128,-1,63
 1479 318 1479 318 1400 277 c 128,-1,64
 1321 236 1321 236 1229 236 c 0,65,66
 1125 236 1125 236 1033.5 297.5 c 128,-1,67
 942 359 942 359 845 488 c 1,68,69
 806 435 806 435 768.5 395 c 128,-1,70
 731 355 731 355 682.5 316.5 c 128,-1,71
 634 278 634 278 577.5 257 c 128,-1,72
 521 236 521 236 461 236 c 0,40,41
EndSplineSet
EndChar

StartChar: integral
Encoding: 8747 8747 408
Width: 794
GlyphClass: 2
Flags: W
LayerCount: 2
UndoRedoHistory
Layer: 1
Undoes
EndUndoes
Redoes
EndRedoes
EndUndoRedoHistory
Fore
SplineSet
180 -259 m 0,0,1
 122 -259 122 -259 44 -238 c 1,2,-1
 42 -109 l 1,3,4
 81 -124 81 -124 152 -124 c 0,5,6
 247 -124 247 -124 279.5 -72 c 128,-1,7
 312 -20 312 -20 312 93 c 2,8,-1
 312 1150 l 2,9,10
 312 1526 312 1526 610 1526 c 0,11,12
 654 1526 654 1526 746 1505 c 1,13,-1
 748 1376 l 1,14,15
 709 1391 709 1391 638 1391 c 0,16,17
 542 1391 542 1391 509 1338.5 c 128,-1,18
 476 1286 476 1286 476 1174 c 2,19,-1
 476 117 l 2,20,21
 476 -259 476 -259 180 -259 c 0,0,1
EndSplineSet
EndChar

StartChar: approxequal
Encoding: 8776 8776 409
Width: 1328
GlyphClass: 2
Flags: W
LayerCount: 2
UndoRedoHistory
Layer: 1
Undoes
EndUndoes
Redoes
EndRedoes
EndUndoRedoHistory
Fore
SplineSet
277 634 m 1,0,-1
 162 661 l 1,1,2
 188 778 188 778 261.5 847.5 c 128,-1,3
 335 917 335 917 453 917 c 0,4,5
 515 917 515 917 582 891 c 128,-1,6
 649 865 649 865 696.5 834.5 c 128,-1,7
 744 804 744 804 797 778 c 128,-1,8
 850 752 850 752 887 752 c 0,9,10
 953 752 953 752 990 796 c 128,-1,11
 1027 840 1027 840 1053 918 c 1,12,-1
 1163 890 l 1,13,14
 1139 773 1139 773 1069 703.5 c 128,-1,15
 999 634 999 634 881 634 c 0,16,17
 819 634 819 634 754 660 c 128,-1,18
 689 686 689 686 644 716.5 c 128,-1,19
 599 747 599 747 545 773 c 128,-1,20
 491 799 491 799 449 799 c 0,21,22
 324 799 324 799 277 634 c 1,0,-1
278 261 m 1,23,-1
 164 289 l 1,24,25
 192 404 192 404 265.5 475 c 128,-1,26
 339 546 339 546 455 546 c 0,27,28
 523 546 523 546 592 520 c 128,-1,29
 661 494 661 494 707.5 463 c 128,-1,30
 754 432 754 432 804.5 406 c 128,-1,31
 855 380 855 380 889 380 c 128,-1,32
 923 380 923 380 950.5 393.5 c 128,-1,33
 978 407 978 407 997.5 433 c 128,-1,34
 1017 459 1017 459 1029.5 484 c 128,-1,35
 1042 509 1042 509 1055 546 c 1,36,-1
 1165 518 l 1,37,38
 1138 401 1138 401 1069.5 331.5 c 128,-1,39
 1001 262 1001 262 883 262 c 0,40,41
 821 262 821 262 755.5 287.5 c 128,-1,42
 690 313 690 313 644.5 344 c 128,-1,43
 599 375 599 375 546 400.5 c 128,-1,44
 493 426 493 426 452 426 c 0,45,46
 325 426 325 426 278 261 c 1,23,-1
EndSplineSet
EndChar

StartChar: notequal
Encoding: 8800 8800 410
Width: 1339
GlyphClass: 2
Flags: W
LayerCount: 2
UndoRedoHistory
Layer: 1
Undoes
EndUndoes
Redoes
EndRedoes
EndUndoRedoHistory
Fore
SplineSet
465 46 m 1,0,-1
 345 64 l 1,1,-1
 471 325 l 1,2,-1
 170 325 l 1,3,-1
 170 445 l 1,4,-1
 529 445 l 1,5,-1
 670 728 l 1,6,-1
 170 728 l 1,7,-1
 170 849 l 1,8,-1
 725 849 l 1,9,-1
 856 1123 l 1,10,-1
 978 1105 l 1,11,-1
 854 849 l 1,12,-1
 1160 849 l 1,13,-1
 1162 728 l 1,14,-1
 798 728 l 1,15,-1
 656 445 l 1,16,-1
 1162 445 l 1,17,-1
 1162 325 l 1,18,-1
 599 325 l 1,19,-1
 465 46 l 1,0,-1
EndSplineSet
EndChar

StartChar: lessequal
Encoding: 8804 8804 411
Width: 1340
GlyphClass: 2
Flags: W
LayerCount: 2
UndoRedoHistory
Layer: 1
Undoes
EndUndoes
Redoes
EndRedoes
EndUndoRedoHistory
Fore
SplineSet
171 0 m 1,0,-1
 171 122 l 1,1,-1
 1164 122 l 1,2,-1
 1164 0 l 1,3,-1
 171 0 l 1,0,-1
1135 247 m 1,4,-1
 207 697 l 1,5,-1
 207 778 l 1,6,-1
 1135 1250 l 1,7,-1
 1135 1110 l 1,8,-1
 382 741 l 1,9,-1
 1135 388 l 1,10,-1
 1135 247 l 1,4,-1
EndSplineSet
EndChar

StartChar: greaterequal
Encoding: 8805 8805 412
Width: 1339
GlyphClass: 2
Flags: W
LayerCount: 2
UndoRedoHistory
Layer: 1
Undoes
EndUndoes
Redoes
EndRedoes
EndUndoRedoHistory
Fore
SplineSet
206 1252 m 1,0,-1
 1141 779 l 1,1,-1
 1141 699 l 1,2,-1
 202 249 l 1,3,-1
 202 390 l 1,4,-1
 963 738 l 1,5,-1
 206 1112 l 1,6,-1
 206 1252 l 1,0,-1
171 0 m 1,7,-1
 171 122 l 1,8,-1
 1160 122 l 1,9,-1
 1160 0 l 1,10,-1
 171 0 l 1,7,-1
EndSplineSet
EndChar

StartChar: lozenge
Encoding: 9674 9674 413
Width: 1197
GlyphClass: 2
Flags: W
LayerCount: 2
UndoRedoHistory
Layer: 1
Undoes
EndUndoes
Redoes
EndRedoes
EndUndoRedoHistory
Fore
SplineSet
542 0 m 1,0,-1
 100 716 l 1,1,-1
 550 1456 l 1,2,-1
 652 1456 l 1,3,-1
 1097 717 l 1,4,-1
 644 0 l 1,5,-1
 542 0 l 1,0,-1
593 143 m 1,6,-1
 946 716 l 1,7,-1
 602 1310 l 1,8,-1
 249 718 l 1,9,-1
 593 143 l 1,6,-1
EndSplineSet
EndChar

StartChar: uniF6C3
Encoding: 63171 63171 414
Width: 609
GlyphClass: 2
Flags: W
LayerCount: 2
UndoRedoHistory
Layer: 1
Undoes
EndUndoes
Redoes
EndRedoes
EndUndoRedoHistory
Fore
SplineSet
120 -463 m 1,0,-1
 227 0 l 1,1,-1
 414 0 l 1,2,-1
 251 -463 l 1,3,-1
 120 -463 l 1,0,-1
EndSplineSet
EndChar

StartChar: f.alt
Encoding: 65539 -1 416
Width: 711
GlyphClass: 2
Flags: W
LayerCount: 2
UndoRedoHistory
Layer: 1
Undoes
EndUndoes
Redoes
EndRedoes
EndUndoRedoHistory
Fore
SplineSet
173 -404 m 1,0,-1
 153 -269 l 1,1,2
 220 -258 220 -258 243 -222 c 128,-1,3
 266 -186 266 -186 266 -76 c 2,4,-1
 266 919 l 1,5,-1
 64 919 l 1,6,-1
 64 1026 l 1,7,-1
 266 1026 l 1,8,-1
 266 1194 l 2,9,10
 266 1377 266 1377 363.5 1451.5 c 128,-1,11
 461 1526 461 1526 667 1526 c 2,12,-1
 721 1526 l 1,13,-1
 721 1406 l 1,14,15
 658 1406 658 1406 620 1403 c 128,-1,16
 582 1400 582 1400 540.5 1388.5 c 128,-1,17
 499 1377 499 1377 476.5 1355 c 128,-1,18
 454 1333 454 1333 439.5 1293.5 c 128,-1,19
 425 1254 425 1254 425 1196 c 2,20,-1
 425 1026 l 1,21,-1
 671 1026 l 1,22,-1
 671 919 l 1,23,-1
 425 919 l 1,24,-1
 425 -83 l 2,25,26
 425 -130 425 -130 421 -167 c 128,-1,27
 417 -204 417 -204 402 -249 c 128,-1,28
 387 -294 387 -294 361 -325 c 128,-1,29
 335 -356 335 -356 287 -378.5 c 128,-1,30
 239 -401 239 -401 173 -404 c 1,0,-1
EndSplineSet
EndChar

StartChar: four.alt
Encoding: 65540 -1 417
Width: 1240
GlyphClass: 2
Flags: W
LayerCount: 2
UndoRedoHistory
Layer: 1
Undoes
EndUndoes
Redoes
EndRedoes
EndUndoRedoHistory
Fore
SplineSet
319 520 m 1,0,-1
 774 520 l 1,1,-1
 774 1287 l 1,2,-1
 651 1081 l 1,3,-1
 319 520 l 1,0,-1
774 0 m 1,4,-1
 774 386 l 1,5,-1
 125 386 l 1,6,-1
 125 515 l 1,7,-1
 698 1456 l 1,8,-1
 945 1456 l 1,9,-1
 945 520 l 1,10,-1
 1163 520 l 1,11,-1
 1163 386 l 1,12,-1
 946 386 l 1,13,-1
 946 0 l 1,14,-1
 774 0 l 1,4,-1
EndSplineSet
EndChar

StartChar: k.alt
Encoding: 65541 -1 418
Width: 1068
GlyphClass: 2
Flags: W
LayerCount: 2
UndoRedoHistory
Layer: 1
Undoes
EndUndoes
Redoes
EndRedoes
EndUndoRedoHistory
Fore
SplineSet
188 0 m 1,0,-1
 188 1526 l 1,1,-1
 351 1526 l 1,2,-1
 351 308 l 1,3,-1
 808 1026 l 1,4,-1
 985 1026 l 1,5,-1
 689 580 l 1,6,-1
 1053 0 l 1,7,-1
 872 0 l 1,8,-1
 602 445 l 1,9,-1
 313 0 l 1,10,-1
 188 0 l 1,0,-1
EndSplineSet
EndChar

StartChar: k.alt.2
Encoding: 65542 -1 419
Width: 1126
GlyphClass: 2
Flags: W
LayerCount: 2
UndoRedoHistory
Layer: 1
Undoes
EndUndoes
Redoes
EndRedoes
EndUndoRedoHistory
Fore
SplineSet
1120 131 m 1,0,-1
 1108 -4 l 1,1,2
 1067 -21 1067 -21 1029 -24 c 128,-1,3
 991 -27 991 -27 957 -15 c 128,-1,4
 923 -3 923 -3 894 15 c 128,-1,5
 865 33 865 33 833 66 c 128,-1,6
 801 99 801 99 776.5 129.5 c 128,-1,7
 752 160 752 160 718 206 c 2,8,-1
 582 390 l 1,9,-1
 317 27 l 1,10,11
 276 -24 276 -24 224 -13 c 128,-1,12
 172 -2 172 -2 172 60 c 2,13,-1
 172 1526 l 1,14,-1
 336 1526 l 1,15,-1
 336 288 l 1,16,-1
 860 1026 l 1,17,-1
 1008 976 l 1,18,-1
 671 512 l 1,19,-1
 831 295 l 2,20,21
 903 197 903 197 932 168 c 0,22,23
 1023 79 1023 79 1116 129 c 0,24,25
 1118 130 1118 130 1120 131 c 1,0,-1
EndSplineSet
EndChar

StartChar: nine.alt
Encoding: 65543 -1 420
Width: 1176
GlyphClass: 2
Flags: W
LayerCount: 2
UndoRedoHistory
Layer: 1
Undoes
EndUndoes
Redoes
EndRedoes
EndUndoRedoHistory
Fore
SplineSet
572 701 m 0,0,1
 717 701 717 701 805 784 c 128,-1,2
 893 867 893 867 893 999 c 0,3,4
 893 1156 893 1156 804 1248 c 128,-1,5
 715 1340 715 1340 573 1340 c 0,6,7
 432 1340 432 1340 353 1247.5 c 128,-1,8
 274 1155 274 1155 274 1017 c 0,9,10
 274 868 274 868 352 784.5 c 128,-1,11
 430 701 430 701 572 701 c 0,0,1
517 -24 m 0,12,13
 412 -24 412 -24 337 7.5 c 128,-1,14
 262 39 262 39 193 104 c 1,15,-1
 247 232 l 1,16,17
 352 118 352 118 520 118 c 0,18,19
 621 118 621 118 698 167.5 c 128,-1,20
 775 217 775 217 818.5 302 c 128,-1,21
 862 387 862 387 883.5 490 c 128,-1,22
 905 593 905 593 905 711 c 2,23,-1
 905 735 l 1,24,25
 801 561 801 561 547 561 c 0,26,27
 339 561 339 561 218.5 687.5 c 128,-1,28
 98 814 98 814 98 1012 c 0,29,30
 98 1160 98 1160 163 1267.5 c 128,-1,31
 228 1375 228 1375 336 1427.5 c 128,-1,32
 444 1480 444 1480 581 1480 c 0,33,34
 1080 1480 1080 1480 1080 786 c 0,35,36
 1080 615 1080 615 1043 468.5 c 128,-1,37
 1006 322 1006 322 937 212 c 128,-1,38
 868 102 868 102 760 39 c 128,-1,39
 652 -24 652 -24 517 -24 c 0,12,13
EndSplineSet
EndChar

StartChar: nine.alt.2
Encoding: 65544 -1 421
Width: 1244
GlyphClass: 2
Flags: W
LayerCount: 2
UndoRedoHistory
Layer: 1
Undoes
EndUndoes
Redoes
EndRedoes
EndUndoRedoHistory
Fore
SplineSet
641 659 m 0,0,1
 802 659 802 659 886.5 748.5 c 128,-1,2
 971 838 971 838 971 992 c 0,3,4
 971 1154 971 1154 891 1242.5 c 128,-1,5
 811 1331 811 1331 646 1331 c 0,6,7
 492 1331 492 1331 403 1241.5 c 128,-1,8
 314 1152 314 1152 314 994 c 0,9,10
 314 926 314 926 331.5 868 c 128,-1,11
 349 810 349 810 385.5 762 c 128,-1,12
 422 714 422 714 487.5 686.5 c 128,-1,13
 553 659 553 659 641 659 c 0,0,1
545 -76 m 1,14,-1
 415 0 l 1,15,-1
 808 575 l 1,16,17
 728 515 728 515 622 515 c 0,18,19
 403 515 403 515 272.5 651 c 128,-1,20
 142 787 142 787 142 995 c 0,21,22
 142 1208 142 1208 283 1344.5 c 128,-1,23
 424 1481 424 1481 635 1481 c 0,24,25
 760 1481 760 1481 858 1440.5 c 128,-1,26
 956 1400 956 1400 1016 1330.5 c 128,-1,27
 1076 1261 1076 1261 1107 1174.5 c 128,-1,28
 1138 1088 1138 1088 1138 991 c 0,29,30
 1138 798 1138 798 999 598 c 1,31,-1
 545 -76 l 1,14,-1
EndSplineSet
EndChar

StartChar: one.alt
Encoding: 65545 -1 422
Width: 1258
GlyphClass: 2
Flags: W
LayerCount: 2
UndoRedoHistory
Layer: 1
Undoes
EndUndoes
Redoes
EndRedoes
EndUndoRedoHistory
Fore
SplineSet
668 0 m 1,0,-1
 668 1288 l 1,1,2
 566 1211 566 1211 410 1146 c 1,3,-1
 369 1277 l 1,4,5
 541 1356 541 1356 675 1456 c 1,6,-1
 840 1456 l 1,7,-1
 840 0 l 1,8,-1
 668 0 l 1,0,-1
EndSplineSet
EndChar
